<svg width="52" height="52" viewBox="0 0 52 52" fill="none" xmlns="http://www.w3.org/2000/svg">
<rect width="52" height="52" rx="12" fill="url(#paint0_linear_22_664)"/>
<path d="M38.3125 25.3857V22.2508C38.3125 21.6541 38.0458 21.0819 37.5711 20.6599C37.0964 20.238 36.4526 20.0009 35.7812 20.0009H34.5156L29.7062 14.3012C29.5734 14.1431 29.3758 14.0379 29.1562 14.0084C28.9367 13.9789 28.7129 14.0276 28.5334 14.1438L24.2641 16.9111C23.5674 16.2593 22.6671 15.808 21.6792 15.6152C20.6913 15.4224 19.6611 15.4971 18.7214 15.8296C17.7817 16.1621 16.9756 16.7371 16.407 17.4806C15.8384 18.2241 15.5334 19.1019 15.5312 20.0009C14.8599 20.0009 14.2161 20.238 13.7414 20.6599C13.2667 21.0819 13 21.6541 13 22.2508V35.7501C13 36.3468 13.2667 36.9191 13.7414 37.341C14.2161 37.763 14.8599 38 15.5312 38H35.7812C36.4526 38 37.0964 37.763 37.5711 37.341C38.0458 36.9191 38.3125 36.3468 38.3125 35.7501V32.6153C38.8049 32.4606 39.2313 32.1743 39.5335 31.7956C39.8356 31.417 39.9985 30.9646 40 30.5004V27.5006C39.9985 27.0364 39.8356 26.584 39.5335 26.2053C39.2313 25.8267 38.8049 25.5404 38.3125 25.3857ZM28.8541 15.7937L32.4062 20.0009H22.3488L28.8541 15.7937ZM20.5938 17.0011C21.4412 17.0015 22.2574 17.2853 22.8803 17.7961L19.4716 20.0009H17.2188C17.2188 19.2053 17.5743 18.4423 18.2073 17.8797C18.8402 17.3172 19.6986 17.0011 20.5938 17.0011ZM35.7812 36.5001H15.5312C15.3075 36.5001 15.0929 36.4211 14.9346 36.2804C14.7764 36.1398 14.6875 35.949 14.6875 35.7501V22.2508C14.6875 22.0519 14.7764 21.8612 14.9346 21.7205C15.0929 21.5799 15.3075 21.5009 15.5312 21.5009H35.7812C36.005 21.5009 36.2196 21.5799 36.3779 21.7205C36.5361 21.8612 36.625 22.0519 36.625 22.2508V25.2507H34.0938C32.9749 25.2507 31.9018 25.6457 31.1106 26.349C30.3195 27.0522 29.875 28.006 29.875 29.0005C29.875 29.995 30.3195 30.9488 31.1106 31.652C31.9018 32.3552 32.9749 32.7503 34.0938 32.7503H36.625V35.7501C36.625 35.949 36.5361 36.1398 36.3779 36.2804C36.2196 36.4211 36.005 36.5001 35.7812 36.5001ZM38.3125 30.5004C38.3125 30.6993 38.2236 30.8901 38.0654 31.0307C37.9071 31.1713 37.6925 31.2504 37.4688 31.2504H34.0938C33.4224 31.2504 32.7786 31.0133 32.3039 30.5914C31.8292 30.1694 31.5625 29.5972 31.5625 29.0005C31.5625 28.4038 31.8292 27.8315 32.3039 27.4096C32.7786 26.9876 33.4224 26.7506 34.0938 26.7506H37.4688C37.6925 26.7506 37.9071 26.8296 38.0654 26.9703C38.2236 27.1109 38.3125 27.3017 38.3125 27.5006V30.5004Z" fill="black"/>
<path d="M34.0938 28.2505C33.9269 28.2505 33.7637 28.2945 33.625 28.3769C33.4862 28.4593 33.3781 28.5764 33.3142 28.7135C33.2504 28.8505 33.2337 29.0013 33.2662 29.1468C33.2988 29.2923 33.3791 29.4259 33.4971 29.5308C33.6151 29.6357 33.7655 29.7071 33.9291 29.736C34.0928 29.765 34.2625 29.7501 34.4166 29.6934C34.5708 29.6366 34.7026 29.5405 34.7953 29.4171C34.888 29.2938 34.9375 29.1488 34.9375 29.0005C34.9375 28.8016 34.8486 28.6108 34.6904 28.4702C34.5321 28.3295 34.3175 28.2505 34.0938 28.2505Z" fill="black"/>
<path d="M17.2188 23.0008C16.995 23.0008 16.7804 23.0798 16.6221 23.2205C16.4639 23.3611 16.375 23.5519 16.375 23.7508V25.2507C16.375 25.4496 16.4639 25.6403 16.6221 25.781C16.7804 25.9216 16.995 26.0006 17.2188 26.0006C17.4425 26.0006 17.6571 25.9216 17.8154 25.781C17.9736 25.6403 18.0625 25.4496 18.0625 25.2507V23.7508C18.0625 23.5519 17.9736 23.3611 17.8154 23.2205C17.6571 23.0798 17.4425 23.0008 17.2188 23.0008Z" fill="black"/>
<path d="M17.2188 27.5006C16.995 27.5006 16.7804 27.5796 16.6221 27.7202C16.4639 27.8609 16.375 28.0516 16.375 28.2505V29.7504C16.375 29.9493 16.4639 30.1401 16.6221 30.2807C16.7804 30.4214 16.995 30.5004 17.2188 30.5004C17.4425 30.5004 17.6571 30.4214 17.8154 30.2807C17.9736 30.1401 18.0625 29.9493 18.0625 29.7504V28.2505C18.0625 28.0516 17.9736 27.8609 17.8154 27.7202C17.6571 27.5796 17.4425 27.5006 17.2188 27.5006Z" fill="black"/>
<path d="M17.2188 32.0003C16.995 32.0003 16.7804 32.0793 16.6221 32.22C16.4639 32.3606 16.375 32.5514 16.375 32.7503V34.2502C16.375 34.4491 16.4639 34.6399 16.6221 34.7805C16.7804 34.9211 16.995 35.0002 17.2188 35.0002C17.4425 35.0002 17.6571 34.9211 17.8154 34.7805C17.9736 34.6399 18.0625 34.4491 18.0625 34.2502V32.7503C18.0625 32.5514 17.9736 32.3606 17.8154 32.22C17.6571 32.0793 17.4425 32.0003 17.2188 32.0003Z" fill="black"/>
<defs>
<linearGradient id="paint0_linear_22_664" x1="26" y1="0" x2="26" y2="52" gradientUnits="userSpaceOnUse">
<stop stop-color="#FBFBFB"/>
<stop offset="1" stop-color="#DBDBDB"/>
</linearGradient>
</defs>
</svg>
