<svg width="72" height="78" viewBox="0 0 72 78" fill="none" xmlns="http://www.w3.org/2000/svg">
<path d="M36 49.2778V57.5M14.75 30.8962C16.7535 30.7778 19.2235 30.7778 22.4 30.7778H49.6C52.7764 30.7778 55.2466 30.7778 57.25 30.8962M14.75 30.8962C12.2496 31.0438 10.4757 31.3759 8.96163 32.1221C6.56255 33.3045 4.61205 35.1911 3.38967 37.5118C2 40.1503 2 43.6036 2 50.5111V56.2667C2 63.1742 2 66.6275 3.38967 69.266C4.61205 71.5867 6.56255 73.4733 8.96163 74.6557C11.689 76 15.2593 76 22.4 76H49.6C56.7408 76 60.3108 76 63.0385 74.6557C65.4376 73.4733 67.388 71.5867 68.6103 69.266C70 66.6275 70 63.1742 70 56.2667V50.5111C70 43.6036 70 40.1503 68.6103 37.5118C67.388 35.1911 65.4376 33.3045 63.0385 32.1221C61.5242 31.3759 59.7503 31.0438 57.25 30.8962M14.75 30.8962V22.5556C14.75 11.2031 24.264 2 36 2C47.7359 2 57.25 11.2031 57.25 22.5556V30.8962" stroke="white" stroke-width="4" stroke-linecap="round" stroke-linejoin="round"/>
</svg>
