<svg width="53" height="52" viewBox="0 0 53 52" fill="none" xmlns="http://www.w3.org/2000/svg">
<rect x="0.270996" width="52" height="52" rx="12" fill="url(#paint0_linear_22_666)"/>
<path fill-rule="evenodd" clip-rule="evenodd" d="M40.0031 25.271C39.2967 25.271 38.5905 25.5362 38.0585 26.0682L34.8311 29.2977C34.4737 28.7335 33.9172 28.2936 33.2303 28.1095L25.613 26.0682C25.0059 25.9055 24.3782 25.875 23.7694 25.9672C23.1606 26.0595 22.5713 26.2745 22.0397 26.6097L17.2845 29.6093L16.8999 28.9411C16.4209 28.1114 15.3208 27.8174 14.4912 28.2964L10.8749 30.3829C10.0452 30.8619 9.75124 31.9619 10.2302 32.7916L15.6193 42.1235C16.0983 42.9532 17.1962 43.2493 18.0258 42.7703L21.6422 40.6817C22.4718 40.2027 22.7679 39.1027 22.2889 38.273L22.218 38.1484L24.2786 36.756L31.8593 38.2472C32.8982 38.4514 33.8269 38.1616 34.5667 37.4049C37.0118 34.904 39.46 32.4144 41.9433 29.9639C41.9455 29.9624 41.9477 29.9609 41.9499 29.9595C43.0139 28.8955 43.0139 27.1321 41.9499 26.0681C41.4179 25.5361 40.7095 25.271 40.0031 25.271ZM40.0031 27.452C40.1403 27.452 40.2775 27.5094 40.392 27.6239C40.6209 27.8528 40.6209 28.1749 40.392 28.4039C37.8951 30.8679 35.4398 33.3669 32.9939 35.8686C32.949 35.9146 32.3474 36.1 32.2848 36.0877L24.255 34.5106C24.1125 34.4824 23.9659 34.4827 23.8236 34.5114C23.6812 34.5402 23.5459 34.5969 23.4256 34.6782L21.1157 36.2403L18.3868 31.5152L23.2129 28.4726C23.7583 28.1288 24.4208 28.0264 25.0436 28.1933L32.6609 30.2346C32.9736 30.3184 33.1336 30.5966 33.0498 30.9093C32.9659 31.222 32.6878 31.382 32.3751 31.2982L27.5941 30.0176C27.3123 29.9421 27.0121 29.9817 26.7594 30.1275C26.5068 30.2734 26.3224 30.5136 26.2469 30.7954C26.1714 31.0772 26.211 31.3774 26.3568 31.6301C26.5027 31.8827 26.7429 32.0671 27.0247 32.1427L31.8057 33.4233C32.8792 33.711 33.9914 33.3037 34.657 32.4865C34.7634 32.4378 34.8613 32.3726 34.9471 32.2931L39.6141 27.6239C39.7286 27.5094 39.8658 27.452 40.0031 27.452ZM15.2132 30.4194L15.746 31.3433C15.7648 31.4994 15.8169 31.6496 15.8986 31.7838C15.9692 31.8908 16.0579 31.9846 16.1607 32.061L20.1638 38.995L17.306 40.6452L12.3553 32.0696L15.2132 30.4194Z" fill="black"/>
<path fill-rule="evenodd" clip-rule="evenodd" d="M30.7399 18.8012C30.4481 18.8012 30.1683 18.9171 29.962 19.1234C29.7557 19.3297 29.6398 19.6096 29.6398 19.9014C29.6398 20.1931 29.7557 20.4729 29.962 20.6793C30.1683 20.8856 30.4481 21.0015 30.7399 21.0015H32.9402C33.232 21.0015 33.5118 20.8856 33.7181 20.6793C33.9245 20.4729 34.0404 20.1931 34.0404 19.9014C34.0404 19.6096 33.9245 19.3297 33.7181 19.1234C33.5118 18.9171 33.232 18.8012 32.9402 18.8012H30.7399Z" fill="black"/>
<path fill-rule="evenodd" clip-rule="evenodd" d="M30.7399 14.4006C30.4481 14.4006 30.1683 14.5165 29.962 14.7228C29.7557 14.9291 29.6398 15.209 29.6398 15.5008C29.6398 15.7925 29.7557 16.0723 29.962 16.2787C30.1683 16.485 30.4481 16.6009 30.7399 16.6009H32.9402C33.232 16.6009 33.5118 16.485 33.7181 16.2787C33.9245 16.0723 34.0404 15.7925 34.0404 15.5008C34.0404 15.209 33.9245 14.9291 33.7181 14.7228C33.5118 14.5165 33.232 14.4006 32.9402 14.4006H30.7399Z" fill="black"/>
<path fill-rule="evenodd" clip-rule="evenodd" d="M31.8401 10C27.6 10 24.139 13.4609 24.139 17.7011C24.139 21.9412 27.6 25.4021 31.8401 25.4021C36.0802 25.4021 39.5411 21.9412 39.5411 17.7011C39.5411 13.4609 36.0802 10 31.8401 10ZM31.8401 12.2003C34.8911 12.2003 37.3408 14.65 37.3408 17.7011C37.3408 20.7521 34.8911 23.2018 31.8401 23.2018C28.7891 23.2018 26.3393 20.7521 26.3393 17.7011C26.3393 14.65 28.7891 12.2003 31.8401 12.2003Z" fill="black"/>
<defs>
<linearGradient id="paint0_linear_22_666" x1="26.271" y1="0" x2="26.271" y2="52" gradientUnits="userSpaceOnUse">
<stop stop-color="#FBFBFB"/>
<stop offset="1" stop-color="#DBDBDB"/>
</linearGradient>
</defs>
</svg>
