<svg width="44" height="28" viewBox="0 0 44 28" fill="none" xmlns="http://www.w3.org/2000/svg">
<path d="M24.8674 24.0425L24.8908 24.0137C25.5448 24.5866 26.3584 24.9818 27.2562 25.1239L27.528 25.1588L27.5278 28C25.8542 27.8968 24.328 27.2485 23.1246 26.2304L22.8883 26.0219L24.8674 24.0425ZM31.2396 23.8951L33.169 25.826C33.1942 25.8512 33.2214 25.8729 33.2509 25.8907C32.0711 27.032 30.5204 27.7922 28.7971 27.973L28.4721 28L28.472 25.1589C29.539 25.053 30.5016 24.5917 31.2396 23.8951ZM23.2794 20.9336L23.3025 20.9314C23.3814 21.7297 23.6591 22.4695 24.0855 23.1007L24.2522 23.3322L24.1998 23.3749L22.2344 25.3408C21.2824 24.2171 20.6532 22.8114 20.4895 21.2667L20.4616 20.9336L23.2794 20.9336ZM32.6976 20.9314L32.7206 20.9336L35.5385 20.9336C35.4456 22.4402 34.911 23.8273 34.0627 24.967L33.8761 25.2074L33.8365 25.1584L31.8591 23.181C32.3168 22.5326 32.6153 21.7638 32.6976 20.9314ZM28 16.6851C30.0857 16.6851 31.7765 18.3759 31.7765 20.4616C31.7765 22.5473 30.0857 24.238 28 24.238C25.9143 24.238 24.2236 22.5473 24.2236 20.4616C24.2236 18.3759 25.9143 16.6851 28 16.6851ZM31.7049 0C33.2967 0 34.5871 1.29684 34.5871 2.89657L34.5865 3.81015L24.0188 3.81127C23.0107 3.81127 22.1839 4.59155 22.1037 5.58395L22.0973 5.74233V9.89894C22.0973 10.9121 22.8738 11.743 23.8613 11.8236L24.0188 11.83L26.1606 11.8285C22.2172 12.6183 19.2465 16.1001 19.2465 20.2759C19.2465 21.2924 19.4225 22.2678 19.7458 23.1733L2.88227 23.1724C1.29044 23.1724 0 21.8756 0 20.2759V2.89657C0 1.29684 1.29044 0 2.88227 0H31.7049ZM22.2338 15.583L24.1998 17.5482L24.2522 17.591C23.7895 18.1942 23.4691 18.9123 23.3413 19.6952L23.3025 19.9917L23.2794 19.9895L20.4616 19.9893C20.5649 18.3142 21.2143 16.7868 22.2338 15.583ZM31.6711 17.4936L33.6799 15.4828C34.6778 16.6203 35.3394 18.0601 35.5096 19.6471L35.5385 19.9893L32.7206 19.9895L32.6976 19.9917C32.6138 19.1444 32.3061 18.3629 31.8343 17.7074L31.6711 17.4936ZM10.2108 16.4138H4.73429C4.24206 16.4138 3.84298 16.8128 3.84298 17.3051C3.84298 17.7594 4.18303 18.1344 4.62248 18.1894L4.73429 18.1963H10.2108C10.703 18.1963 11.102 17.7973 11.102 17.3051C11.102 16.8128 10.703 16.4138 10.2108 16.4138ZM18.4306 16.4138H12.9541C12.4618 16.4138 12.0628 16.8128 12.0628 17.3051C12.0628 17.7594 12.4028 18.1344 12.8422 18.1894L12.9541 18.1963H18.4306C18.9228 18.1963 19.3218 17.7973 19.3218 17.3051C19.3218 16.8128 18.9228 16.4138 18.4306 16.4138ZM27.5278 12.9231L27.5284 15.7529L27.5302 15.7641C26.5241 15.8635 25.6108 16.2788 24.8941 16.9095L24.8811 16.8949L24.8674 16.8806L22.8872 14.9022C24.1242 13.764 25.7421 13.0333 27.5278 12.9231ZM28.4721 15.7409V12.9231C30.1023 13.0237 31.5926 13.6413 32.781 14.6141L33.0146 14.8133L31.0063 16.8219C30.3735 16.2985 29.6019 15.9371 28.7549 15.801L28.4698 15.7641L28.4721 15.7409ZM29.5616 11.8281L34.5876 11.8289L34.588 14.8917C33.3467 13.3431 31.5817 12.2324 29.5616 11.8281ZM36.669 3.50684L43.3091 7.82062L36.669 12.1344L36.6674 9.89845L24.0188 9.89894V5.74233L36.6674 5.7419L36.669 3.50684ZM8.64681 3.86208C8.0726 3.86208 7.55719 4.11519 7.20509 4.51646C6.85413 4.11519 6.33876 3.86208 5.76454 3.86208C4.70332 3.86208 3.84298 4.72662 3.84298 5.7931C3.84298 6.85958 4.70332 7.72416 5.76454 7.72416C6.33876 7.72416 6.8541 7.47102 7.2062 7.06975C7.55716 7.47102 8.0726 7.72416 8.64681 7.72416C9.70803 7.72416 10.5683 6.85958 10.5683 5.7931C10.5683 4.72662 9.70803 3.86208 8.64681 3.86208Z" fill="black"/>
</svg>
