<svg width="21" height="21" viewBox="0 0 21 21" fill="none" xmlns="http://www.w3.org/2000/svg">
<path d="M10.9643 15.17C10.8131 15.3353 10.5994 15.4295 10.3753 15.4295C10.1512 15.4295 9.93752 15.3353 9.78631 15.17L5.52988 10.5145C5.23246 10.1892 5.25507 9.6844 5.58036 9.38698C5.90567 9.08956 6.41047 9.11212 6.70789 9.43742L9.57722 12.5758V0.798077C9.57722 0.357315 9.93454 0 10.3753 0C10.816 0 11.1734 0.357315 11.1734 0.798077V12.5758L14.0427 9.43742C14.3401 9.11212 14.8449 9.08956 15.1702 9.38698C15.4955 9.6844 15.5181 10.1892 15.2207 10.5145L10.9643 15.17Z" fill="white"/>
<path d="M1.59615 13.5672C1.59615 13.1265 1.23885 12.7692 0.798077 12.7692C0.357316 12.7692 5.5754e-07 13.1265 5.5754e-07 13.5672V13.6257C-2.07245e-05 15.0809 -4.20828e-05 16.2539 0.12399 17.1765C0.252767 18.1343 0.528253 18.9406 1.16876 19.5811C1.80926 20.2217 2.61571 20.4972 3.57352 20.626C4.49607 20.7499 5.66905 20.7499 7.12431 20.7499H13.6257C15.081 20.7499 16.254 20.7499 17.1765 20.626C18.1343 20.4972 18.9407 20.2217 19.5813 19.5811C20.2218 18.9406 20.4973 18.1343 20.626 17.1765C20.75 16.2539 20.75 15.0809 20.75 13.6257V13.5672C20.75 13.1265 20.3927 12.7692 19.9519 12.7692C19.5112 12.7692 19.1538 13.1265 19.1538 13.5672C19.1538 15.0947 19.1521 16.1599 19.0441 16.9638C18.9391 17.7446 18.7471 18.158 18.4526 18.4525C18.1581 18.7471 17.7447 18.939 16.9638 19.0441C16.16 19.1521 15.0947 19.1538 13.5673 19.1538H7.18269C5.65527 19.1538 4.58997 19.1521 3.7862 19.0441C3.0054 18.939 2.59191 18.7471 2.29741 18.4525C2.00291 18.158 1.81089 17.7446 1.70592 16.9638C1.59785 16.1599 1.59615 15.0947 1.59615 13.5672Z" fill="white"/>
</svg>
