<svg width="29" height="29" viewBox="0 0 29 29" fill="none" xmlns="http://www.w3.org/2000/svg">
<g clip-path="url(#clip0_107_3617)">
<path d="M14.5 1.20839C11.8712 1.20839 9.3014 1.98793 7.11559 3.44844C4.92979 4.90895 3.22616 6.98482 2.22015 9.41356C1.21413 11.8423 0.950914 14.5148 1.46378 17.0931C1.97664 19.6715 3.24255 22.0398 5.10142 23.8987C6.96029 25.7576 9.32864 27.0235 11.907 27.5363C14.4853 28.0492 17.1578 27.786 19.5865 26.78C22.0153 25.7739 24.0912 24.0703 25.5517 21.8845C27.0122 19.6987 27.7917 17.1289 27.7917 14.5001C27.7997 12.7523 27.4614 11.0203 26.7962 9.40411C26.1311 7.78788 25.1524 6.31944 23.9165 5.0836C22.6807 3.84775 21.2122 2.869 19.596 2.20387C17.9798 1.53873 16.2478 1.20039 14.5 1.20839ZM14.5 25.3751C12.3492 25.3751 10.2466 24.7373 8.45822 23.5423C6.66984 22.3473 5.27596 20.6489 4.45286 18.6617C3.62975 16.6746 3.41439 14.488 3.83401 12.3785C4.25362 10.2689 5.28936 8.33117 6.81026 6.81027C8.33116 5.28938 10.2689 4.25363 12.3784 3.83402C14.488 3.4144 16.6746 3.62976 18.6617 4.45287C20.6489 5.27597 22.3473 6.66985 23.5423 8.45823C24.7372 10.2466 25.375 12.3492 25.375 14.5001C25.3592 17.3794 24.2083 20.1363 22.1723 22.1723C20.1363 24.2083 17.3794 25.3592 14.5 25.3751Z" fill="white"/>
<path d="M14.5001 12.0834C14.1796 12.0834 13.8723 12.2107 13.6457 12.4373C13.4191 12.6639 13.2917 12.9712 13.2917 13.2917V20.5417C13.2917 20.8622 13.4191 21.1695 13.6457 21.3961C13.8723 21.6227 14.1796 21.75 14.5001 21.75C14.8206 21.75 15.1279 21.6227 15.3545 21.3961C15.5811 21.1695 15.7084 20.8622 15.7084 20.5417V13.2917C15.7084 12.9712 15.5811 12.6639 15.3545 12.4373C15.1279 12.2107 14.8206 12.0834 14.5001 12.0834Z" fill="white"/>
<path d="M14.5001 9.66667C15.1674 9.66667 15.7084 9.12568 15.7084 8.45833C15.7084 7.79099 15.1674 7.25 14.5001 7.25C13.8327 7.25 13.2917 7.79099 13.2917 8.45833C13.2917 9.12568 13.8327 9.66667 14.5001 9.66667Z" fill="white"/>
</g>
<defs>
<clipPath id="clip0_107_3617">
<rect width="29" height="29" fill="white"/>
</clipPath>
</defs>
</svg>
