<svg width="486" height="111" viewBox="0 0 486 111" fill="none" xmlns="http://www.w3.org/2000/svg">
<path d="M186.045 80.9318V61.0909H197.136V96H186.545V89.5H186.182C185.409 91.6364 184.091 93.3333 182.227 94.5909C180.379 95.8333 178.144 96.4545 175.523 96.4545C173.144 96.4545 171.053 95.9091 169.25 94.8182C167.447 93.7273 166.045 92.2045 165.045 90.25C164.045 88.2803 163.538 85.9773 163.523 83.3409V61.0909H174.636V81.1591C174.652 83.053 175.152 84.5455 176.136 85.6364C177.121 86.7273 178.462 87.2727 180.159 87.2727C181.265 87.2727 182.258 87.0303 183.136 86.5455C184.03 86.0455 184.735 85.3258 185.25 84.3864C185.78 83.4318 186.045 82.2803 186.045 80.9318ZM204.21 96V61.0909H215.006V67.4545H215.369C216.006 65.1515 217.044 63.4394 218.483 62.3182C219.922 61.1818 221.597 60.6136 223.506 60.6136C224.021 60.6136 224.551 60.6515 225.097 60.7273C225.642 60.7879 226.15 60.8864 226.619 61.0227V70.6818C226.089 70.5 225.392 70.3561 224.528 70.25C223.68 70.1439 222.922 70.0909 222.256 70.0909C220.938 70.0909 219.748 70.3864 218.688 70.9773C217.642 71.553 216.816 72.3636 216.21 73.4091C215.619 74.4394 215.324 75.6515 215.324 77.0455V96H204.21ZM239.676 96.5909C237.449 96.5909 235.472 96.2197 233.744 95.4773C232.032 94.7197 230.676 93.5833 229.676 92.0682C228.691 90.5379 228.199 88.6212 228.199 86.3182C228.199 84.3788 228.54 82.7424 229.222 81.4091C229.903 80.0758 230.843 78.9924 232.04 78.1591C233.237 77.3258 234.616 76.697 236.176 76.2727C237.737 75.8333 239.403 75.5379 241.176 75.3864C243.161 75.2045 244.759 75.0152 245.972 74.8182C247.184 74.6061 248.063 74.3106 248.608 73.9318C249.169 73.5379 249.449 72.9848 249.449 72.2727V72.1591C249.449 70.9924 249.047 70.0909 248.244 69.4545C247.441 68.8182 246.358 68.5 244.994 68.5C243.525 68.5 242.343 68.8182 241.449 69.4545C240.555 70.0909 239.987 70.9697 239.744 72.0909L229.494 71.7273C229.797 69.6061 230.578 67.7121 231.835 66.0455C233.108 64.3636 234.85 63.0455 237.062 62.0909C239.29 61.1212 241.964 60.6364 245.085 60.6364C247.313 60.6364 249.366 60.9015 251.244 61.4318C253.123 61.947 254.759 62.7045 256.153 63.7045C257.547 64.6894 258.623 65.9015 259.381 67.3409C260.153 68.7803 260.54 70.4242 260.54 72.2727V96H250.085V91.1364H249.812C249.191 92.3182 248.396 93.3182 247.426 94.1364C246.472 94.9545 245.343 95.5682 244.04 95.9773C242.752 96.3864 241.297 96.5909 239.676 96.5909ZM243.108 89.3182C244.305 89.3182 245.381 89.0758 246.335 88.5909C247.305 88.1061 248.078 87.4394 248.653 86.5909C249.229 85.7273 249.517 84.7273 249.517 83.5909V80.2727C249.199 80.4394 248.813 80.5909 248.358 80.7273C247.919 80.8636 247.434 80.9924 246.903 81.1136C246.373 81.2348 245.828 81.3409 245.267 81.4318C244.706 81.5227 244.169 81.6061 243.653 81.6818C242.608 81.8485 241.714 82.1061 240.972 82.4545C240.244 82.803 239.684 83.2576 239.29 83.8182C238.911 84.3636 238.722 85.0152 238.722 85.7727C238.722 86.9242 239.131 87.803 239.949 88.4091C240.782 89.0152 241.835 89.3182 243.108 89.3182ZM280.085 96.5C277.509 96.5 275.169 95.8333 273.062 94.5C270.956 93.1667 269.275 91.1667 268.017 88.5C266.759 85.8333 266.131 82.5227 266.131 78.5682C266.131 74.4621 266.782 71.0833 268.085 68.4318C269.388 65.7803 271.093 63.8182 273.199 62.5455C275.32 61.2727 277.6 60.6364 280.04 60.6364C281.873 60.6364 283.441 60.9545 284.744 61.5909C286.047 62.2121 287.123 63.0152 287.972 64C288.82 64.9848 289.464 66.0076 289.903 67.0682H290.131V49.4545H301.244V96H290.244V90.3409H289.903C289.434 91.4167 288.767 92.4242 287.903 93.3636C287.04 94.303 285.956 95.0606 284.653 95.6364C283.366 96.2121 281.843 96.5 280.085 96.5ZM283.949 87.8409C285.297 87.8409 286.449 87.4621 287.403 86.7045C288.358 85.9318 289.093 84.8485 289.608 83.4545C290.123 82.0606 290.381 80.4242 290.381 78.5455C290.381 76.6364 290.123 74.9924 289.608 73.6136C289.108 72.2348 288.373 71.1742 287.403 70.4318C286.449 69.6894 285.297 69.3182 283.949 69.3182C282.57 69.3182 281.403 69.697 280.449 70.4545C279.494 71.2121 278.767 72.2803 278.267 73.6591C277.782 75.0379 277.54 76.6667 277.54 78.5455C277.54 80.4242 277.79 82.0606 278.29 83.4545C278.79 84.8485 279.509 85.9318 280.449 86.7045C281.403 87.4621 282.57 87.8409 283.949 87.8409Z" fill="black"/>
<path d="M327 96V49.4545H347.182C350.727 49.4545 353.705 49.9318 356.114 50.8864C358.538 51.8409 360.364 53.1894 361.591 54.9318C362.833 56.6742 363.455 58.7273 363.455 61.0909C363.455 62.803 363.076 64.3636 362.318 65.7727C361.576 67.1818 360.53 68.3636 359.182 69.3182C357.833 70.2576 356.258 70.9091 354.455 71.2727V71.7273C356.455 71.803 358.273 72.3106 359.909 73.25C361.545 74.1742 362.848 75.4545 363.818 77.0909C364.788 78.7121 365.273 80.6212 365.273 82.8182C365.273 85.3636 364.606 87.6288 363.273 89.6136C361.955 91.5985 360.076 93.1591 357.636 94.2955C355.197 95.4318 352.288 96 348.909 96H327ZM339.636 85.9091H345.545C347.667 85.9091 349.258 85.5152 350.318 84.7273C351.379 83.9242 351.909 82.7424 351.909 81.1818C351.909 80.0909 351.659 79.1667 351.159 78.4091C350.659 77.6515 349.947 77.0758 349.023 76.6818C348.114 76.2879 347.015 76.0909 345.727 76.0909H339.636V85.9091ZM339.636 68.2727H344.818C345.924 68.2727 346.902 68.0985 347.75 67.75C348.598 67.4015 349.258 66.9015 349.727 66.25C350.212 65.5833 350.455 64.7727 350.455 63.8182C350.455 62.3788 349.939 61.2803 348.909 60.5227C347.879 59.75 346.576 59.3636 345 59.3636H339.636V68.2727ZM379.659 96.5455C377.432 96.5455 375.462 96.1818 373.75 95.4545C372.053 94.7121 370.72 93.5909 369.75 92.0909C368.78 90.5909 368.295 88.6818 368.295 86.3636C368.295 84.4545 368.621 82.8258 369.273 81.4773C369.924 80.1136 370.833 79 372 78.1364C373.167 77.2727 374.523 76.6136 376.068 76.1591C377.629 75.7045 379.311 75.4091 381.114 75.2727C383.068 75.1212 384.636 74.9394 385.818 74.7273C387.015 74.5 387.879 74.1894 388.409 73.7955C388.939 73.3864 389.205 72.8485 389.205 72.1818V72.0909C389.205 71.1818 388.856 70.4848 388.159 70C387.462 69.5152 386.568 69.2727 385.477 69.2727C384.28 69.2727 383.303 69.5379 382.545 70.0682C381.803 70.5833 381.356 71.3788 381.205 72.4545H369.659C369.811 70.3333 370.485 68.3788 371.682 66.5909C372.894 64.7879 374.659 63.3485 376.977 62.2727C379.295 61.1818 382.189 60.6364 385.659 60.6364C388.159 60.6364 390.402 60.9318 392.386 61.5227C394.371 62.0985 396.061 62.9091 397.455 63.9545C398.848 64.9848 399.909 66.197 400.636 67.5909C401.379 68.9697 401.75 70.4697 401.75 72.0909V96H390.023V91.0909H389.75C389.053 92.3939 388.205 93.447 387.205 94.25C386.22 95.053 385.091 95.6364 383.818 96C382.561 96.3636 381.174 96.5455 379.659 96.5455ZM383.75 88.6364C384.705 88.6364 385.598 88.4394 386.432 88.0455C387.28 87.6515 387.97 87.0833 388.5 86.3409C389.03 85.5985 389.295 84.697 389.295 83.6364V80.7273C388.962 80.8636 388.606 80.9924 388.227 81.1136C387.864 81.2348 387.47 81.3485 387.045 81.4545C386.636 81.5606 386.197 81.6591 385.727 81.75C385.273 81.8409 384.795 81.9242 384.295 82C383.326 82.1515 382.53 82.4015 381.909 82.75C381.303 83.0833 380.848 83.5 380.545 84C380.258 84.4848 380.114 85.0303 380.114 85.6364C380.114 86.6061 380.455 87.3485 381.136 87.8636C381.818 88.3788 382.689 88.6364 383.75 88.6364ZM420.29 76.3636V96H407.744V61.0909H419.653V67.7273H420.017C420.775 65.5152 422.108 63.7803 424.017 62.5227C425.941 61.2652 428.184 60.6364 430.744 60.6364C433.214 60.6364 435.358 61.2045 437.176 62.3409C439.009 63.4621 440.426 65.0076 441.426 66.9773C442.441 68.947 442.941 71.197 442.926 73.7273V96H430.381V76.3636C430.396 74.6364 429.956 73.2803 429.062 72.2955C428.184 71.3106 426.956 70.8182 425.381 70.8182C424.35 70.8182 423.449 71.0455 422.676 71.5C421.919 71.9394 421.335 72.5758 420.926 73.4091C420.517 74.2273 420.305 75.2121 420.29 76.3636ZM460.392 87.7273L460.483 72.8182H462.119L470.574 61.0909H484.665L470.483 79.3636H466.938L460.392 87.7273ZM449.119 96V49.4545H461.665V96H449.119ZM470.665 96L462.665 82.1818L470.847 73.2727L485.028 96H470.665Z" fill="black"/>
<rect x="58" width="19" height="19" fill="#FF6838"/>
<rect x="135" width="19" height="19" fill="#FF3F33"/>
<rect x="58" y="19" width="19" height="19" fill="#FF3D00"/>
<rect x="77" y="19" width="19" height="19" fill="#FF4921"/>
<rect x="77" y="38" width="19" height="19" fill="#FF2E00"/>
<rect x="96" y="57" width="20" height="19" fill="#EB1C00"/>
<rect x="116" y="38" width="19" height="19" fill="#E20E01"/>
<rect x="96" y="38" width="20" height="19" fill="#FF351A"/>
<rect x="116" y="19" width="19" height="19" fill="#FF2F13"/>
<rect x="135" y="19" width="19" height="19" fill="#FF0F00"/>
<rect x="58" y="38" width="19" height="19" fill="#FF7A00"/>
<rect x="19" y="8" width="20" height="21" fill="#FF7A00"/>
<rect y="67" width="19" height="20" fill="#FFAF37"/>
<rect x="19" y="67" width="20" height="20" fill="#FF7A00"/>
<rect x="32" y="38" width="20" height="19" fill="#FF5C00"/>
<rect y="8" width="19" height="21" fill="#FFAF37"/>
<rect x="135" y="38" width="19" height="19" fill="#FF3528"/>
<rect x="58" y="57" width="19" height="19" fill="#FF4D00"/>
<rect x="58" y="76" width="19" height="20" fill="#BD3105"/>
<rect x="135" y="76" width="19" height="20" fill="#8E0404"/>
<rect x="135" y="57" width="19" height="19" fill="#D70D00"/>
</svg>
