<svg width="134" height="22" viewBox="0 0 134 22" fill="none" xmlns="http://www.w3.org/2000/svg">
<path d="M36.8835 16.1747V12.4545H38.9631V19H36.9773V17.7812H36.9091C36.7642 18.1818 36.517 18.5 36.1676 18.7358C35.821 18.9687 35.402 19.0852 34.9105 19.0852C34.4645 19.0852 34.0724 18.983 33.7344 18.7784C33.3963 18.5739 33.1335 18.2884 32.946 17.9219C32.7585 17.5526 32.6634 17.1207 32.6605 16.6264V12.4545H34.7443V16.2173C34.7472 16.5724 34.8409 16.8523 35.0256 17.0568C35.2102 17.2614 35.4616 17.3636 35.7798 17.3636C35.9872 17.3636 36.1733 17.3182 36.3381 17.2273C36.5057 17.1335 36.6378 16.9986 36.7344 16.8224C36.8338 16.6435 36.8835 16.4276 36.8835 16.1747ZM40.2894 19V12.4545H42.3136V13.6477H42.3817C42.5011 13.2159 42.6957 12.8949 42.9656 12.6847C43.2354 12.4716 43.5494 12.3651 43.9073 12.3651C44.0039 12.3651 44.1033 12.3722 44.2056 12.3864C44.3079 12.3977 44.4031 12.4162 44.4911 12.4418V14.2528C44.3917 14.2187 44.261 14.1918 44.0991 14.1719C43.94 14.152 43.7979 14.142 43.6729 14.142C43.4258 14.142 43.2028 14.1974 43.0039 14.3082C42.8079 14.4162 42.6531 14.5682 42.5394 14.7642C42.4286 14.9574 42.3732 15.1847 42.3732 15.446V19H40.2894ZM46.9393 19.1108C46.5217 19.1108 46.1509 19.0412 45.8271 18.902C45.506 18.7599 45.2518 18.5469 45.0643 18.2628C44.8796 17.9759 44.7873 17.6165 44.7873 17.1847C44.7873 16.821 44.8512 16.5142 44.979 16.2642C45.1069 16.0142 45.283 15.8111 45.5075 15.6548C45.7319 15.4986 45.9904 15.3807 46.283 15.3011C46.5756 15.2187 46.8881 15.1634 47.2205 15.1349C47.5927 15.1009 47.8924 15.0653 48.1197 15.0284C48.3469 14.9886 48.5117 14.9332 48.614 14.8622C48.7191 14.7884 48.7717 14.6847 48.7717 14.5511V14.5298C48.7717 14.3111 48.6964 14.142 48.5458 14.0227C48.3952 13.9034 48.1921 13.8438 47.9364 13.8438C47.6609 13.8438 47.4393 13.9034 47.2717 14.0227C47.104 14.142 46.9975 14.3068 46.9521 14.517L45.0302 14.4489C45.087 14.0511 45.2333 13.696 45.4691 13.3835C45.7077 13.0682 46.0344 12.821 46.4492 12.642C46.8668 12.4602 47.3683 12.3693 47.9535 12.3693C48.3711 12.3693 48.756 12.419 49.1083 12.5185C49.4606 12.6151 49.7674 12.7571 50.0288 12.9446C50.2901 13.1293 50.4918 13.3565 50.6339 13.6264C50.7788 13.8963 50.8512 14.2045 50.8512 14.5511V19H48.891V18.0881H48.8398C48.7234 18.3097 48.5742 18.4972 48.3924 18.6506C48.2134 18.804 48.0018 18.919 47.7575 18.9957C47.516 19.0724 47.2433 19.1108 46.9393 19.1108ZM47.5827 17.7472C47.8072 17.7472 48.0089 17.7017 48.1879 17.6108C48.3697 17.5199 48.5146 17.3949 48.6225 17.2358C48.7305 17.0739 48.7844 16.8864 48.7844 16.6733V16.0511C48.7248 16.0824 48.6523 16.1108 48.5671 16.1364C48.4847 16.1619 48.3938 16.1861 48.2944 16.2088C48.195 16.2315 48.0927 16.2514 47.9876 16.2685C47.8825 16.2855 47.7816 16.3011 47.685 16.3153C47.489 16.3466 47.3214 16.3949 47.1822 16.4602C47.0458 16.5256 46.9407 16.6108 46.8668 16.7159C46.7958 16.8182 46.7603 16.9403 46.7603 17.0824C46.7603 17.2983 46.837 17.4631 46.9904 17.5767C47.1467 17.6903 47.3441 17.7472 47.5827 17.7472ZM54.516 19.0938C54.033 19.0938 53.5941 18.9688 53.1992 18.7188C52.8043 18.4688 52.489 18.0938 52.2532 17.5938C52.0174 17.0938 51.8995 16.473 51.8995 15.7315C51.8995 14.9616 52.0217 14.3281 52.266 13.831C52.5103 13.3338 52.8299 12.9659 53.2248 12.7273C53.6225 12.4886 54.0501 12.3693 54.5075 12.3693C54.8512 12.3693 55.1452 12.429 55.3896 12.5483C55.6339 12.6648 55.8356 12.8153 55.9947 13C56.1538 13.1847 56.2745 13.3764 56.3569 13.5753H56.3995V10.2727H58.4833V19H56.4208V17.9389H56.3569C56.2688 18.1406 56.1438 18.3295 55.9819 18.5057C55.82 18.6818 55.6168 18.8239 55.3725 18.9318C55.131 19.0398 54.8455 19.0938 54.516 19.0938ZM55.2404 17.4702C55.4933 17.4702 55.7092 17.3991 55.8881 17.2571C56.0671 17.1122 56.2049 16.9091 56.3015 16.6477C56.3981 16.3864 56.4464 16.0795 56.4464 15.7273C56.4464 15.3693 56.3981 15.0611 56.3015 14.8026C56.2077 14.544 56.07 14.3452 55.8881 14.206C55.7092 14.0668 55.4933 13.9972 55.2404 13.9972C54.9819 13.9972 54.7631 14.0682 54.5842 14.2102C54.4052 14.3523 54.2688 14.5526 54.1751 14.8111C54.0842 15.0696 54.0387 15.375 54.0387 15.7273C54.0387 16.0795 54.0856 16.3864 54.1793 16.6477C54.2731 16.9091 54.408 17.1122 54.5842 17.2571C54.7631 17.3991 54.9819 17.4702 55.2404 17.4702Z" fill="white"/>
<rect x="11.2987" width="3.7013" height="3.7013" fill="#FF6838"/>
<rect x="26.2987" width="3.7013" height="3.7013" fill="#FF3F33"/>
<rect x="11.2987" y="3.70129" width="3.7013" height="3.7013" fill="#FF3D00"/>
<rect x="15" y="3.70129" width="3.7013" height="3.7013" fill="#FF4921"/>
<rect x="15" y="7.40259" width="3.7013" height="3.7013" fill="#FF2E00"/>
<rect x="18.7013" y="11.1039" width="3.8961" height="3.7013" fill="#EB1C00"/>
<rect x="22.5974" y="7.40259" width="3.7013" height="3.7013" fill="#E20E01"/>
<rect x="18.7013" y="7.40259" width="3.8961" height="3.7013" fill="#FF351A"/>
<rect x="22.5974" y="3.70129" width="3.7013" height="3.7013" fill="#FF2F13"/>
<rect x="26.2987" y="3.70129" width="3.7013" height="3.7013" fill="#FF0F00"/>
<rect x="11.2987" y="7.40259" width="3.7013" height="3.7013" fill="#FF7A00"/>
<rect x="3.70129" y="1.55844" width="3.8961" height="4.09091" fill="#FF7A00"/>
<rect y="13.0519" width="3.7013" height="3.8961" fill="#FFAF37"/>
<rect x="3.70129" y="13.0519" width="3.8961" height="3.8961" fill="#FF7A00"/>
<rect x="6.23376" y="7.40259" width="3.8961" height="3.7013" fill="#FF5C00"/>
<rect y="1.55844" width="3.7013" height="4.09091" fill="#FFAF37"/>
<rect x="26.2987" y="7.40259" width="3.7013" height="3.7013" fill="#FF3528"/>
<rect x="11.2987" y="11.1039" width="3.7013" height="3.7013" fill="#FF4D00"/>
<rect x="11.2987" y="14.8052" width="3.7013" height="3.8961" fill="#BD3105"/>
<rect x="26.2987" y="14.8052" width="3.7013" height="3.8961" fill="#8E0404"/>
<rect x="26.2987" y="11.1039" width="3.7013" height="3.7013" fill="#D70D00"/>
<path d="M62.5625 19V10.2727H66.3466C67.0114 10.2727 67.5696 10.3622 68.0213 10.5412C68.4759 10.7202 68.8182 10.973 69.0483 11.2997C69.2813 11.6264 69.3977 12.0114 69.3977 12.4545C69.3977 12.7756 69.3267 13.0682 69.1847 13.3324C69.0455 13.5966 68.8494 13.8182 68.5966 13.9972C68.3438 14.1733 68.0483 14.2955 67.7102 14.3636V14.4489C68.0852 14.4631 68.4261 14.5582 68.733 14.7344C69.0398 14.9077 69.2841 15.1477 69.4659 15.4545C69.6477 15.7585 69.7386 16.1165 69.7386 16.5284C69.7386 17.0057 69.6136 17.4304 69.3636 17.8026C69.1165 18.1747 68.7642 18.4673 68.3068 18.6804C67.8494 18.8935 67.304 19 66.6705 19H62.5625ZM64.9318 17.108H66.0398C66.4375 17.108 66.7358 17.0341 66.9347 16.8864C67.1335 16.7358 67.233 16.5142 67.233 16.2216C67.233 16.017 67.1861 15.8437 67.0923 15.7017C66.9986 15.5597 66.8651 15.4517 66.6918 15.3778C66.5213 15.304 66.3153 15.267 66.0739 15.267H64.9318V17.108ZM64.9318 13.8011H65.9034C66.1108 13.8011 66.294 13.7685 66.4531 13.7031C66.6122 13.6378 66.7358 13.544 66.8239 13.4219C66.9148 13.2969 66.9602 13.1449 66.9602 12.9659C66.9602 12.696 66.8636 12.4901 66.6705 12.348C66.4773 12.2031 66.233 12.1307 65.9375 12.1307H64.9318V13.8011ZM72.4361 19.1023C72.0185 19.1023 71.6491 19.0341 71.3281 18.8977C71.0099 18.7585 70.7599 18.5483 70.5781 18.267C70.3963 17.9858 70.3054 17.6278 70.3054 17.1932C70.3054 16.8352 70.3665 16.5298 70.4886 16.277C70.6108 16.0213 70.7812 15.8125 71 15.6506C71.2188 15.4886 71.473 15.3651 71.7628 15.2798C72.0554 15.1946 72.3707 15.1392 72.7088 15.1136C73.0753 15.0852 73.3693 15.0511 73.5909 15.0114C73.8153 14.9687 73.9773 14.9105 74.0767 14.8366C74.1761 14.7599 74.2259 14.6591 74.2259 14.5341V14.517C74.2259 14.3466 74.1605 14.2159 74.0298 14.125C73.8991 14.0341 73.7315 13.9886 73.527 13.9886C73.3026 13.9886 73.1193 14.0384 72.9773 14.1378C72.8381 14.2344 72.7543 14.3835 72.7259 14.5852H70.5611C70.5895 14.1875 70.7159 13.821 70.9403 13.4858C71.1676 13.1477 71.4986 12.8778 71.9332 12.6761C72.3679 12.4716 72.9105 12.3693 73.5611 12.3693C74.0298 12.3693 74.4503 12.4247 74.8224 12.5355C75.1946 12.6435 75.5114 12.7955 75.7727 12.9915C76.0341 13.1847 76.233 13.4119 76.3693 13.6733C76.5085 13.9318 76.5781 14.2131 76.5781 14.517V19H74.3793V18.0795H74.3281C74.1974 18.3239 74.0384 18.5213 73.8509 18.6719C73.6662 18.8224 73.4545 18.9318 73.2159 19C72.9801 19.0682 72.7202 19.1023 72.4361 19.1023ZM73.2031 17.6193C73.3821 17.6193 73.5497 17.5824 73.706 17.5085C73.8651 17.4347 73.9943 17.3281 74.0938 17.1889C74.1932 17.0497 74.2429 16.8807 74.2429 16.6818V16.1364C74.1804 16.1619 74.1136 16.1861 74.0426 16.2088C73.9744 16.2315 73.9006 16.2528 73.821 16.2727C73.7443 16.2926 73.6619 16.3111 73.5739 16.3281C73.4886 16.3452 73.3991 16.3608 73.3054 16.375C73.1236 16.4034 72.9744 16.4503 72.858 16.5156C72.7443 16.5781 72.6591 16.6562 72.6023 16.75C72.5483 16.8409 72.5213 16.9432 72.5213 17.0568C72.5213 17.2386 72.5852 17.3778 72.7131 17.4744C72.8409 17.571 73.0043 17.6193 73.2031 17.6193ZM80.0543 15.3182V19H77.7021V12.4545H79.935V13.6989H80.0032C80.1452 13.2841 80.3952 12.9588 80.7532 12.723C81.114 12.4872 81.5344 12.3693 82.0146 12.3693C82.4776 12.3693 82.8796 12.4759 83.2205 12.6889C83.5643 12.8991 83.8299 13.1889 84.0174 13.5582C84.2077 13.9276 84.3015 14.3494 84.2987 14.8239V19H81.9464V15.3182C81.9492 14.9943 81.8668 14.7401 81.6992 14.5554C81.5344 14.3707 81.3043 14.2784 81.0089 14.2784C80.8157 14.2784 80.6467 14.321 80.5018 14.4062C80.3597 14.4886 80.2504 14.608 80.1737 14.7642C80.0969 14.9176 80.0572 15.1023 80.0543 15.3182ZM87.5735 17.4489L87.5906 14.6534H87.8974L89.4826 12.4545H92.1246L89.4656 15.8807H88.8008L87.5735 17.4489ZM85.4599 19V10.2727H87.8121V19H85.4599ZM89.4996 19L87.9996 16.4091L89.5337 14.7386L92.1928 19H89.4996Z" fill="white"/>
</svg>
