<svg width="44" height="44" viewBox="0 0 44 44" fill="none" xmlns="http://www.w3.org/2000/svg">
<circle cx="22" cy="22" r="22" fill="#F00000"/>
<circle cx="22" cy="22" r="22" fill="url(#paint0_linear_239_150)" fill-opacity="0.5"/>
<path d="M16.791 26.1193C16.1547 26.1193 15.5893 26.0043 15.095 25.7741C14.6007 25.544 14.21 25.2273 13.9231 24.8239C13.639 24.4205 13.4913 23.9574 13.4799 23.4347H15.5254C15.5424 23.7557 15.6731 24.0142 15.9174 24.2102C16.1618 24.4034 16.4529 24.5 16.791 24.5C17.0552 24.5 17.2896 24.4418 17.4941 24.3253C17.6987 24.2088 17.8592 24.0455 17.9757 23.8352C18.0922 23.6222 18.149 23.3778 18.1461 23.1023C18.149 22.821 18.0907 22.5753 17.9714 22.3651C17.8549 22.1548 17.693 21.9915 17.4856 21.875C17.2811 21.7557 17.0453 21.696 16.7782 21.696C16.5254 21.6932 16.2853 21.7486 16.0581 21.8622C15.8336 21.9759 15.6632 22.1307 15.5467 22.3267L13.6845 21.9773L14.0637 17.2727H19.6632V18.973H15.7981L15.5978 21.0312H15.649C15.7939 20.7898 16.0268 20.5909 16.3478 20.4347C16.6717 20.2756 17.0396 20.196 17.4515 20.196C17.9743 20.196 18.4402 20.3182 18.8493 20.5625C19.2612 20.804 19.585 21.1392 19.8208 21.5682C20.0595 21.9972 20.1788 22.4886 20.1788 23.0426C20.1788 23.642 20.0368 24.1733 19.7527 24.6364C19.4714 25.0994 19.0765 25.4631 18.568 25.7273C18.0623 25.9886 17.47 26.1193 16.791 26.1193ZM26.2246 24.3636V23.9034C26.2246 23.5455 26.3013 23.2145 26.4547 22.9105C26.611 22.6065 26.8368 22.3622 27.1323 22.1776C27.4277 21.9929 27.7885 21.9006 28.2147 21.9006C28.6493 21.9006 29.0144 21.9929 29.3098 22.1776C29.6081 22.3594 29.8326 22.6023 29.9831 22.9062C30.1365 23.2074 30.2132 23.5398 30.2132 23.9034V24.3636C30.2132 24.7216 30.1365 25.0526 29.9831 25.3565C29.8297 25.6605 29.6039 25.9048 29.3056 26.0895C29.0073 26.2741 28.6436 26.3665 28.2147 26.3665C27.7828 26.3665 27.4192 26.2741 27.1238 26.0895C26.8283 25.9048 26.6039 25.6605 26.4505 25.3565C26.2999 25.0526 26.2246 24.7216 26.2246 24.3636ZM27.584 23.9034V24.3636C27.584 24.5455 27.628 24.7202 27.7161 24.8878C27.807 25.0554 27.9732 25.1392 28.2147 25.1392C28.4618 25.1392 28.628 25.0582 28.7132 24.8963C28.7985 24.7315 28.8411 24.554 28.8411 24.3636V23.9034C28.8411 23.7131 28.7999 23.5341 28.7175 23.3665C28.638 23.196 28.4703 23.1108 28.2147 23.1108C27.976 23.1108 27.8113 23.196 27.7203 23.3665C27.6294 23.5341 27.584 23.7131 27.584 23.9034ZM21.699 19.3693V18.9091C21.699 18.5455 21.7772 18.2131 21.9334 17.9119C22.0925 17.608 22.3198 17.3651 22.6152 17.1832C22.9107 16.9986 23.2686 16.9062 23.6891 16.9062C24.1238 16.9062 24.4888 16.9986 24.7843 17.1832C25.0826 17.3651 25.3084 17.608 25.4618 17.9119C25.6152 18.2131 25.6919 18.5455 25.6919 18.9091V19.3693C25.6919 19.733 25.6138 20.0653 25.4576 20.3665C25.3042 20.6676 25.0783 20.9077 24.78 21.0866C24.4817 21.2656 24.1181 21.3551 23.6891 21.3551C23.2601 21.3551 22.8965 21.2642 22.5982 21.0824C22.3027 20.9006 22.0783 20.6591 21.9249 20.358C21.7743 20.0568 21.699 19.7273 21.699 19.3693ZM23.0712 18.9091V19.3693C23.0712 19.5597 23.1152 19.7372 23.2033 19.902C23.2942 20.0639 23.4561 20.1449 23.6891 20.1449C23.9391 20.1449 24.1053 20.0639 24.1877 19.902C24.2729 19.7372 24.3155 19.5597 24.3155 19.3693V18.9091C24.3155 18.7187 24.2757 18.5398 24.1962 18.3722C24.1167 18.2017 23.9476 18.1165 23.6891 18.1165C23.4505 18.1165 23.2871 18.2031 23.199 18.3764C23.1138 18.5497 23.0712 18.7273 23.0712 18.9091ZM22.3425 26L28.3425 17.2727H29.5059L23.5059 26H22.3425Z" fill="white"/>
<defs>
<linearGradient id="paint0_linear_239_150" x1="22" y1="0" x2="22" y2="44" gradientUnits="userSpaceOnUse">
<stop offset="0.0591628" stop-color="#FF3D00"/>
<stop offset="1" stop-color="#FF0000"/>
</linearGradient>
</defs>
</svg>
