<svg width="44" height="44" viewBox="0 0 44 44" fill="none" xmlns="http://www.w3.org/2000/svg">
<circle cx="22" cy="22" r="22" fill="#F00000"/>
<circle cx="22" cy="22" r="22" fill="url(#paint0_linear_239_138)" fill-opacity="0.5"/>
<path d="M9.31339 26V24.483L12.4966 21.696C12.7353 21.4801 12.9384 21.2827 13.106 21.1037C13.2736 20.9219 13.4015 20.7401 13.4895 20.5582C13.5776 20.3736 13.6216 20.1733 13.6216 19.9574C13.6216 19.7159 13.5691 19.5099 13.464 19.3395C13.3588 19.1662 13.214 19.0327 13.0293 18.9389C12.8446 18.8452 12.633 18.7983 12.3944 18.7983C12.1529 18.7983 11.9412 18.848 11.7594 18.9474C11.5776 19.044 11.4355 19.1847 11.3333 19.3693C11.2338 19.554 11.1841 19.7784 11.1841 20.0426H9.18555C9.18555 19.4489 9.31907 18.9361 9.58612 18.5043C9.85316 18.0724 10.2282 17.7401 10.7111 17.5071C11.1969 17.2713 11.7608 17.1534 12.4029 17.1534C13.0648 17.1534 13.6401 17.2642 14.1287 17.4858C14.6174 17.7074 14.9952 18.017 15.2623 18.4148C15.5321 18.8097 15.6671 19.2685 15.6671 19.7912C15.6671 20.1236 15.6003 20.4531 15.4668 20.7798C15.3333 21.1065 15.0932 21.4673 14.7466 21.8622C14.4029 22.2571 13.9142 22.7301 13.2807 23.2812L12.2367 24.2443V24.2997H15.7736V26H9.31339ZM20.5751 26.2131C19.8137 26.2131 19.1575 26.0327 18.6064 25.6719C18.0552 25.3082 17.6305 24.7869 17.3322 24.108C17.0339 23.4261 16.8862 22.6065 16.889 21.6491C16.8919 20.6918 17.041 19.8793 17.3365 19.2116C17.6348 18.5412 18.0581 18.0312 18.6064 17.6818C19.1575 17.3295 19.8137 17.1534 20.5751 17.1534C21.3365 17.1534 21.9927 17.3295 22.5439 17.6818C23.0978 18.0312 23.524 18.5412 23.8223 19.2116C24.1206 19.8821 24.2683 20.6946 24.2654 21.6491C24.2654 22.6094 24.1163 23.4304 23.818 24.1122C23.5197 24.794 23.095 25.3153 22.5439 25.6761C21.9956 26.0341 21.3393 26.2131 20.5751 26.2131ZM20.5751 24.4872C21.0297 24.4872 21.3975 24.2557 21.6788 23.7926C21.96 23.3267 22.0993 22.6122 22.0964 21.6491C22.0964 21.0185 22.0325 20.4986 21.9047 20.0895C21.7768 19.6776 21.5993 19.3707 21.372 19.169C21.1447 18.9673 20.8791 18.8665 20.5751 18.8665C20.1234 18.8665 19.7583 19.0952 19.4799 19.5526C19.2015 20.0071 19.0609 20.706 19.0581 21.6491C19.0552 22.2884 19.1163 22.8182 19.2413 23.2386C19.3691 23.6591 19.5481 23.973 19.7782 24.1804C20.0083 24.3849 20.274 24.4872 20.5751 24.4872ZM30.3613 24.3636V23.9034C30.3613 23.5455 30.438 23.2145 30.5914 22.9105C30.7477 22.6065 30.9735 22.3622 31.269 22.1776C31.5645 21.9929 31.9252 21.9006 32.3514 21.9006C32.786 21.9006 33.1511 21.9929 33.4466 22.1776C33.7449 22.3594 33.9693 22.6023 34.1199 22.9062C34.2733 23.2074 34.35 23.5398 34.35 23.9034V24.3636C34.35 24.7216 34.2733 25.0526 34.1199 25.3565C33.9664 25.6605 33.7406 25.9048 33.4423 26.0895C33.144 26.2741 32.7804 26.3665 32.3514 26.3665C31.9196 26.3665 31.5559 26.2741 31.2605 26.0895C30.965 25.9048 30.7406 25.6605 30.5872 25.3565C30.4366 25.0526 30.3613 24.7216 30.3613 24.3636ZM31.7207 23.9034V24.3636C31.7207 24.5455 31.7647 24.7202 31.8528 24.8878C31.9437 25.0554 32.1099 25.1392 32.3514 25.1392C32.5985 25.1392 32.7647 25.0582 32.85 24.8963C32.9352 24.7315 32.9778 24.554 32.9778 24.3636V23.9034C32.9778 23.7131 32.9366 23.5341 32.8542 23.3665C32.7747 23.196 32.6071 23.1108 32.3514 23.1108C32.1127 23.1108 31.948 23.196 31.8571 23.3665C31.7662 23.5341 31.7207 23.7131 31.7207 23.9034ZM25.8358 19.3693V18.9091C25.8358 18.5455 25.9139 18.2131 26.0701 17.9119C26.2292 17.608 26.4565 17.3651 26.752 17.1832C27.0474 16.9986 27.4054 16.9062 27.8258 16.9062C28.2605 16.9062 28.6255 16.9986 28.921 17.1832C29.2193 17.3651 29.4451 17.608 29.5985 17.9119C29.752 18.2131 29.8287 18.5455 29.8287 18.9091V19.3693C29.8287 19.733 29.7505 20.0653 29.5943 20.3665C29.4409 20.6676 29.215 20.9077 28.9167 21.0866C28.6184 21.2656 28.2548 21.3551 27.8258 21.3551C27.3968 21.3551 27.0332 21.2642 26.7349 21.0824C26.4395 20.9006 26.215 20.6591 26.0616 20.358C25.911 20.0568 25.8358 19.7273 25.8358 19.3693ZM27.2079 18.9091V19.3693C27.2079 19.5597 27.252 19.7372 27.34 19.902C27.4309 20.0639 27.5929 20.1449 27.8258 20.1449C28.0758 20.1449 28.242 20.0639 28.3244 19.902C28.4096 19.7372 28.4522 19.5597 28.4522 19.3693V18.9091C28.4522 18.7187 28.4125 18.5398 28.3329 18.3722C28.2534 18.2017 28.0843 18.1165 27.8258 18.1165C27.5872 18.1165 27.4238 18.2031 27.3358 18.3764C27.2505 18.5497 27.2079 18.7273 27.2079 18.9091ZM26.4792 26L32.4792 17.2727H33.6426L27.6426 26H26.4792Z" fill="white"/>
<defs>
<linearGradient id="paint0_linear_239_138" x1="22" y1="0" x2="22" y2="44" gradientUnits="userSpaceOnUse">
<stop offset="0.0591628" stop-color="#FF3D00"/>
<stop offset="1" stop-color="#FF0000"/>
</linearGradient>
</defs>
</svg>
