<svg width="44" height="44" viewBox="0 0 44 44" fill="none" xmlns="http://www.w3.org/2000/svg">
<circle cx="22" cy="22" r="22" fill="#F00000"/>
<circle cx="22" cy="22" r="22" fill="url(#paint0_linear_239_153)" fill-opacity="0.5"/>
<path d="M14.5032 17.2727V26H12.3981V19.2415H12.3469L10.3952 20.4347V18.6108L12.5472 17.2727H14.5032ZM19.7734 26.1193C19.1371 26.1193 18.5717 26.0043 18.0774 25.7741C17.5831 25.544 17.1925 25.2273 16.9055 24.8239C16.6214 24.4205 16.4737 23.9574 16.4624 23.4347H18.5078C18.5249 23.7557 18.6555 24.0142 18.8999 24.2102C19.1442 24.4034 19.4354 24.5 19.7734 24.5C20.0376 24.5 20.272 24.4418 20.4766 24.3253C20.6811 24.2088 20.8416 24.0455 20.9581 23.8352C21.0746 23.6222 21.1314 23.3778 21.1286 23.1023C21.1314 22.821 21.0732 22.5753 20.9538 22.3651C20.8374 22.1548 20.6754 21.9915 20.468 21.875C20.2635 21.7557 20.0277 21.696 19.7607 21.696C19.5078 21.6932 19.2678 21.7486 19.0405 21.8622C18.8161 21.9759 18.6456 22.1307 18.5291 22.3267L16.6669 21.9773L17.0462 17.2727H22.6456V18.973H18.7805L18.5803 21.0312H18.6314C18.7763 20.7898 19.0092 20.5909 19.3303 20.4347C19.6541 20.2756 20.022 20.196 20.4339 20.196C20.9567 20.196 21.4226 20.3182 21.8317 20.5625C22.2436 20.804 22.5675 21.1392 22.8033 21.5682C23.0419 21.9972 23.1612 22.4886 23.1612 23.0426C23.1612 23.642 23.0192 24.1733 22.7351 24.6364C22.4538 25.0994 22.0589 25.4631 21.5504 25.7273C21.0447 25.9886 20.4524 26.1193 19.7734 26.1193ZM29.207 24.3636V23.9034C29.207 23.5455 29.2837 23.2145 29.4371 22.9105C29.5934 22.6065 29.8192 22.3622 30.1147 22.1776C30.4102 21.9929 30.771 21.9006 31.1971 21.9006C31.6317 21.9006 31.9968 21.9929 32.2923 22.1776C32.5906 22.3594 32.815 22.6023 32.9656 22.9062C33.119 23.2074 33.1957 23.5398 33.1957 23.9034V24.3636C33.1957 24.7216 33.119 25.0526 32.9656 25.3565C32.8121 25.6605 32.5863 25.9048 32.288 26.0895C31.9897 26.2741 31.6261 26.3665 31.1971 26.3665C30.7653 26.3665 30.4016 26.2741 30.1062 26.0895C29.8107 25.9048 29.5863 25.6605 29.4329 25.3565C29.2823 25.0526 29.207 24.7216 29.207 24.3636ZM30.5664 23.9034V24.3636C30.5664 24.5455 30.6104 24.7202 30.6985 24.8878C30.7894 25.0554 30.9556 25.1392 31.1971 25.1392C31.4442 25.1392 31.6104 25.0582 31.6957 24.8963C31.7809 24.7315 31.8235 24.554 31.8235 24.3636V23.9034C31.8235 23.7131 31.7823 23.5341 31.6999 23.3665C31.6204 23.196 31.4528 23.1108 31.1971 23.1108C30.9585 23.1108 30.7937 23.196 30.7028 23.3665C30.6119 23.5341 30.5664 23.7131 30.5664 23.9034ZM24.6815 19.3693V18.9091C24.6815 18.5455 24.7596 18.2131 24.9158 17.9119C25.0749 17.608 25.3022 17.3651 25.5977 17.1832C25.8931 16.9986 26.2511 16.9062 26.6715 16.9062C27.1062 16.9062 27.4712 16.9986 27.7667 17.1832C28.065 17.3651 28.2908 17.608 28.4442 17.9119C28.5977 18.2131 28.6744 18.5455 28.6744 18.9091V19.3693C28.6744 19.733 28.5962 20.0653 28.44 20.3665C28.2866 20.6676 28.0607 20.9077 27.7624 21.0866C27.4641 21.2656 27.1005 21.3551 26.6715 21.3551C26.2425 21.3551 25.8789 21.2642 25.5806 21.0824C25.2852 20.9006 25.0607 20.6591 24.9073 20.358C24.7567 20.0568 24.6815 19.7273 24.6815 19.3693ZM26.0536 18.9091V19.3693C26.0536 19.5597 26.0977 19.7372 26.1857 19.902C26.2766 20.0639 26.4386 20.1449 26.6715 20.1449C26.9215 20.1449 27.0877 20.0639 27.1701 19.902C27.2553 19.7372 27.2979 19.5597 27.2979 19.3693V18.9091C27.2979 18.7187 27.2582 18.5398 27.1786 18.3722C27.0991 18.2017 26.93 18.1165 26.6715 18.1165C26.4329 18.1165 26.2695 18.2031 26.1815 18.3764C26.0962 18.5497 26.0536 18.7273 26.0536 18.9091ZM25.3249 26L31.3249 17.2727H32.4883L26.4883 26H25.3249Z" fill="white"/>
<defs>
<linearGradient id="paint0_linear_239_153" x1="22" y1="0" x2="22" y2="44" gradientUnits="userSpaceOnUse">
<stop offset="0.0591628" stop-color="#FF3D00"/>
<stop offset="1" stop-color="#FF0000"/>
</linearGradient>
</defs>
</svg>
