<svg width="44" height="44" viewBox="0 0 44 44" fill="none" xmlns="http://www.w3.org/2000/svg">
<circle cx="22" cy="22" r="22" fill="#F00000"/>
<circle cx="22" cy="22" r="22" fill="url(#paint0_linear_239_159)" fill-opacity="0.5"/>
<path d="M13.6724 17V25H11.7427V18.8047H11.6958L9.90674 19.8984V18.2266L11.8794 17H13.6724ZM16.1226 25.1133C15.8413 25.1133 15.6004 25.0143 15.3999 24.8164C15.202 24.6185 15.1043 24.3789 15.1069 24.0977C15.1043 23.8216 15.202 23.5859 15.3999 23.3906C15.6004 23.1927 15.8413 23.0938 16.1226 23.0938C16.3882 23.0938 16.6226 23.1927 16.8257 23.3906C17.0314 23.5859 17.1356 23.8216 17.1382 24.0977C17.1356 24.2852 17.0861 24.4557 16.9897 24.6094C16.896 24.763 16.7723 24.8854 16.6187 24.9766C16.4676 25.0677 16.3022 25.1133 16.1226 25.1133ZM21.4146 25.1094C20.8312 25.1094 20.313 25.0039 19.8599 24.793C19.4067 24.582 19.0487 24.2917 18.7856 23.9219C18.5252 23.5521 18.3898 23.1276 18.3794 22.6484H20.2544C20.27 22.9427 20.3898 23.1797 20.6138 23.3594C20.8377 23.5365 21.1047 23.625 21.4146 23.625C21.6567 23.625 21.8716 23.5716 22.0591 23.4648C22.2466 23.3581 22.3937 23.2083 22.5005 23.0156C22.6073 22.8203 22.6593 22.5964 22.6567 22.3437C22.6593 22.0859 22.606 21.8607 22.4966 21.668C22.3898 21.4753 22.2414 21.3255 22.0513 21.2188C21.8638 21.1094 21.6476 21.0547 21.4028 21.0547C21.1711 21.0521 20.951 21.1029 20.7427 21.207C20.5369 21.3112 20.3807 21.4531 20.2739 21.6328L18.5669 21.3125L18.9146 17H24.0474V18.5586H20.5044L20.3208 20.4453H20.3677C20.5005 20.224 20.714 20.0417 21.0083 19.8984C21.3052 19.7526 21.6424 19.6797 22.02 19.6797C22.4992 19.6797 22.9263 19.7917 23.3013 20.0156C23.6789 20.237 23.9757 20.5443 24.1919 20.9375C24.4106 21.3307 24.52 21.7812 24.52 22.2891C24.52 22.8385 24.3898 23.3255 24.1294 23.75C23.8716 24.1745 23.5096 24.5078 23.0435 24.75C22.5799 24.9896 22.0369 25.1094 21.4146 25.1094ZM30.062 23.5V23.0781C30.062 22.75 30.1323 22.4466 30.2729 22.168C30.4162 21.8893 30.6232 21.6654 30.894 21.4961C31.1649 21.3268 31.4956 21.2422 31.8862 21.2422C32.2847 21.2422 32.6193 21.3268 32.8901 21.4961C33.1636 21.6628 33.3693 21.8854 33.5073 22.1641C33.6479 22.4401 33.7183 22.7448 33.7183 23.0781V23.5C33.7183 23.8281 33.6479 24.1315 33.5073 24.4102C33.3667 24.6888 33.1597 24.9128 32.8862 25.082C32.6128 25.2513 32.2795 25.3359 31.8862 25.3359C31.4904 25.3359 31.1571 25.2513 30.8862 25.082C30.6154 24.9128 30.4097 24.6888 30.269 24.4102C30.131 24.1315 30.062 23.8281 30.062 23.5ZM31.3081 23.0781V23.5C31.3081 23.6667 31.3485 23.8268 31.4292 23.9805C31.5125 24.1341 31.6649 24.2109 31.8862 24.2109C32.1128 24.2109 32.2651 24.1367 32.3433 23.9883C32.4214 23.8372 32.4604 23.6745 32.4604 23.5V23.0781C32.4604 22.9036 32.4227 22.7396 32.3472 22.5859C32.2743 22.4297 32.1206 22.3516 31.8862 22.3516C31.6675 22.3516 31.5164 22.4297 31.4331 22.5859C31.3498 22.7396 31.3081 22.9036 31.3081 23.0781ZM25.9136 18.9219V18.5C25.9136 18.1667 25.9852 17.862 26.1284 17.5859C26.2743 17.3073 26.4826 17.0846 26.7534 16.918C27.0243 16.7487 27.3524 16.6641 27.7378 16.6641C28.1362 16.6641 28.4709 16.7487 28.7417 16.918C29.0151 17.0846 29.2222 17.3073 29.3628 17.5859C29.5034 17.862 29.5737 18.1667 29.5737 18.5V18.9219C29.5737 19.2552 29.5021 19.5599 29.3589 19.8359C29.2183 20.112 29.0112 20.332 28.7378 20.4961C28.4644 20.6602 28.131 20.7422 27.7378 20.7422C27.3446 20.7422 27.0112 20.6589 26.7378 20.4922C26.467 20.3255 26.2612 20.1042 26.1206 19.8281C25.9826 19.5521 25.9136 19.25 25.9136 18.9219ZM27.1714 18.5V18.9219C27.1714 19.0964 27.2118 19.2591 27.2925 19.4102C27.3758 19.5586 27.5243 19.6328 27.7378 19.6328C27.967 19.6328 28.1193 19.5586 28.1948 19.4102C28.2729 19.2591 28.312 19.0964 28.312 18.9219V18.5C28.312 18.3255 28.2756 18.1615 28.2026 18.0078C28.1297 17.8516 27.9748 17.7734 27.7378 17.7734C27.519 17.7734 27.3693 17.8529 27.2886 18.0117C27.2104 18.1706 27.1714 18.3333 27.1714 18.5ZM26.5034 25L32.0034 17H33.0698L27.5698 25H26.5034Z" fill="white"/>
<defs>
<linearGradient id="paint0_linear_239_159" x1="22" y1="0" x2="22" y2="44" gradientUnits="userSpaceOnUse">
<stop offset="0.0591628" stop-color="#FF3D00"/>
<stop offset="1" stop-color="#FF0000"/>
</linearGradient>
</defs>
</svg>
