<svg width="40" height="40" viewBox="0 0 40 40" fill="none" xmlns="http://www.w3.org/2000/svg">
<circle cx="20" cy="20" r="20" fill="#F00000"/>
<circle cx="20" cy="20" r="20" fill="url(#paint0_linear_369_233)" fill-opacity="0.5"/>
<path d="M15.238 10.4762C15.238 10.2236 15.3383 9.98136 15.5169 9.80275C15.6955 9.62414 15.9378 9.5238 16.1904 9.5238H23.8094C24.062 9.5238 24.3042 9.62414 24.4829 9.80275C24.6615 9.98136 24.7618 10.2236 24.7618 10.4762C24.7618 10.7288 24.6615 10.971 24.4829 11.1496C24.3042 11.3282 24.062 11.4286 23.8094 11.4286H16.1904C15.9378 11.4286 15.6955 11.3282 15.5169 11.1496C15.3383 10.971 15.238 10.7288 15.238 10.4762ZM11.4285 27.619V16.1905C11.4285 15.4327 11.7295 14.706 12.2653 14.1702C12.8011 13.6343 13.5278 13.3333 14.2856 13.3333H25.7142C26.4719 13.3333 27.1987 13.6343 27.7345 14.1702C28.2703 14.706 28.5713 15.4327 28.5713 16.1905V27.619C28.5713 28.3768 28.2703 29.1035 27.7345 29.6393C27.1987 30.1752 26.4719 30.4762 25.7142 30.4762H14.2856C13.5278 30.4762 12.8011 30.1752 12.2653 29.6393C11.7295 29.1035 11.4285 28.3768 11.4285 27.619ZM26.6666 26.6667H13.3332V27.619C13.3332 27.8716 13.4336 28.1139 13.6122 28.2925C13.7908 28.4711 14.033 28.5714 14.2856 28.5714H25.7142C25.9668 28.5714 26.209 28.4711 26.3876 28.2925C26.5662 28.1139 26.6666 27.8716 26.6666 27.619V26.6667ZM13.3332 16.1905V24.7619H26.6666V16.1905C26.6666 15.9379 26.5662 15.6956 26.3876 15.517C26.209 15.3384 25.9668 15.2381 25.7142 15.2381H14.2856C14.033 15.2381 13.7908 15.3384 13.6122 15.517C13.4336 15.6956 13.3332 15.9379 13.3332 16.1905ZM19.0475 22.8571H20.9523V20.9524H22.857V19.0476H20.9523V17.1429H19.0475V19.0476H17.1428V20.9524H19.0475V22.8571Z" fill="white"/>
<defs>
<linearGradient id="paint0_linear_369_233" x1="20" y1="0" x2="20" y2="40" gradientUnits="userSpaceOnUse">
<stop offset="0.0591628" stop-color="#FF3D00"/>
<stop offset="1" stop-color="#FF0000"/>
</linearGradient>
</defs>
</svg>
