<svg width="40" height="40" viewBox="0 0 40 40" fill="none" xmlns="http://www.w3.org/2000/svg">
<circle cx="20" cy="20" r="20" fill="#F00000"/>
<circle cx="20" cy="20" r="20" fill="url(#paint0_linear_369_268)" fill-opacity="0.5"/>
<path d="M26.456 18.5881H13.5442C10.2721 18.5881 7.61914 21.2491 7.61914 24.5322C7.61914 27.8148 10.2721 30.4762 13.5442 30.4762C15.607 30.4762 17.4229 29.4179 18.4838 27.8148H21.5164C22.5773 29.4179 24.3935 30.4762 26.456 30.4762C29.7285 30.4762 32.381 27.8148 32.381 24.5322C32.381 21.2491 29.7285 18.5881 26.456 18.5881ZM26.456 28.9434C24.9792 28.9434 23.6083 28.2047 22.7892 26.9668L22.3359 26.282H21.5164H18.4838H17.6643L17.211 26.9668C16.3919 28.2047 15.0211 28.9434 13.5442 28.9434C11.1196 28.9434 9.14703 26.9646 9.14703 24.5322C9.14703 22.0998 11.1196 20.1209 13.5442 20.1209H26.456C28.8806 20.1209 30.8532 22.0997 30.8532 24.5322C30.8532 26.9645 28.8806 28.9434 26.456 28.9434Z" fill="white"/>
<path d="M20.6252 12.9599C20.6252 12.8405 20.6487 12.7309 20.6912 12.6298C20.7546 12.4786 20.8628 12.3484 20.9975 12.2567C21.1329 12.165 21.2917 12.1126 21.4693 12.1126C21.5872 12.1126 21.6969 12.1366 21.7976 12.1792C21.9483 12.2428 22.0781 12.3507 22.1695 12.4865C22.2605 12.6224 22.3131 12.7817 22.3131 12.9598C22.3131 13.2458 22.3713 13.5223 22.4773 13.7726C22.6358 14.1483 22.8988 14.466 23.2308 14.691C23.562 14.9162 23.9664 15.0487 24.3954 15.0483C24.6815 15.0483 24.9571 14.9896 25.2063 14.8837C25.5801 14.7246 25.8971 14.4608 26.1213 14.1278C26.3459 13.7951 26.4776 13.3898 26.4776 12.9598V9.5238H25.2391V12.9598C25.2391 13.0781 25.216 13.1881 25.1735 13.2888C25.1097 13.4404 25.0015 13.5706 24.8672 13.6619C24.7314 13.7532 24.5726 13.8059 24.3954 13.8059C24.2775 13.8059 24.1678 13.7824 24.0671 13.7397C23.9164 13.6761 23.7866 13.5676 23.6956 13.4325C23.6042 13.2966 23.5516 13.1365 23.5509 12.9598C23.5517 12.6724 23.4934 12.3963 23.3875 12.1463C23.2289 11.7706 22.966 11.4529 22.634 11.2279C22.3021 11.0023 21.8984 10.8702 21.4694 10.8706C21.1837 10.8702 20.908 10.9289 20.6585 11.0352C20.284 11.1935 19.9673 11.4581 19.7431 11.7911C19.5185 12.1238 19.3872 12.5291 19.3872 12.9598V18.0402H20.6253V12.9599H20.6252Z" fill="white"/>
<path d="M14.3106 21.8115H12.7189V23.6448H10.8911V25.2424H12.7189V27.0753H14.3106V25.2424H16.1384V23.6448H14.3106V21.8115Z" fill="white"/>
<path d="M25.7612 21.6349C25.3774 22.0196 25.3782 22.6438 25.7612 23.0285C26.145 23.4132 26.7669 23.4132 27.15 23.0285C27.5338 22.6438 27.5338 22.0196 27.15 21.6349C26.7669 21.2502 26.1451 21.2502 25.7612 21.6349Z" fill="white"/>
<path d="M23.5679 23.8353C23.1844 24.22 23.1844 24.8442 23.5679 25.2289C23.9517 25.6136 24.5735 25.6136 24.957 25.2289C25.3405 24.8442 25.3405 24.22 24.957 23.8349C24.5735 23.4506 23.9517 23.4506 23.5679 23.8353Z" fill="white"/>
<path d="M25.7613 26.0357C25.3774 26.4204 25.3774 27.0442 25.7613 27.4289C26.1451 27.8136 26.7669 27.8136 27.1501 27.4293C27.5339 27.0442 27.5339 26.4204 27.1501 26.035C26.7669 25.6503 26.1451 25.651 25.7613 26.0357Z" fill="white"/>
<path d="M29.3435 23.8353C28.9604 23.4506 28.3383 23.4506 27.9544 23.8353C27.5705 24.22 27.5705 24.8442 27.9544 25.2289C28.3383 25.6136 28.9604 25.6136 29.3435 25.2289C29.727 24.8442 29.727 24.22 29.3435 23.8353Z" fill="white"/>
<defs>
<linearGradient id="paint0_linear_369_268" x1="20" y1="0" x2="20" y2="40" gradientUnits="userSpaceOnUse">
<stop offset="0.0591628" stop-color="#FF3D00"/>
<stop offset="1" stop-color="#FF0000"/>
</linearGradient>
</defs>
</svg>
