<svg width="44" height="44" viewBox="0 0 44 44" fill="none" xmlns="http://www.w3.org/2000/svg">
<circle cx="22.0001" cy="22" r="20" transform="rotate(2.97333 22.0001 22)" fill="#F00000"/>
<circle cx="22.0001" cy="22" r="20" transform="rotate(2.97333 22.0001 22)" fill="url(#paint0_linear_183_43)" fill-opacity="0.5"/>
<path fill-rule="evenodd" clip-rule="evenodd" d="M31.1863 21.6567C30.7123 21.632 30.2294 21.784 29.8541 22.1196L27.5772 24.1573C27.3569 23.7692 26.9988 23.4569 26.5443 23.3104L21.5045 21.686C21.1028 21.5565 20.6827 21.5143 20.2711 21.5545C19.8595 21.5947 19.4567 21.7173 19.0884 21.9219L15.7945 23.7533L15.5596 23.295C15.2669 22.7259 14.539 22.4919 13.9659 22.7819L11.4675 24.0449C10.8944 24.3349 10.6591 25.0571 10.9518 25.6261L14.2445 32.0268C14.5372 32.5959 15.2635 32.8313 15.8367 32.5413L18.3351 31.2768C18.9083 30.9868 19.145 30.2647 18.8523 29.6957L18.809 29.6102L20.2396 28.7551L25.2739 30.012C25.9639 30.1842 26.5969 30.0236 27.1195 29.5456C28.8463 27.9658 30.5749 26.3936 32.3257 24.8486C32.3272 24.8477 32.3287 24.8468 32.3303 24.8459C33.0809 24.1746 33.1418 23.0006 32.4648 22.2552C32.1263 21.8825 31.6602 21.6813 31.1863 21.6567ZM31.1108 23.1087C31.2029 23.1135 31.293 23.1565 31.3658 23.2367C31.5115 23.3971 31.5004 23.6115 31.3389 23.756C29.5785 25.3094 27.8448 26.8876 26.1174 28.4679C26.0857 28.497 25.6757 28.5995 25.6341 28.5891L20.3015 27.2593C20.2069 27.2356 20.1085 27.2307 20.012 27.2448C19.9155 27.259 19.8228 27.292 19.7392 27.342L18.1355 28.3015L16.4681 25.0606L19.8111 23.2031C20.1889 22.9932 20.6369 22.9481 21.049 23.0809L26.0888 24.7054C26.2957 24.7721 26.3934 24.9629 26.3264 25.1681C26.2593 25.3734 26.0672 25.4702 25.8603 25.4036L22.697 24.3844C22.5106 24.3243 22.3078 24.3402 22.1332 24.4285C21.9587 24.5168 21.8267 24.6703 21.7663 24.8553C21.7059 25.0403 21.7221 25.2415 21.8112 25.4148C21.9003 25.5881 22.0551 25.7192 22.2415 25.7793L25.4048 26.7985C26.115 27.0275 26.8753 26.7951 27.3501 26.2742C27.4232 26.2455 27.4911 26.2055 27.5514 26.1555L30.844 23.2096C30.9247 23.1374 31.0188 23.1039 31.1108 23.1087ZM14.3768 24.2204L14.7024 24.8541C14.7096 24.9587 14.7393 25.0605 14.7895 25.1527C14.8331 25.2264 14.8894 25.2919 14.9558 25.3464L17.4016 30.1023L15.4273 31.1014L12.4025 25.2195L14.3768 24.2204Z" fill="white"/>
<path fill-rule="evenodd" clip-rule="evenodd" d="M25.1956 17.0266C24.9999 17.0164 24.8081 17.0838 24.6626 17.214C24.517 17.3441 24.4296 17.5264 24.4195 17.7207C24.4094 17.9149 24.4775 18.1053 24.6088 18.2498C24.74 18.3944 24.9238 18.4813 25.1195 18.4914L26.5957 18.5681C26.7914 18.5783 26.9832 18.5109 27.1287 18.3807C27.2743 18.2505 27.3617 18.0683 27.3718 17.874C27.3819 17.6798 27.3138 17.4894 27.1825 17.3449C27.0513 17.2003 26.8675 17.1134 26.6718 17.1032L25.1956 17.0266Z" fill="white"/>
<path fill-rule="evenodd" clip-rule="evenodd" d="M25.3477 14.0967C25.152 14.0865 24.9602 14.1539 24.8147 14.2841C24.6691 14.4143 24.5817 14.5965 24.5716 14.7908C24.5615 14.9851 24.6296 15.1754 24.7609 15.3199C24.8921 15.4645 25.0759 15.5514 25.2716 15.5616L26.7478 15.6383C26.9435 15.6484 27.1353 15.581 27.2808 15.4508C27.4264 15.3207 27.5138 15.1384 27.5239 14.9441C27.534 14.7499 27.4659 14.5595 27.3346 14.415C27.2034 14.2704 27.0196 14.1835 26.8239 14.1734L25.3477 14.0967Z" fill="white"/>
<path fill-rule="evenodd" clip-rule="evenodd" d="M26.2379 11.2053C23.3932 11.0576 20.9516 13.2411 20.805 16.0641C20.6584 18.887 22.8606 21.3118 25.7053 21.4596C28.55 21.6073 30.9915 19.4237 31.1382 16.6008C31.2848 13.7778 29.0826 11.3531 26.2379 11.2053ZM26.1618 12.6702C28.2087 12.7765 29.7675 14.4929 29.662 16.5241C29.5565 18.5554 27.8283 20.101 25.7814 19.9947C23.7344 19.8883 22.1756 18.172 22.2812 16.1407C22.3867 14.1095 24.1149 12.5639 26.1618 12.6702Z" fill="white"/>
<defs>
<linearGradient id="paint0_linear_183_43" x1="22.0001" y1="2" x2="22.0001" y2="42" gradientUnits="userSpaceOnUse">
<stop offset="0.0591628" stop-color="#FF3D00"/>
<stop offset="1" stop-color="#FF0000"/>
</linearGradient>
</defs>
</svg>
