<svg width="44" height="44" viewBox="0 0 44 44" fill="none" xmlns="http://www.w3.org/2000/svg">
<circle cx="22" cy="22" r="22" fill="#F00000"/>
<circle cx="22" cy="22" r="22" fill="url(#paint0_linear_239_135)" fill-opacity="0.5"/>
<path d="M16.9631 26.1193C16.2983 26.1193 15.7088 26.0057 15.1946 25.7784C14.6832 25.5483 14.2798 25.2315 13.9844 24.8281C13.6889 24.4247 13.5384 23.9602 13.5327 23.4347H15.6548C15.6634 23.625 15.7244 23.794 15.8381 23.9418C15.9517 24.0866 16.1065 24.2003 16.3026 24.2827C16.4986 24.3651 16.7216 24.4062 16.9716 24.4062C17.2216 24.4062 17.4418 24.3622 17.6321 24.2741C17.8253 24.1832 17.9759 24.0597 18.0838 23.9034C18.1918 23.7443 18.2443 23.5625 18.2415 23.358C18.2443 23.1534 18.1861 22.9716 18.0668 22.8125C17.9474 22.6534 17.7784 22.5298 17.5597 22.4418C17.3438 22.3537 17.0881 22.3097 16.7926 22.3097H15.9446V20.8097H16.7926C17.0511 20.8097 17.2784 20.767 17.4744 20.6818C17.6733 20.5966 17.8281 20.4773 17.9389 20.3239C18.0497 20.1676 18.1037 19.9886 18.1009 19.7869C18.1037 19.5909 18.0568 19.419 17.9602 19.2713C17.8665 19.1207 17.7344 19.0043 17.5639 18.9219C17.3963 18.8395 17.2017 18.7983 16.9801 18.7983C16.7472 18.7983 16.5355 18.8395 16.3452 18.9219C16.1577 19.0043 16.0085 19.1207 15.8977 19.2713C15.7869 19.4219 15.7287 19.5966 15.723 19.7955H13.7074C13.7131 19.2756 13.858 18.8182 14.142 18.4233C14.4261 18.0256 14.8125 17.7145 15.3011 17.4901C15.7926 17.2656 16.3523 17.1534 16.9801 17.1534C17.6051 17.1534 18.1548 17.2628 18.6293 17.4815C19.1037 17.7003 19.473 17.9986 19.7372 18.3764C20.0014 18.7514 20.1335 19.1761 20.1335 19.6506C20.1364 20.142 19.9759 20.5469 19.652 20.8651C19.331 21.1832 18.9176 21.3793 18.4119 21.4531V21.5213C19.0881 21.6009 19.598 21.8196 19.9418 22.1776C20.2884 22.5355 20.4602 22.983 20.4574 23.5199C20.4574 24.0256 20.3082 24.4744 20.0099 24.8665C19.7145 25.2557 19.3026 25.5625 18.7741 25.7869C18.2486 26.0085 17.6449 26.1193 16.9631 26.1193ZM26.5352 24.3636V23.9034C26.5352 23.5455 26.6119 23.2145 26.7653 22.9105C26.9215 22.6065 27.1474 22.3622 27.4428 22.1776C27.7383 21.9929 28.0991 21.9006 28.5252 21.9006C28.9599 21.9006 29.3249 21.9929 29.6204 22.1776C29.9187 22.3594 30.1431 22.6023 30.2937 22.9062C30.4471 23.2074 30.5238 23.5398 30.5238 23.9034V24.3636C30.5238 24.7216 30.4471 25.0526 30.2937 25.3565C30.1403 25.6605 29.9144 25.9048 29.6161 26.0895C29.3178 26.2741 28.9542 26.3665 28.5252 26.3665C28.0934 26.3665 27.7298 26.2741 27.4343 26.0895C27.1388 25.9048 26.9144 25.6605 26.761 25.3565C26.6104 25.0526 26.5352 24.7216 26.5352 24.3636ZM27.8945 23.9034V24.3636C27.8945 24.5455 27.9386 24.7202 28.0266 24.8878C28.1175 25.0554 28.2837 25.1392 28.5252 25.1392C28.7724 25.1392 28.9386 25.0582 29.0238 24.8963C29.109 24.7315 29.1516 24.554 29.1516 24.3636V23.9034C29.1516 23.7131 29.1104 23.5341 29.0281 23.3665C28.9485 23.196 28.7809 23.1108 28.5252 23.1108C28.2866 23.1108 28.1218 23.196 28.0309 23.3665C27.94 23.5341 27.8945 23.7131 27.8945 23.9034ZM22.0096 19.3693V18.9091C22.0096 18.5455 22.0877 18.2131 22.244 17.9119C22.4031 17.608 22.6303 17.3651 22.9258 17.1832C23.2212 16.9986 23.5792 16.9062 23.9996 16.9062C24.4343 16.9062 24.7994 16.9986 25.0948 17.1832C25.3931 17.3651 25.619 17.608 25.7724 17.9119C25.9258 18.2131 26.0025 18.5455 26.0025 18.9091V19.3693C26.0025 19.733 25.9244 20.0653 25.7681 20.3665C25.6147 20.6676 25.3888 20.9077 25.0906 21.0866C24.7923 21.2656 24.4286 21.3551 23.9996 21.3551C23.5707 21.3551 23.207 21.2642 22.9087 21.0824C22.6133 20.9006 22.3888 20.6591 22.2354 20.358C22.0849 20.0568 22.0096 19.7273 22.0096 19.3693ZM23.3817 18.9091V19.3693C23.3817 19.5597 23.4258 19.7372 23.5138 19.902C23.6048 20.0639 23.7667 20.1449 23.9996 20.1449C24.2496 20.1449 24.4158 20.0639 24.4982 19.902C24.5835 19.7372 24.6261 19.5597 24.6261 19.3693V18.9091C24.6261 18.7187 24.5863 18.5398 24.5067 18.3722C24.4272 18.2017 24.2582 18.1165 23.9996 18.1165C23.761 18.1165 23.5977 18.2031 23.5096 18.3764C23.4244 18.5497 23.3817 18.7273 23.3817 18.9091ZM22.6531 26L28.6531 17.2727H29.8164L23.8164 26H22.6531Z" fill="white"/>
<defs>
<linearGradient id="paint0_linear_239_135" x1="22" y1="0" x2="22" y2="44" gradientUnits="userSpaceOnUse">
<stop offset="0.0591628" stop-color="#FF3D00"/>
<stop offset="1" stop-color="#FF0000"/>
</linearGradient>
</defs>
</svg>
