<svg width="40" height="40" viewBox="0 0 40 40" fill="none" xmlns="http://www.w3.org/2000/svg">
<circle cx="20" cy="20" r="20" fill="#F00000"/>
<circle cx="20" cy="20" r="20" fill="url(#paint0_linear_369_257)" fill-opacity="0.5"/>
<path d="M6.66675 18.6905C6.66675 19.4137 7.26371 20 8.00008 20H12.0001V16.0714C12.0001 15.3482 11.4031 14.7619 10.6667 14.7619H8.00008C7.26371 14.7619 6.66675 15.3482 6.66675 16.0714V18.6905Z" fill="white"/>
<path d="M17.3333 20H22.6666V16.0714C22.6666 15.3482 22.0697 14.7619 21.3333 14.7619H18.6666C17.9302 14.7619 17.3333 15.3482 17.3333 16.0714V20Z" fill="white"/>
<path d="M11.9998 23.9286C11.9998 24.6518 12.5967 25.2381 13.3331 25.2381H15.9998C16.7361 25.2381 17.3331 24.6518 17.3331 23.9286V20H11.9998V23.9286Z" fill="white"/>
<path d="M28.0002 20H32.0002C32.7366 20 33.3336 19.4137 33.3336 18.6905V16.0714C33.3336 15.3482 32.7366 14.7619 32.0002 14.7619H29.3336C28.5972 14.7619 28.0002 15.3482 28.0002 16.0714V20Z" fill="white"/>
<path d="M22.6667 23.9286C22.6667 24.6518 23.2637 25.2381 24.0001 25.2381H26.6667C27.4031 25.2381 28.0001 24.6518 28.0001 23.9286V20H22.6667V23.9286Z" fill="white"/>
<path d="M6.66675 29.1666C6.66675 28.4434 7.26371 27.8571 8.00008 27.8571H32.0001C32.7365 27.8571 33.3334 28.4434 33.3334 29.1666C33.3334 29.8899 32.7365 30.4762 32.0001 30.4762H8.00008C7.26371 30.4762 6.66675 29.8899 6.66675 29.1666Z" fill="white"/>
<path d="M6.66675 10.8333C6.66675 10.1101 7.26371 9.5238 8.00008 9.5238H32.0001C32.7365 9.5238 33.3334 10.1101 33.3334 10.8333C33.3334 11.5566 32.7365 12.1429 32.0001 12.1429H8.00008C7.26371 12.1429 6.66675 11.5566 6.66675 10.8333Z" fill="white"/>
<defs>
<linearGradient id="paint0_linear_369_257" x1="20" y1="0" x2="20" y2="40" gradientUnits="userSpaceOnUse">
<stop offset="0.0591628" stop-color="#FF3D00"/>
<stop offset="1" stop-color="#FF0000"/>
</linearGradient>
</defs>
</svg>
