<svg width="40" height="40" viewBox="0 0 40 40" fill="none" xmlns="http://www.w3.org/2000/svg">
<circle cx="20" cy="20" r="20" fill="#F00000"/>
<circle cx="20" cy="20" r="20" fill="url(#paint0_linear_183_41)" fill-opacity="0.5"/>
<path d="M31 21.5556L24.5833 27L10.8333 27C9.81767 27 9 26.3062 9 25.4444L9 14.5556C9 13.6938 9.81767 13 10.8333 13L29.1667 13C30.1823 13 31 13.6938 31 14.5556L31 21.5556ZM21.8333 23.5V22.7222L18.1667 22.7222V25.0556H20C21.0157 25.0556 21.8333 24.3618 21.8333 23.5ZM21.8333 21.9444V20.3889L18.1667 20.3889V21.9444L21.8333 21.9444ZM21.8333 19.6111V18.0556L18.1667 18.0556V19.6111L21.8333 19.6111ZM21.8333 17.2778V16.5C21.8333 15.6382 21.0157 14.9444 20 14.9444L18.1667 14.9444L18.1667 17.2778L21.8333 17.2778ZM17.25 25.0556L17.25 14.9444H12.6667C11.651 14.9444 10.8333 15.6382 10.8333 16.5V17.2778L14.5 17.2778H15.4167L15.4167 25.0556H17.25ZM14.5 25.0556V22.7222H10.8333V23.5C10.8333 24.3618 11.651 25.0556 12.6667 25.0556H14.5ZM14.5 21.9444V20.3889H10.8333V21.9444H14.5ZM14.5 19.6111L14.5 18.0556L10.8333 18.0556L10.8333 19.6111H14.5Z" fill="white"/>
<defs>
<linearGradient id="paint0_linear_183_41" x1="20" y1="0" x2="20" y2="40" gradientUnits="userSpaceOnUse">
<stop offset="0.0591628" stop-color="#FF3D00"/>
<stop offset="1" stop-color="#FF0000"/>
</linearGradient>
</defs>
</svg>
