<svg width="40" height="40" viewBox="0 0 40 40" fill="none" xmlns="http://www.w3.org/2000/svg">
<circle cx="20" cy="20" r="20" fill="#F00000"/>
<circle cx="20" cy="20" r="20" fill="url(#paint0_linear_183_42)" fill-opacity="0.5"/>
<path d="M26.873 26.7465L19.4767 25.7014L16.5784 22.7447C16.5783 22.7446 16.5782 22.7444 16.5781 22.7442C16.4708 22.6345 16.4707 22.4562 16.5772 22.3472C16.6474 22.2757 16.7294 22.265 16.772 22.265C16.8144 22.265 16.8959 22.2756 16.9653 22.3466C16.9655 22.3468 16.9656 22.3468 16.9658 22.347L19.1571 24.5827C19.1572 24.5828 19.1573 24.5828 19.1573 24.583C19.1574 24.5831 19.1575 24.5832 19.1576 24.5833C19.1638 24.5897 19.1708 24.595 19.1772 24.6013C19.1867 24.6103 19.1961 24.6196 19.206 24.6278C19.5277 24.9311 19.9374 25.0846 20.3483 25.0846C20.7797 25.0846 21.2116 24.9172 21.5405 24.5824C22.1968 23.9116 22.1967 22.8207 21.5401 22.1507L15.5245 16.0129C15.4048 15.8907 15.2425 15.8221 15.0731 15.8221H8.63826C8.28569 15.8221 8 16.1137 8 16.4734C8 16.833 8.28569 17.1246 8.63826 17.1246H14.8088L20.6373 23.0713C20.7967 23.234 20.7965 23.499 20.6379 23.6611C20.4785 23.8234 20.2186 23.8234 20.0592 23.6611C20.059 23.6608 20.0587 23.6605 20.0584 23.6603L17.8692 21.4269C17.8692 21.4268 17.8691 21.4266 17.8689 21.4265C17.8687 21.4263 17.8686 21.4262 17.8684 21.426C17.8681 21.4258 17.8678 21.4254 17.8675 21.4252C17.5751 21.1268 17.186 20.9625 16.772 20.9625C16.3577 20.9625 15.9681 21.1271 15.6744 21.4264C15.0865 22.0273 15.0731 22.9948 15.6308 23.6149C15.6346 23.6196 15.639 23.6238 15.6428 23.6283C15.6536 23.6401 15.6631 23.6525 15.6742 23.6639C15.6744 23.6641 15.6746 23.6643 15.6748 23.6645L15.6749 23.6645L18.7257 26.777C18.824 26.8773 18.9516 26.942 19.0894 26.9616L26.6922 28.0357C26.8355 28.0573 27.1062 28.1549 27.1062 28.3706C27.1063 28.4883 27.0476 28.5657 27.0127 28.6015C26.9775 28.6374 26.9013 28.6975 26.7854 28.6975H18.2823L11.5148 21.7918C11.3951 21.6698 11.2328 21.6011 11.0634 21.6011H8.63826C8.28569 21.6011 8 21.8926 8 22.2523C8 22.6119 8.28569 22.9035 8.63826 22.9035H10.7991L17.5666 29.8092C17.6863 29.9313 17.8486 29.9999 18.018 29.9999H26.7854C27.2126 29.9999 27.6139 29.8302 27.9157 29.522C28.2173 29.214 28.3831 28.8046 28.3826 28.3699C28.3827 27.548 27.7642 26.8807 26.873 26.7465Z" fill="white"/>
<path d="M28.1018 10C27.1326 10 26.175 10.3674 25.4321 11.0054C24.6893 10.3673 23.732 10 22.7631 10C20.5772 10 18.865 11.747 18.865 13.9772C18.865 16.6254 21.0868 18.6342 24.1645 21.4111L24.9815 22.2422C25.1061 22.369 25.2691 22.4323 25.4322 22.4323C25.5952 22.4323 25.7581 22.369 25.8826 22.2425L26.7006 21.4112C29.778 18.6344 31.9999 16.6255 31.9999 13.9772C31.9999 11.747 30.2876 10 28.1018 10ZM25.8406 20.4484C25.8312 20.4569 25.8219 20.4657 25.813 20.4749L25.4324 20.8617L25.0523 20.475C25.0433 20.4658 25.034 20.4569 25.0245 20.4483C21.9059 17.6344 20.1415 15.9465 20.1415 13.9772C20.1415 12.4523 21.2685 11.3023 22.7631 11.3023C23.5774 11.3023 24.4134 11.7007 24.9447 12.3419C25.066 12.4882 25.2444 12.5727 25.4322 12.5727C25.62 12.5727 25.7984 12.4883 25.9197 12.3419C26.451 11.7007 27.2872 11.3023 28.102 11.3023C29.5966 11.3023 30.7236 12.4523 30.7236 13.9772C30.7234 15.9468 28.959 17.6346 25.8406 20.4484Z" fill="white"/>
<defs>
<linearGradient id="paint0_linear_183_42" x1="20" y1="0" x2="20" y2="40" gradientUnits="userSpaceOnUse">
<stop offset="0.0591628" stop-color="#FF3D00"/>
<stop offset="1" stop-color="#FF0000"/>
</linearGradient>
</defs>
</svg>
