<svg width="44" height="44" viewBox="0 0 44 44" fill="none" xmlns="http://www.w3.org/2000/svg">
<circle cx="22" cy="22" r="22" fill="#F00000"/>
<circle cx="22" cy="22" r="22" fill="url(#paint0_linear_239_156)" fill-opacity="0.5"/>
<path d="M5.47217 25V23.6094L8.39014 21.0547C8.60889 20.8568 8.79508 20.6758 8.94873 20.5117C9.10238 20.3451 9.21956 20.1784 9.30029 20.0117C9.38102 19.8424 9.42139 19.6589 9.42139 19.4609C9.42139 19.2396 9.37321 19.0508 9.27686 18.8945C9.1805 18.7357 9.04769 18.6133 8.87842 18.5273C8.70915 18.4414 8.51514 18.3984 8.29639 18.3984C8.07503 18.3984 7.88102 18.444 7.71436 18.5352C7.54769 18.6237 7.41748 18.7526 7.32373 18.9219C7.23258 19.0911 7.18701 19.2969 7.18701 19.5391H5.35498C5.35498 18.9948 5.47738 18.5247 5.72217 18.1289C5.96696 17.7331 6.31071 17.4284 6.75342 17.2148C7.19873 16.9987 7.71566 16.8906 8.3042 16.8906C8.91097 16.8906 9.43831 16.9922 9.88623 17.1953C10.3341 17.3984 10.6805 17.6823 10.9253 18.0469C11.1727 18.4089 11.2964 18.8294 11.2964 19.3086C11.2964 19.6133 11.2352 19.9154 11.1128 20.2148C10.9904 20.5143 10.7703 20.8451 10.4526 21.207C10.1375 21.569 9.68962 22.0026 9.10889 22.5078L8.15186 23.3906V23.4414H11.394V25H5.47217ZM13.5767 25.1133C13.2954 25.1133 13.0545 25.0143 12.854 24.8164C12.6561 24.6185 12.5584 24.3789 12.561 24.0977C12.5584 23.8216 12.6561 23.5859 12.854 23.3906C13.0545 23.1927 13.2954 23.0938 13.5767 23.0938C13.8423 23.0938 14.0767 23.1927 14.2798 23.3906C14.4855 23.5859 14.5897 23.8216 14.5923 24.0977C14.5897 24.2852 14.5402 24.4557 14.4438 24.6094C14.3501 24.763 14.2264 24.8854 14.0728 24.9766C13.9217 25.0677 13.7563 25.1133 13.5767 25.1133ZM15.8384 25V23.6094L18.7563 21.0547C18.9751 20.8568 19.1613 20.6758 19.3149 20.5117C19.4686 20.3451 19.5858 20.1784 19.6665 20.0117C19.7472 19.8424 19.7876 19.6589 19.7876 19.4609C19.7876 19.2396 19.7394 19.0508 19.6431 18.8945C19.5467 18.7357 19.4139 18.6133 19.2446 18.5273C19.0754 18.4414 18.8813 18.3984 18.6626 18.3984C18.4412 18.3984 18.2472 18.444 18.0806 18.5352C17.9139 18.6237 17.7837 18.7526 17.6899 18.9219C17.5988 19.0911 17.5532 19.2969 17.5532 19.5391H15.7212C15.7212 18.9948 15.8436 18.5247 16.0884 18.1289C16.3332 17.7331 16.6769 17.4284 17.1196 17.2148C17.5649 16.9987 18.0819 16.8906 18.6704 16.8906C19.2772 16.8906 19.8045 16.9922 20.2524 17.1953C20.7004 17.3984 21.0467 17.6823 21.2915 18.0469C21.5389 18.4089 21.6626 18.8294 21.6626 19.3086C21.6626 19.6133 21.6014 19.9154 21.479 20.2148C21.3566 20.5143 21.1366 20.8451 20.8188 21.207C20.5037 21.569 20.0558 22.0026 19.4751 22.5078L18.5181 23.3906V23.4414H21.7603V25H15.8384ZM25.9155 25.1094C25.3322 25.1094 24.814 25.0039 24.3608 24.793C23.9077 24.582 23.5496 24.2917 23.2866 23.9219C23.0262 23.5521 22.8908 23.1276 22.8804 22.6484H24.7554C24.771 22.9427 24.8908 23.1797 25.1147 23.3594C25.3387 23.5365 25.6056 23.625 25.9155 23.625C26.1577 23.625 26.3726 23.5716 26.5601 23.4648C26.7476 23.3581 26.8947 23.2083 27.0015 23.0156C27.1082 22.8203 27.1603 22.5964 27.1577 22.3437C27.1603 22.0859 27.1069 21.8607 26.9976 21.668C26.8908 21.4753 26.7424 21.3255 26.5522 21.2188C26.3647 21.1094 26.1486 21.0547 25.9038 21.0547C25.672 21.0521 25.452 21.1029 25.2437 21.207C25.0379 21.3112 24.8817 21.4531 24.7749 21.6328L23.0679 21.3125L23.4155 17H28.5483V18.5586H25.0054L24.8218 20.4453H24.8687C25.0015 20.224 25.215 20.0417 25.5093 19.8984C25.8062 19.7526 26.1434 19.6797 26.521 19.6797C27.0002 19.6797 27.4272 19.7917 27.8022 20.0156C28.1799 20.237 28.4767 20.5443 28.6929 20.9375C28.9116 21.3307 29.021 21.7812 29.021 22.2891C29.021 22.8385 28.8908 23.3255 28.6304 23.75C28.3726 24.1745 28.0106 24.5078 27.5444 24.75C27.0809 24.9896 26.5379 25.1094 25.9155 25.1094ZM34.563 23.5V23.0781C34.563 22.75 34.6333 22.4466 34.7739 22.168C34.9172 21.8893 35.1242 21.6654 35.395 21.4961C35.6659 21.3268 35.9966 21.2422 36.3872 21.2422C36.7856 21.2422 37.1203 21.3268 37.3911 21.4961C37.6646 21.6628 37.8703 21.8854 38.0083 22.1641C38.1489 22.4401 38.2192 22.7448 38.2192 23.0781V23.5C38.2192 23.8281 38.1489 24.1315 38.0083 24.4102C37.8677 24.6888 37.6606 24.9128 37.3872 25.082C37.1138 25.2513 36.7804 25.3359 36.3872 25.3359C35.9914 25.3359 35.658 25.2513 35.3872 25.082C35.1164 24.9128 34.9106 24.6888 34.77 24.4102C34.632 24.1315 34.563 23.8281 34.563 23.5ZM35.8091 23.0781V23.5C35.8091 23.6667 35.8494 23.8268 35.9302 23.9805C36.0135 24.1341 36.1659 24.2109 36.3872 24.2109C36.6138 24.2109 36.7661 24.1367 36.8442 23.9883C36.9224 23.8372 36.9614 23.6745 36.9614 23.5V23.0781C36.9614 22.9036 36.9237 22.7396 36.8481 22.5859C36.7752 22.4297 36.6216 22.3516 36.3872 22.3516C36.1685 22.3516 36.0174 22.4297 35.9341 22.5859C35.8507 22.7396 35.8091 22.9036 35.8091 23.0781ZM30.4146 18.9219V18.5C30.4146 18.1667 30.4862 17.862 30.6294 17.5859C30.7752 17.3073 30.9836 17.0846 31.2544 16.918C31.5252 16.7487 31.8534 16.6641 32.2388 16.6641C32.6372 16.6641 32.9718 16.7487 33.2427 16.918C33.5161 17.0846 33.7231 17.3073 33.8638 17.5859C34.0044 17.862 34.0747 18.1667 34.0747 18.5V18.9219C34.0747 19.2552 34.0031 19.5599 33.8599 19.8359C33.7192 20.112 33.5122 20.332 33.2388 20.4961C32.9653 20.6602 32.632 20.7422 32.2388 20.7422C31.8455 20.7422 31.5122 20.6589 31.2388 20.4922C30.9679 20.3255 30.7622 20.1042 30.6216 19.8281C30.4836 19.5521 30.4146 19.25 30.4146 18.9219ZM31.6724 18.5V18.9219C31.6724 19.0964 31.7127 19.2591 31.7935 19.4102C31.8768 19.5586 32.0252 19.6328 32.2388 19.6328C32.4679 19.6328 32.6203 19.5586 32.6958 19.4102C32.7739 19.2591 32.813 19.0964 32.813 18.9219V18.5C32.813 18.3255 32.7765 18.1615 32.7036 18.0078C32.6307 17.8516 32.4757 17.7734 32.2388 17.7734C32.02 17.7734 31.8703 17.8529 31.7896 18.0117C31.7114 18.1706 31.6724 18.3333 31.6724 18.5ZM31.0044 25L36.5044 17H37.5708L32.0708 25H31.0044Z" fill="white"/>
<defs>
<linearGradient id="paint0_linear_239_156" x1="22" y1="0" x2="22" y2="44" gradientUnits="userSpaceOnUse">
<stop offset="0.0591628" stop-color="#FF3D00"/>
<stop offset="1" stop-color="#FF0000"/>
</linearGradient>
</defs>
</svg>
