<svg width="40" height="40" viewBox="0 0 40 40" fill="none" xmlns="http://www.w3.org/2000/svg">
<circle cx="20" cy="20" r="20" fill="#F00000"/>
<circle cx="20" cy="20" r="20" fill="url(#paint0_linear_369_230)" fill-opacity="0.5"/>
<path d="M10.4772 10.4286L9.52512 29.4762C9.51866 29.6052 9.53851 29.7342 9.58346 29.8553C9.62841 29.9764 9.69751 30.0871 9.78658 30.1806C9.87564 30.2741 9.9828 30.3486 10.1015 30.3994C10.2203 30.4502 10.3481 30.4763 10.4772 30.4762H29.5194C29.6529 30.4768 29.785 30.4494 29.9072 30.3957C30.0294 30.342 30.1389 30.2632 30.2287 30.1644C30.3185 30.0657 30.3865 29.9491 30.4283 29.8223C30.4702 29.6955 30.4849 29.5614 30.4715 29.4286L29.5194 19.9048C29.4957 19.669 29.3851 19.4506 29.209 19.2921C29.033 19.1336 28.8042 19.0464 28.5673 19.0476H26.1404L25.711 10.4286C25.6988 10.1843 25.5931 9.95414 25.4158 9.78571C25.2386 9.61728 25.0034 9.5235 24.7589 9.5238H11.4293C11.1849 9.5235 10.9496 9.61728 10.7724 9.78571C10.5951 9.95414 10.4895 10.1843 10.4772 10.4286ZM27.7104 20.9524L28.4721 28.5714H26.6164L26.2356 20.9524H27.7104ZM12.3348 11.4286H23.8553L24.2857 20.0448L24.5189 24.7619H11.6683L12.3348 11.4286ZM11.5731 26.6667H24.617L24.6532 27.3809L24.7094 28.5714H11.4779L11.5731 26.6667ZM21.9025 15.2381V18.0952C21.9025 19.1056 21.5013 20.0745 20.7871 20.789C20.0729 21.5034 19.1042 21.9047 18.0941 21.9047C17.084 21.9047 16.1154 21.5034 15.4011 20.789C14.6869 20.0745 14.2857 19.1056 14.2857 18.0952V15.2381C14.2857 14.9855 14.386 14.7433 14.5645 14.5647C14.7431 14.386 14.9853 14.2857 15.2378 14.2857C15.4903 14.2857 15.7325 14.386 15.911 14.5647C16.0896 14.7433 16.1899 14.9855 16.1899 15.2381V18.0952C16.1899 18.6004 16.3905 19.0849 16.7476 19.4421C17.1047 19.7993 17.5891 20 18.0941 20C18.5991 20 19.0835 19.7993 19.4406 19.4421C19.7977 19.0849 19.9983 18.6004 19.9983 18.0952V15.2381C19.9983 14.9855 20.0986 14.7433 20.2772 14.5647C20.4557 14.386 20.6979 14.2857 20.9504 14.2857C21.203 14.2857 21.4451 14.386 21.6237 14.5647C21.8022 14.7433 21.9025 14.9855 21.9025 15.2381Z" fill="white"/>
<defs>
<linearGradient id="paint0_linear_369_230" x1="20" y1="0" x2="20" y2="40" gradientUnits="userSpaceOnUse">
<stop offset="0.0591628" stop-color="#FF3D00"/>
<stop offset="1" stop-color="#FF0000"/>
</linearGradient>
</defs>
</svg>
