<svg width="40" height="40" viewBox="0 0 40 40" fill="none" xmlns="http://www.w3.org/2000/svg">
<circle cx="20" cy="20" r="20" fill="#F00000"/>
<circle cx="20" cy="20" r="20" fill="url(#paint0_linear_183_37)" fill-opacity="0.5"/>
<circle cx="20" cy="20" r="20" fill="#F00000"/>
<circle cx="20" cy="20" r="20" fill="url(#paint1_linear_183_37)" fill-opacity="0.5"/>
<path d="M25.8125 7H14.1877C12.9814 7 12 7.96656 12 9.15437V30.8455C12 32.0334 12.9815 33 14.1877 33H25.8125C27.0187 33 28 32.0333 28 30.8455V9.15437C28 7.96656 27.0187 7 25.8125 7ZM26.3733 30.8456C26.3733 31.1502 26.1217 31.3981 25.8125 31.3981H14.1877C13.8783 31.3981 13.6267 31.1502 13.6267 30.8456V9.15437C13.6267 8.84978 13.8785 8.602 14.1877 8.602H16.1894C16.2573 9.15424 16.7348 9.58233 17.3138 9.58233H22.6858C23.2655 9.58233 23.7424 9.15424 23.8104 8.602H25.8127C26.1218 8.602 26.3734 8.84978 26.3734 9.15437V30.8456H26.3733Z" fill="white"/>
<defs>
<linearGradient id="paint0_linear_183_37" x1="20" y1="0" x2="20" y2="40" gradientUnits="userSpaceOnUse">
<stop offset="0.0591628" stop-color="#FF3D00"/>
<stop offset="1" stop-color="#FF0000"/>
</linearGradient>
<linearGradient id="paint1_linear_183_37" x1="20" y1="0" x2="20" y2="40" gradientUnits="userSpaceOnUse">
<stop offset="0.0591628" stop-color="#FF3D00"/>
<stop offset="1" stop-color="#FF0000"/>
</linearGradient>
</defs>
</svg>
