<svg width="44" height="44" viewBox="0 0 44 44" fill="none" xmlns="http://www.w3.org/2000/svg">
<circle cx="22" cy="22" r="22" fill="#F00000"/>
<circle cx="22" cy="22" r="22" fill="url(#paint0_linear_239_162)" fill-opacity="0.5"/>
<path d="M8.97949 25.1953C8.28158 25.1953 7.68001 25.0299 7.1748 24.6992C6.6696 24.3659 6.28027 23.888 6.00684 23.2656C5.7334 22.6406 5.59798 21.8893 5.60059 21.0117C5.60319 20.1341 5.73991 19.3893 6.01074 18.7773C6.28418 18.1628 6.6722 17.6953 7.1748 17.375C7.68001 17.0521 8.28158 16.8906 8.97949 16.8906C9.67741 16.8906 10.279 17.0521 10.7842 17.375C11.292 17.6953 11.6826 18.1628 11.9561 18.7773C12.2295 19.3919 12.3649 20.1367 12.3623 21.0117C12.3623 21.8919 12.2256 22.6445 11.9521 23.2695C11.6787 23.8945 11.2894 24.3724 10.7842 24.7031C10.2816 25.0312 9.68001 25.1953 8.97949 25.1953ZM8.97949 23.6133C9.39616 23.6133 9.7334 23.401 9.99121 22.9766C10.249 22.5495 10.3766 21.8945 10.374 21.0117C10.374 20.4336 10.3154 19.957 10.1982 19.582C10.0811 19.2044 9.91829 18.9232 9.70996 18.7383C9.50163 18.5534 9.25814 18.4609 8.97949 18.4609C8.56543 18.4609 8.23079 18.6706 7.97559 19.0898C7.72038 19.5065 7.59147 20.1471 7.58887 21.0117C7.58626 21.5977 7.64225 22.0833 7.75684 22.4687C7.87402 22.8542 8.03809 23.1419 8.24902 23.332C8.45996 23.5195 8.70345 23.6133 8.97949 23.6133ZM14.2158 25.1133C13.9346 25.1133 13.6937 25.0143 13.4932 24.8164C13.2952 24.6185 13.1976 24.3789 13.2002 24.0977C13.1976 23.8216 13.2952 23.5859 13.4932 23.3906C13.6937 23.1927 13.9346 23.0938 14.2158 23.0938C14.4814 23.0938 14.7158 23.1927 14.9189 23.3906C15.1247 23.5859 15.2288 23.8216 15.2314 24.0977C15.2288 24.2852 15.1794 24.4557 15.083 24.6094C14.9893 24.763 14.8656 24.8854 14.7119 24.9766C14.5609 25.0677 14.3955 25.1133 14.2158 25.1133ZM16.4736 25L19.7002 18.6094V18.5586H15.9268V17H21.7002V18.5703L18.4619 25H16.4736ZM25.7168 25.1094C25.1335 25.1094 24.6152 25.0039 24.1621 24.793C23.709 24.582 23.3509 24.2917 23.0879 23.9219C22.8275 23.5521 22.6921 23.1276 22.6816 22.6484H24.5566C24.5723 22.9427 24.6921 23.1797 24.916 23.3594C25.14 23.5365 25.4069 23.625 25.7168 23.625C25.959 23.625 26.1738 23.5716 26.3613 23.4648C26.5488 23.3581 26.696 23.2083 26.8027 23.0156C26.9095 22.8203 26.9616 22.5964 26.959 22.3437C26.9616 22.0859 26.9082 21.8607 26.7988 21.668C26.6921 21.4753 26.5436 21.3255 26.3535 21.2188C26.166 21.1094 25.9499 21.0547 25.7051 21.0547C25.4733 21.0521 25.2533 21.1029 25.0449 21.207C24.8392 21.3112 24.6829 21.4531 24.5762 21.6328L22.8691 21.3125L23.2168 17H28.3496V18.5586H24.8066L24.623 20.4453H24.6699C24.8027 20.224 25.0163 20.0417 25.3105 19.8984C25.6074 19.7526 25.9447 19.6797 26.3223 19.6797C26.8014 19.6797 27.2285 19.7917 27.6035 20.0156C27.9811 20.237 28.278 20.5443 28.4941 20.9375C28.7129 21.3307 28.8223 21.7812 28.8223 22.2891C28.8223 22.8385 28.6921 23.3255 28.4316 23.75C28.1738 24.1745 27.8118 24.5078 27.3457 24.75C26.8822 24.9896 26.3392 25.1094 25.7168 25.1094ZM34.3643 23.5V23.0781C34.3643 22.75 34.4346 22.4466 34.5752 22.168C34.7184 21.8893 34.9255 21.6654 35.1963 21.4961C35.4671 21.3268 35.7979 21.2422 36.1885 21.2422C36.5869 21.2422 36.9215 21.3268 37.1924 21.4961C37.4658 21.6628 37.6715 21.8854 37.8096 22.1641C37.9502 22.4401 38.0205 22.7448 38.0205 23.0781V23.5C38.0205 23.8281 37.9502 24.1315 37.8096 24.4102C37.6689 24.6888 37.4619 24.9128 37.1885 25.082C36.915 25.2513 36.5817 25.3359 36.1885 25.3359C35.7926 25.3359 35.4593 25.2513 35.1885 25.082C34.9176 24.9128 34.7119 24.6888 34.5713 24.4102C34.4333 24.1315 34.3643 23.8281 34.3643 23.5ZM35.6104 23.0781V23.5C35.6104 23.6667 35.6507 23.8268 35.7314 23.9805C35.8148 24.1341 35.9671 24.2109 36.1885 24.2109C36.415 24.2109 36.5674 24.1367 36.6455 23.9883C36.7236 23.8372 36.7627 23.6745 36.7627 23.5V23.0781C36.7627 22.9036 36.7249 22.7396 36.6494 22.5859C36.5765 22.4297 36.4229 22.3516 36.1885 22.3516C35.9697 22.3516 35.8187 22.4297 35.7354 22.5859C35.652 22.7396 35.6104 22.9036 35.6104 23.0781ZM30.2158 18.9219V18.5C30.2158 18.1667 30.2874 17.862 30.4307 17.5859C30.5765 17.3073 30.7848 17.0846 31.0557 16.918C31.3265 16.7487 31.6546 16.6641 32.04 16.6641C32.4385 16.6641 32.7731 16.7487 33.0439 16.918C33.3174 17.0846 33.5244 17.3073 33.665 17.5859C33.8057 17.862 33.876 18.1667 33.876 18.5V18.9219C33.876 19.2552 33.8044 19.5599 33.6611 19.8359C33.5205 20.112 33.3135 20.332 33.04 20.4961C32.7666 20.6602 32.4333 20.7422 32.04 20.7422C31.6468 20.7422 31.3135 20.6589 31.04 20.4922C30.7692 20.3255 30.5635 20.1042 30.4229 19.8281C30.2848 19.5521 30.2158 19.25 30.2158 18.9219ZM31.4736 18.5V18.9219C31.4736 19.0964 31.514 19.2591 31.5947 19.4102C31.6781 19.5586 31.8265 19.6328 32.04 19.6328C32.2692 19.6328 32.4215 19.5586 32.4971 19.4102C32.5752 19.2591 32.6143 19.0964 32.6143 18.9219V18.5C32.6143 18.3255 32.5778 18.1615 32.5049 18.0078C32.432 17.8516 32.277 17.7734 32.04 17.7734C31.8213 17.7734 31.6715 17.8529 31.5908 18.0117C31.5127 18.1706 31.4736 18.3333 31.4736 18.5ZM30.8057 25L36.3057 17H37.3721L31.8721 25H30.8057Z" fill="white"/>
<defs>
<linearGradient id="paint0_linear_239_162" x1="22" y1="0" x2="22" y2="44" gradientUnits="userSpaceOnUse">
<stop offset="0.0591628" stop-color="#FF3D00"/>
<stop offset="1" stop-color="#FF0000"/>
</linearGradient>
</defs>
</svg>
