<svg width="40" height="40" viewBox="0 0 40 40" fill="none" xmlns="http://www.w3.org/2000/svg">
<circle cx="20" cy="20" r="20" fill="#F00000"/>
<circle cx="20" cy="20" r="20" fill="url(#paint0_linear_369_252)" fill-opacity="0.5"/>
<path d="M22.8714 17.6054C24.889 17.6054 26.1306 14.7619 26.1306 12.966C26.1306 11.4694 25.3546 9.67346 23.8026 9.67346C21.7849 9.67346 20.5433 12.517 20.5433 14.3129C20.5433 15.8095 21.3193 17.6054 22.8714 17.6054ZM16.9737 17.6054C18.5257 17.6054 19.3017 15.8095 19.3017 14.3129C19.3017 12.3673 18.0601 9.5238 16.0424 9.5238C14.4904 9.5238 13.7144 11.3197 13.7144 12.8163C13.5592 14.7619 14.8008 17.6054 16.9737 17.6054ZM28.4587 16.1088C26.441 16.1088 25.0442 18.8027 25.0442 20.7483C25.0442 22.0952 25.665 23.4422 27.0618 23.4422C29.0795 23.4422 30.4763 20.7483 30.4763 18.8027C30.4763 17.4558 29.7003 16.1088 28.4587 16.1088ZM14.956 20.7483C14.956 18.8027 13.404 16.1088 11.5416 16.1088C10.1447 16.1088 9.52393 17.4558 9.52393 18.8027C9.52393 20.7483 11.076 23.4422 12.9384 23.4422C14.3352 23.4422 14.956 22.0952 14.956 20.7483ZM19.9225 20.449C16.8185 20.449 12.628 25.2381 12.628 28.5306C12.628 30.0272 13.7144 30.4762 14.956 30.4762C16.8185 30.4762 18.2153 29.2789 19.9225 29.2789C21.4745 29.2789 22.8714 30.4762 24.5786 30.4762C25.8202 30.4762 27.217 30.1769 27.217 28.5306C27.217 25.2381 23.0266 20.449 19.9225 20.449Z" fill="white"/>
<defs>
<linearGradient id="paint0_linear_369_252" x1="20" y1="0" x2="20" y2="40" gradientUnits="userSpaceOnUse">
<stop offset="0.0591628" stop-color="#FF3D00"/>
<stop offset="1" stop-color="#FF0000"/>
</linearGradient>
</defs>
</svg>
