<svg width="44" height="44" viewBox="0 0 44 44" fill="none" xmlns="http://www.w3.org/2000/svg">
<circle cx="22" cy="22" r="22" fill="#F00000"/>
<circle cx="22" cy="22" r="22" fill="url(#paint0_linear_239_147)" fill-opacity="0.5"/>
<path d="M14.1926 17.2727V26H12.0875V19.2415H12.0364L10.0847 20.4347V18.6108L12.2367 17.2727H14.1926ZM19.7314 26.2131C18.97 26.2131 18.3137 26.0327 17.7626 25.6719C17.2115 25.3082 16.7868 24.7869 16.4885 24.108C16.1902 23.4261 16.0424 22.6065 16.0453 21.6491C16.0481 20.6918 16.1973 19.8793 16.4927 19.2116C16.791 18.5412 17.2143 18.0312 17.7626 17.6818C18.3137 17.3295 18.97 17.1534 19.7314 17.1534C20.4927 17.1534 21.149 17.3295 21.7001 17.6818C22.2541 18.0312 22.6802 18.5412 22.9785 19.2116C23.2768 19.8821 23.4245 20.6946 23.4217 21.6491C23.4217 22.6094 23.2725 23.4304 22.9743 24.1122C22.676 24.794 22.2512 25.3153 21.7001 25.6761C21.1518 26.0341 20.4956 26.2131 19.7314 26.2131ZM19.7314 24.4872C20.1859 24.4872 20.5538 24.2557 20.835 23.7926C21.1163 23.3267 21.2555 22.6122 21.2527 21.6491C21.2527 21.0185 21.1887 20.4986 21.0609 20.0895C20.9331 19.6776 20.7555 19.3707 20.5282 19.169C20.301 18.9673 20.0353 18.8665 19.7314 18.8665C19.2797 18.8665 18.9146 19.0952 18.6362 19.5526C18.3578 20.0071 18.2172 20.706 18.2143 21.6491C18.2115 22.2884 18.2725 22.8182 18.3975 23.2386C18.5254 23.6591 18.7044 23.973 18.9345 24.1804C19.1646 24.3849 19.4302 24.4872 19.7314 24.4872ZM29.5176 24.3636V23.9034C29.5176 23.5455 29.5943 23.2145 29.7477 22.9105C29.9039 22.6065 30.1298 22.3622 30.4252 22.1776C30.7207 21.9929 31.0815 21.9006 31.5076 21.9006C31.9423 21.9006 32.3074 21.9929 32.6028 22.1776C32.9011 22.3594 33.1255 22.6023 33.2761 22.9062C33.4295 23.2074 33.5062 23.5398 33.5062 23.9034V24.3636C33.5062 24.7216 33.4295 25.0526 33.2761 25.3565C33.1227 25.6605 32.8968 25.9048 32.5985 26.0895C32.3002 26.2741 31.9366 26.3665 31.5076 26.3665C31.0758 26.3665 30.7122 26.2741 30.4167 26.0895C30.1213 25.9048 29.8968 25.6605 29.7434 25.3565C29.5929 25.0526 29.5176 24.7216 29.5176 24.3636ZM30.877 23.9034V24.3636C30.877 24.5455 30.921 24.7202 31.0091 24.8878C31.1 25.0554 31.2662 25.1392 31.5076 25.1392C31.7548 25.1392 31.921 25.0582 32.0062 24.8963C32.0914 24.7315 32.1341 24.554 32.1341 24.3636V23.9034C32.1341 23.7131 32.0929 23.5341 32.0105 23.3665C31.9309 23.196 31.7633 23.1108 31.5076 23.1108C31.269 23.1108 31.1042 23.196 31.0133 23.3665C30.9224 23.5341 30.877 23.7131 30.877 23.9034ZM24.992 19.3693V18.9091C24.992 18.5455 25.0701 18.2131 25.2264 17.9119C25.3855 17.608 25.6127 17.3651 25.9082 17.1832C26.2037 16.9986 26.5616 16.9062 26.9821 16.9062C27.4167 16.9062 27.7818 16.9986 28.0772 17.1832C28.3755 17.3651 28.6014 17.608 28.7548 17.9119C28.9082 18.2131 28.9849 18.5455 28.9849 18.9091V19.3693C28.9849 19.733 28.9068 20.0653 28.7505 20.3665C28.5971 20.6676 28.3713 20.9077 28.073 21.0866C27.7747 21.2656 27.411 21.3551 26.9821 21.3551C26.5531 21.3551 26.1895 21.2642 25.8912 21.0824C25.5957 20.9006 25.3713 20.6591 25.2179 20.358C25.0673 20.0568 24.992 19.7273 24.992 19.3693ZM26.3642 18.9091V19.3693C26.3642 19.5597 26.4082 19.7372 26.4963 19.902C26.5872 20.0639 26.7491 20.1449 26.9821 20.1449C27.2321 20.1449 27.3983 20.0639 27.4806 19.902C27.5659 19.7372 27.6085 19.5597 27.6085 19.3693V18.9091C27.6085 18.7187 27.5687 18.5398 27.4892 18.3722C27.4096 18.2017 27.2406 18.1165 26.9821 18.1165C26.7434 18.1165 26.5801 18.2031 26.492 18.3764C26.4068 18.5497 26.3642 18.7273 26.3642 18.9091ZM25.6355 26L31.6355 17.2727H32.7988L26.7988 26H25.6355Z" fill="white"/>
<defs>
<linearGradient id="paint0_linear_239_147" x1="22" y1="0" x2="22" y2="44" gradientUnits="userSpaceOnUse">
<stop offset="0.0591628" stop-color="#FF3D00"/>
<stop offset="1" stop-color="#FF0000"/>
</linearGradient>
</defs>
</svg>
