<svg width="40" height="40" viewBox="0 0 40 40" fill="none" xmlns="http://www.w3.org/2000/svg">
<circle cx="20" cy="20" r="20" fill="#F00000"/>
<circle cx="20" cy="20" r="20" fill="url(#paint0_linear_369_248)" fill-opacity="0.5"/>
<path d="M19.9999 30.4762C24.7332 30.4762 28.5713 26.4553 28.5713 21.4966C23.838 21.4966 19.9999 25.5175 19.9999 30.4762ZM13.9047 18.7528C13.9047 20.1297 14.9713 21.2472 16.2856 21.2472C16.7904 21.2472 17.2475 21.0875 17.638 20.8082L17.6189 20.9977C17.6189 22.3746 18.6856 23.4921 19.9999 23.4921C21.3142 23.4921 22.3808 22.3746 22.3808 20.9977L22.3618 20.8082C22.7428 21.0875 23.2094 21.2472 23.7142 21.2472C25.0285 21.2472 26.0951 20.1297 26.0951 18.7528C26.0951 17.7551 25.5332 16.907 24.7332 16.5079C25.5332 16.1088 26.0951 15.2608 26.0951 14.263C26.0951 12.8862 25.0285 11.7687 23.7142 11.7687C23.2094 11.7687 22.7523 11.9283 22.3618 12.2077L22.3808 12.0181C22.3808 10.6413 21.3142 9.5238 19.9999 9.5238C18.6856 9.5238 17.6189 10.6413 17.6189 12.0181L17.638 12.2077C17.257 11.9283 16.7904 11.7687 16.2856 11.7687C14.9713 11.7687 13.9047 12.8862 13.9047 14.263C13.9047 15.2608 14.4666 16.1088 15.2666 16.5079C14.4666 16.907 13.9047 17.7551 13.9047 18.7528ZM19.9999 14.0136C21.3142 14.0136 22.3808 15.1311 22.3808 16.5079C22.3808 17.8848 21.3142 19.0023 19.9999 19.0023C18.6856 19.0023 17.6189 17.8848 17.6189 16.5079C17.6189 15.1311 18.6856 14.0136 19.9999 14.0136ZM11.4285 21.4966C11.4285 26.4553 15.2666 30.4762 19.9999 30.4762C19.9999 25.5175 16.1618 21.4966 11.4285 21.4966Z" fill="white"/>
<defs>
<linearGradient id="paint0_linear_369_248" x1="20" y1="0" x2="20" y2="40" gradientUnits="userSpaceOnUse">
<stop offset="0.0591628" stop-color="#FF3D00"/>
<stop offset="1" stop-color="#FF0000"/>
</linearGradient>
</defs>
</svg>
