<svg width="42" height="42" viewBox="0 0 42 42" fill="none" xmlns="http://www.w3.org/2000/svg">
<circle cx="21" cy="21" r="20" stroke="white" stroke-width="2"/>
<path d="M26.8125 8H15.1877C13.9814 8 13 8.96656 13 10.1544V31.8455C13 33.0334 13.9815 34 15.1877 34H26.8125C28.0187 34 29 33.0333 29 31.8455V10.1544C29 8.96656 28.0187 8 26.8125 8ZM27.3733 31.8456C27.3733 32.1502 27.1217 32.3981 26.8125 32.3981H15.1877C14.8783 32.3981 14.6267 32.1502 14.6267 31.8456V10.1544C14.6267 9.84978 14.8785 9.602 15.1877 9.602H17.1894C17.2573 10.1542 17.7348 10.5823 18.3138 10.5823H23.6858C24.2655 10.5823 24.7424 10.1542 24.8104 9.602H26.8127C27.1218 9.602 27.3734 9.84978 27.3734 10.1544V31.8456H27.3733Z" fill="white"/>
</svg>
