<svg width="42" height="42" viewBox="0 0 42 42" fill="none" xmlns="http://www.w3.org/2000/svg">
<circle cx="21" cy="21" r="20" stroke="white" stroke-width="2"/>
<path d="M28.4457 28.4212L20.4331 27.2716L17.2933 24.0192C17.2932 24.0191 17.2931 24.0189 17.2929 24.0187C17.1767 23.898 17.1766 23.7018 17.292 23.582C17.368 23.5033 17.4568 23.4916 17.503 23.4916C17.5489 23.4916 17.6373 23.5033 17.7124 23.5813C17.7126 23.5815 17.7128 23.5816 17.713 23.5818L20.0868 26.0411C20.0869 26.0412 20.087 26.0412 20.0871 26.0414C20.0872 26.0415 20.0873 26.0416 20.0874 26.0416C20.0941 26.0487 20.1017 26.0545 20.1086 26.0615C20.1189 26.0713 20.1292 26.0816 20.1399 26.0906C20.4883 26.4243 20.9322 26.5931 21.3773 26.5931C21.8447 26.5931 22.3126 26.409 22.6689 26.0407C23.3799 25.3028 23.3797 24.1028 22.6684 23.3658L16.1516 16.6142C16.0218 16.4799 15.846 16.4044 15.6626 16.4044H8.69145C8.30949 16.4044 8 16.7251 8 17.1207C8 17.5163 8.30949 17.8371 8.69145 17.8371H15.3762L21.6905 24.3785C21.863 24.5574 21.8629 24.8489 21.691 25.0272C21.5183 25.2058 21.2369 25.2058 21.0642 25.0272C21.0639 25.0269 21.0635 25.0267 21.0633 25.0264L18.6917 22.5696C18.6916 22.5695 18.6915 22.5693 18.6913 22.5692C18.6911 22.569 18.6909 22.5689 18.6908 22.5687C18.6905 22.5684 18.6901 22.568 18.6898 22.5677C18.3731 22.2395 17.9515 22.0588 17.503 22.0588C17.0541 22.0588 16.6321 22.2398 16.3139 22.5691C15.677 23.2301 15.6625 24.2944 16.2667 24.9764C16.2708 24.9816 16.2756 24.9863 16.2797 24.9912C16.2914 25.0041 16.3017 25.0178 16.3137 25.0304C16.3139 25.0306 16.3141 25.0308 16.3144 25.0309L16.3145 25.031L19.6195 28.4547C19.726 28.565 19.8643 28.6363 20.0135 28.6578L28.2499 29.8393C28.4051 29.8631 28.6984 29.9705 28.6984 30.2077C28.6985 30.3372 28.6349 30.4223 28.597 30.4617C28.559 30.5011 28.4764 30.5673 28.3509 30.5673H19.1392L11.8077 22.9711C11.6781 22.8368 11.5022 22.7612 11.3187 22.7612H8.69145C8.30949 22.7612 8 23.082 8 23.4776C8 23.8732 8.30949 24.1939 8.69145 24.1939H11.0323L18.3638 31.7902C18.4935 31.9244 18.6694 32 18.8528 32H28.3509C28.8136 32 29.2484 31.8133 29.5754 31.4742C29.902 31.1354 30.0817 30.6851 30.0812 30.207C30.0813 29.3029 29.4112 28.5689 28.4457 28.4212Z" fill="white"/>
<path d="M29.7771 10C28.7271 10 27.6897 10.4041 26.8849 11.1059C26.0802 10.404 25.0431 10 23.9934 10C21.6254 10 19.7705 11.9217 19.7705 14.375C19.7705 17.288 22.1775 19.4976 25.5117 22.5522L26.3967 23.4665C26.5317 23.6059 26.7083 23.6755 26.885 23.6755C27.0615 23.6755 27.2381 23.6059 27.373 23.4668L28.259 22.5523C31.5929 19.4979 34 17.2881 34 14.375C34 11.9217 32.145 10 29.7771 10ZM27.3274 21.4932C27.3172 21.5026 27.3071 21.5123 27.2976 21.5223L26.8852 21.9478L26.4734 21.5225C26.4637 21.5124 26.4536 21.5026 26.4433 21.4931C23.0649 18.3979 21.1534 16.5412 21.1534 14.3749C21.1534 12.6975 22.3743 11.4326 23.9934 11.4326C24.8756 11.4326 25.7813 11.8708 26.3569 12.5761C26.4883 12.7371 26.6815 12.83 26.885 12.83C27.0885 12.83 27.2817 12.7372 27.4131 12.5761C27.9887 11.8708 28.8946 11.4326 29.7773 11.4326C31.3964 11.4326 32.6173 12.6975 32.6173 14.3749C32.6171 16.5414 30.7057 18.3981 27.3274 21.4932Z" fill="white"/>
</svg>
