<svg width="21" height="26" viewBox="0 0 21 26" fill="none" xmlns="http://www.w3.org/2000/svg">
<path d="M10.5 5.57129C9.55607 5.57129 8.63331 5.84359 7.84844 6.35375C7.06357 6.86392 6.45184 7.58903 6.0906 8.4374C5.72936 9.28577 5.63485 10.2193 5.819 11.1199C6.00316 12.0205 6.45772 12.8478 7.1252 13.4971C7.79267 14.1465 8.64309 14.5886 9.56891 14.7678C10.4947 14.9469 11.4544 14.855 12.3265 14.5036C13.1986 14.1522 13.944 13.5571 14.4684 12.7936C14.9928 12.0301 15.2728 11.1324 15.2728 10.2141C15.2713 8.98321 14.768 7.8031 13.8733 6.93269C12.9785 6.06229 11.7654 5.57269 10.5 5.57129ZM10.5 12.9999C9.93365 12.9999 9.38 12.8365 8.90907 12.5304C8.43815 12.2243 8.07111 11.7892 7.85437 11.2802C7.63763 10.7712 7.58092 10.2111 7.69141 9.67068C7.80191 9.1303 8.07464 8.63394 8.47513 8.24435C8.87561 7.85476 9.38587 7.58945 9.94136 7.48196C10.4968 7.37447 11.0726 7.42964 11.5959 7.64048C12.1192 7.85133 12.5664 8.20838 12.8811 8.66649C13.1957 9.12459 13.3637 9.66318 13.3637 10.2141C13.3628 10.9527 13.0608 11.6608 12.524 12.183C11.9871 12.7053 11.2592 12.999 10.5 12.9999Z" fill="black"/>
<path d="M10.5 0C7.71619 0.00305892 5.0473 1.08019 3.07885 2.99507C1.1104 4.90996 0.00314448 7.50623 0 10.2143C0 13.8585 1.7314 17.7216 5.00694 21.3861C6.48099 23.0419 8.13973 24.533 9.95258 25.8321C10.113 25.9414 10.3041 26 10.5 26C10.6959 26 10.887 25.9414 11.0474 25.8321C12.8603 24.533 14.519 23.0419 15.9931 21.3861C19.2686 17.7216 21 13.8585 21 10.2143C20.9969 7.50623 19.8896 4.90996 17.9211 2.99507C15.9527 1.08019 13.2838 0.00305892 10.5 0ZM10.5 23.9083C8.52729 22.4033 1.90909 16.8573 1.90909 10.2143C1.90909 7.99783 2.8142 5.87216 4.42531 4.30489C6.03642 2.73762 8.22155 1.85714 10.5 1.85714C12.7785 1.85714 14.9636 2.73762 16.5747 4.30489C18.1858 5.87216 19.0909 7.99783 19.0909 10.2143C19.0909 16.8573 12.4724 22.4035 10.5 23.9083Z" fill="black"/>
</svg>
