<svg width="21" height="26" viewBox="0 0 21 26" fill="none" xmlns="http://www.w3.org/2000/svg">
<path d="M10.5 5.57178C9.55607 5.57178 8.63331 5.84408 7.84844 6.35424C7.06357 6.8644 6.45184 7.58952 6.0906 8.43789C5.72936 9.28626 5.63485 10.2198 5.819 11.1204C6.00316 12.021 6.45772 12.8483 7.1252 13.4976C7.79267 14.1469 8.64309 14.5891 9.56891 14.7683C10.4947 14.9474 11.4544 14.8555 12.3265 14.5041C13.1986 14.1527 13.944 13.5576 14.4684 12.7941C14.9928 12.0306 15.2728 11.1329 15.2728 10.2146C15.2713 8.9837 14.768 7.80358 13.8733 6.93318C12.9785 6.06278 11.7654 5.57318 10.5 5.57178ZM10.5 13.0003C9.93365 13.0003 9.38 12.837 8.90907 12.5309C8.43815 12.2248 8.07111 11.7897 7.85437 11.2807C7.63763 10.7717 7.58092 10.2115 7.69141 9.67117C7.80191 9.13079 8.07464 8.63443 8.47513 8.24484C8.87561 7.85525 9.38587 7.58993 9.94136 7.48245C10.4968 7.37496 11.0726 7.43013 11.5959 7.64097C12.1192 7.85181 12.5664 8.20887 12.8811 8.66697C13.1957 9.12508 13.3637 9.66367 13.3637 10.2146C13.3628 10.9532 13.0608 11.6613 12.524 12.1835C11.9871 12.7057 11.2592 12.9995 10.5 13.0003Z" fill="white"/>
<path d="M10.5 0C7.71619 0.00305892 5.0473 1.08019 3.07885 2.99507C1.1104 4.90996 0.00314448 7.50623 0 10.2143C0 13.8585 1.7314 17.7216 5.00694 21.3861C6.48099 23.0419 8.13973 24.533 9.95258 25.8321C10.113 25.9414 10.3041 26 10.5 26C10.6959 26 10.887 25.9414 11.0474 25.8321C12.8603 24.533 14.519 23.0419 15.9931 21.3861C19.2686 17.7216 21 13.8585 21 10.2143C20.9969 7.50623 19.8896 4.90996 17.9211 2.99507C15.9527 1.08019 13.2838 0.00305892 10.5 0ZM10.5 23.9083C8.52729 22.4033 1.90909 16.8573 1.90909 10.2143C1.90909 7.99783 2.8142 5.87216 4.42531 4.30489C6.03642 2.73762 8.22155 1.85714 10.5 1.85714C12.7785 1.85714 14.9636 2.73762 16.5747 4.30489C18.1858 5.87216 19.0909 7.99783 19.0909 10.2143C19.0909 16.8573 12.4724 22.4035 10.5 23.9083Z" fill="white"/>
</svg>
