<svg width="19" height="24" viewBox="0 0 19 24" fill="none" xmlns="http://www.w3.org/2000/svg">
<path d="M5.02198 23.76H18.0486V10.3103H5.02198V23.76ZM17.01 22.846H6.06088V11.2242H17.01V22.846ZM4.60168 23.68V10.145L-1.71661e-05 0.186912L0.382483 20.8674L4.60168 23.68ZM3.56308 10.315V21.8412L1.41298 20.4077L1.13158 4.76758L3.56308 10.315ZM5.19448 9.79862H18.0012L13.3884 0H0.581984L5.19448 9.79862ZM16.4469 8.88466H5.88868L2.13568 0.914232H12.6942L16.4469 8.88466ZM6.12358 8.27587H15.2565L12.315 1.39577H3.18268L6.12358 8.27587ZM13.644 7.3619H6.79228L4.79488 2.31H11.646L13.644 7.3619ZM7.07518 14.6216H12.1521V12.1844H7.07488L7.07518 14.6216ZM11.1135 13.7077H8.11348V13.0984H11.1135V13.7077Z" fill="white"/>
</svg>
