<svg width="50" height="50" viewBox="0 0 50 50" fill="none" xmlns="http://www.w3.org/2000/svg">
<circle cx="25" cy="25" r="24" stroke="white" stroke-width="2"/>
<path fill-rule="evenodd" clip-rule="evenodd" d="M36.4283 22.452C35.9854 18 33.2998 11 24.9999 11C16.7 11 14.0143 18 13.5715 22.452C12.0179 23.0298 10.9932 24.4916 11 26.12V28.08C11 30.245 12.7909 32 15 32C17.2091 32 19 30.245 19 28.08V26.12C18.9928 24.5267 18.0057 23.095 16.5 22.494C16.7857 19.918 18.1857 13.8 24.9999 13.8C31.8141 13.8 33.1998 19.918 33.4855 22.494C31.9828 23.0963 31.0007 24.529 30.9998 26.12V28.08C31.006 29.585 31.8878 30.9546 33.2712 31.608C32.6712 32.714 31.1426 34.212 27.3855 34.66C26.6345 33.5424 25.1815 33.1018 23.9177 33.6084C22.6538 34.1151 21.9325 35.4274 22.196 36.7404C22.4596 38.0535 23.6344 39 24.9999 39C26.0789 38.9941 27.0625 38.393 27.5427 37.446C33.6712 36.76 35.6283 33.666 36.2426 31.846C37.9044 31.3184 39.0221 29.7918 38.9997 28.08V26.12C39.0065 24.4916 37.9818 23.0298 36.4283 22.452ZM16.1429 28.08C16.1429 28.6986 15.6312 29.2 15 29.2C14.3688 29.2 13.8572 28.6986 13.8572 28.08V26.12C13.8572 25.7199 14.075 25.3501 14.4286 25.1501C14.7822 24.95 15.2178 24.95 15.5714 25.1501C15.925 25.3501 16.1429 25.7199 16.1429 26.12V28.08ZM33.8569 26.12C33.8569 25.5014 34.3686 25 34.9997 25C35.6309 25 36.1426 25.5014 36.1426 26.12V28.08C36.1426 28.6986 35.6309 29.2 34.9997 29.2C34.3686 29.2 33.8569 28.6986 33.8569 28.08V26.12Z" fill="white"/>
</svg>
