<svg width="12" height="12" viewBox="0 0 12 12" fill="none" xmlns="http://www.w3.org/2000/svg">
<path d="M7.29248 8.18904L8.03134 7.44983C8.14505 7.33473 8.28044 7.24325 8.42965 7.18089C8.57893 7.11854 8.73903 7.08647 8.90075 7.08647C9.06252 7.08647 9.22262 7.11854 9.3719 7.18089C9.52111 7.24325 9.6565 7.33473 9.77016 7.44983L10.6368 8.31686C10.7518 8.43057 10.8432 8.5659 10.9056 8.71523C10.9679 8.86451 11 9.02479 11 9.18657C11 9.34841 10.9679 9.50863 10.9056 9.65796C10.8432 9.80724 10.7518 9.94257 10.6368 10.0563L10.2424 10.4564C9.97059 10.731 9.61911 10.9127 9.23801 10.9756C8.85692 11.0384 8.46571 10.9793 8.12022 10.8066C5.14717 9.27555 2.72558 6.85489 1.19273 3.88191C1.01992 3.53591 0.961241 3.14399 1.02513 2.76253C1.08901 2.38105 1.27217 2.02964 1.54828 1.75888L1.94269 1.35875C2.17375 1.12899 2.48631 1 2.8121 1C3.13789 1 3.45045 1.12899 3.68151 1.35875L4.5537 2.23132C4.78337 2.46248 4.91229 2.77513 4.91229 3.10105C4.91229 3.42697 4.78337 3.73962 4.5537 3.97078L3.81483 4.70998C4.30337 5.37107 4.84 5.99513 5.42033 6.57723C5.9973 7.15544 6.61761 7.68875 7.27581 8.17237L7.29248 8.18904Z" stroke="white" stroke-linecap="round" stroke-linejoin="round"/>
</svg>
