<svg width="10" height="10" viewBox="0 0 10 10" fill="none" xmlns="http://www.w3.org/2000/svg">
<g clip-path="url(#clip0_107_3471)">
<path d="M4.99988 0C2.23842 0.000136719 0.000234375 2.2384 0 4.99988C0.000234375 7.76135 2.23842 9.99961 4.99988 9.99977C7.76158 9.99961 9.99984 7.76135 10 4.99988C9.99984 2.2384 7.76158 0.000136719 4.99988 0ZM1.90639 1.90637C2.36225 1.45074 2.91734 1.09631 3.53637 0.876582C3.23982 1.23547 2.99262 1.69506 2.79893 2.2265H1.61664C1.70805 2.11527 1.80461 2.00816 1.90639 1.90637ZM1.28148 2.69525H2.6484C2.47246 3.31887 2.36695 4.02014 2.34834 4.76551H0.631387C0.671367 4.00762 0.904297 3.30238 1.28148 2.69525ZM1.28148 7.30451C0.904297 6.69738 0.671367 5.99215 0.631387 5.23426H2.34996C2.36873 5.97887 2.47125 6.68137 2.64695 7.30453L1.28148 7.30451ZM1.90639 8.09336C1.80461 7.99158 1.70803 7.88447 1.61662 7.77324H2.79969C2.88328 8.0032 2.97584 8.22137 3.07922 8.42188C3.21504 8.68434 3.36746 8.9193 3.53523 9.12285C2.91664 8.90312 2.36193 8.54869 1.90639 8.09336ZM4.76559 9.36838C4.69242 9.36455 4.61971 9.35906 4.54754 9.35158C4.4325 9.30002 4.31859 9.22951 4.20574 9.1375C3.86137 8.85705 3.54215 8.38221 3.29953 7.77324H4.76557V9.36838H4.76559ZM4.76559 7.30451H3.13598C2.95088 6.6957 2.83684 5.98984 2.81707 5.23424H4.76557V7.30451H4.76559ZM4.76559 4.76551H2.81855C2.83824 4.00945 2.95283 3.3042 3.13807 2.69525H4.76561L4.76559 4.76551ZM4.76559 2.2265H3.3017C3.36242 2.07436 3.42605 1.92744 3.49572 1.79301C3.70354 1.39018 3.94826 1.0725 4.20576 0.862227C4.31859 0.770234 4.4325 0.699727 4.54756 0.648164C4.61973 0.640703 4.69242 0.635195 4.76561 0.631387L4.76559 2.2265ZM8.71859 2.69525C9.09578 3.30238 9.32863 4.00764 9.36861 4.76551H7.65004C7.63127 4.0209 7.52875 3.3184 7.35297 2.69525H8.71859ZM8.09361 1.90637C8.19539 2.00814 8.29197 2.11527 8.38338 2.2265H7.20023C7.11662 1.99656 7.024 1.77836 6.9207 1.57787C6.7849 1.31543 6.63246 1.08045 6.46471 0.876895C7.08336 1.09676 7.63799 1.45107 8.09361 1.90637ZM5.23434 0.631387C5.3075 0.635195 5.38021 0.64084 5.4523 0.648164C5.56734 0.699902 5.68127 0.770234 5.79418 0.862227C6.13863 1.14268 6.45777 1.61752 6.70037 2.22648H5.23434V0.631387ZM5.23434 2.69525H6.86395C7.04902 3.30406 7.16316 4.0099 7.18285 4.76551H5.23434V2.69525ZM5.23434 5.23426H7.18131C7.16164 5.99031 7.04705 6.69555 6.8618 7.30453H5.23434V5.23426ZM5.79416 9.1375C5.68125 9.22951 5.56732 9.29986 5.45229 9.35158C5.3802 9.35891 5.30748 9.36455 5.23432 9.36838V7.77326H6.6982C6.63748 7.92539 6.57385 8.07232 6.5042 8.20676C6.29641 8.60957 6.05166 8.92725 5.79416 9.1375ZM8.09361 8.09336C7.63783 8.54898 7.0826 8.90344 6.46355 9.12314C6.76018 8.76426 7.00721 8.30469 7.201 7.77324H8.38338C8.29195 7.88449 8.19539 7.9916 8.09361 8.09336ZM8.71859 7.30451H7.35145C7.52738 6.6809 7.63297 5.97947 7.65158 5.23424H9.36861C9.32863 5.99215 9.09578 6.69738 8.71859 7.30451Z" fill="white"/>
</g>
<defs>
<clipPath id="clip0_107_3471">
<rect width="10" height="10" fill="white"/>
</clipPath>
</defs>
</svg>
