<svg width="50" height="50" viewBox="0 0 50 50" fill="none" xmlns="http://www.w3.org/2000/svg">
<circle cx="25" cy="25" r="24" stroke="white" stroke-width="2"/>
<g clip-path="url(#clip0_103_2946)">
<path d="M24.9997 12.0005C17.8199 12.0008 12.0006 17.8203 12 25.0002C12.0006 32.18 17.8199 37.9995 24.9997 37.9999C32.1801 37.9995 37.9996 32.18 38 25.0002C37.9996 17.8203 32.1801 12.0008 24.9997 12.0005ZM16.9566 16.957C18.1418 15.7724 19.5851 14.8509 21.1946 14.2796C20.4235 15.2127 19.7808 16.4076 19.2772 17.7894H16.2033C16.4409 17.5002 16.692 17.2217 16.9566 16.957ZM15.3319 19.0081H18.8858C18.4284 20.6295 18.1541 22.4528 18.1057 24.3908H13.6416C13.7456 22.4203 14.3512 20.5867 15.3319 19.0081ZM15.3319 30.9922C14.3512 29.4137 13.7456 27.5801 13.6416 25.6096H18.1099C18.1587 27.5455 18.4253 29.372 18.8821 30.9923L15.3319 30.9922ZM16.9566 33.0432C16.692 32.7786 16.4409 32.5001 16.2032 32.2109H19.2792C19.4965 32.8088 19.7372 33.376 20.006 33.8974C20.3591 34.5798 20.7554 35.1907 21.1916 35.7199C19.5833 35.1486 18.141 34.2271 16.9566 33.0432ZM24.3905 36.3583C24.2003 36.3483 24.0112 36.3341 23.8236 36.3146C23.5245 36.1805 23.2283 35.9972 22.9349 35.758C22.0396 35.0288 21.2096 33.7942 20.5788 32.2109H24.3905V36.3583H24.3905ZM24.3905 30.9922H20.1535C19.6723 29.4093 19.3758 27.5741 19.3244 25.6095H24.3905V30.9922H24.3905ZM24.3905 24.3908H19.3282C19.3794 22.4251 19.6774 20.5914 20.159 19.0081H24.3906L24.3905 24.3908ZM24.3905 17.7894H20.5844C20.7423 17.3938 20.9077 17.0118 21.0889 16.6623C21.6292 15.6149 22.2655 14.789 22.935 14.2423C23.2283 14.0031 23.5245 13.8198 23.8237 13.6857C24.0113 13.6663 24.2003 13.652 24.3906 13.6421L24.3905 17.7894ZM34.6683 19.0081C35.649 20.5867 36.2544 22.4203 36.3584 24.3908H31.8901C31.8413 22.4548 31.5747 20.6283 31.1177 19.0081H34.6683ZM33.0434 16.957C33.308 17.2217 33.5591 17.5002 33.7968 17.7894H30.7206C30.5032 17.1916 30.2624 16.6242 29.9938 16.103C29.6407 15.4206 29.2444 14.8097 28.8082 14.2804C30.4167 14.8521 31.8588 15.7733 33.0434 16.957ZM25.6093 13.6421C25.7995 13.652 25.9886 13.6667 26.176 13.6857C26.4751 13.8202 26.7713 14.0031 27.0649 14.2423C27.9604 14.9714 28.7902 16.206 29.421 17.7893H25.6093V13.6421ZM25.6093 19.0081H29.8463C30.3275 20.5911 30.6242 22.4262 30.6754 24.3908H25.6093V19.0081ZM25.6093 25.6096H30.6714C30.6203 27.5753 30.3223 29.4089 29.8407 30.9923H25.6093V25.6096ZM27.0648 35.758C26.7713 35.9972 26.475 36.1801 26.1759 36.3146C25.9885 36.3336 25.7994 36.3483 25.6092 36.3583V32.211H29.4153C29.2574 32.6065 29.092 32.9885 28.9109 33.3381C28.3707 34.3854 27.7343 35.2113 27.0648 35.758ZM33.0434 33.0432C31.8584 34.2278 30.4148 35.1494 28.8052 35.7207C29.5765 34.7876 30.2187 33.5927 30.7226 32.2109H33.7968C33.5591 32.5002 33.308 32.7787 33.0434 33.0432ZM34.6683 30.9922H31.1138C31.5712 29.3708 31.8457 27.5471 31.8941 25.6095H36.3584C36.2544 27.5801 35.649 29.4137 34.6683 30.9922Z" fill="white"/>
</g>
<defs>
<clipPath id="clip0_103_2946">
<rect width="26" height="26" fill="white" transform="translate(12 12)"/>
</clipPath>
</defs>
</svg>
