<svg width="27" height="27" viewBox="0 0 27 27" fill="none" xmlns="http://www.w3.org/2000/svg">
<path d="M21.7144 23.3572C21.7144 24.2645 22.4499 25 23.3572 25C24.2646 25 25.0001 24.2645 25.0001 23.3572C25.0001 22.4498 24.2646 21.7143 23.3572 21.7143C22.4499 21.7143 21.7144 22.4498 21.7144 23.3572Z" stroke="black" stroke-width="3" stroke-linecap="round" stroke-linejoin="round"/>
<path d="M11.8572 23.3572C11.8572 24.2645 12.5927 25 13.5 25C14.4074 25 15.1429 24.2645 15.1429 23.3572C15.1429 22.4498 14.4074 21.7143 13.5 21.7143C12.5927 21.7143 11.8572 22.4498 11.8572 23.3572Z" stroke="black" stroke-width="3" stroke-linecap="round" stroke-linejoin="round"/>
<path d="M2 23.3572C2 24.2645 2.73554 25 3.64286 25C4.55017 25 5.28571 24.2645 5.28571 23.3572C5.28571 22.4498 4.55017 21.7143 3.64286 21.7143C2.73554 21.7143 2 22.4498 2 23.3572Z" stroke="black" stroke-width="3" stroke-linecap="round" stroke-linejoin="round"/>
<path d="M21.7144 13.4999C21.7144 14.4073 22.4499 15.1428 23.3572 15.1428C24.2646 15.1428 25.0001 14.4073 25.0001 13.4999C25.0001 12.5926 24.2646 11.8571 23.3572 11.8571C22.4499 11.8571 21.7144 12.5926 21.7144 13.4999Z" stroke="black" stroke-width="3" stroke-linecap="round" stroke-linejoin="round"/>
<path d="M11.8572 13.4999C11.8572 14.4073 12.5927 15.1428 13.5 15.1428C14.4074 15.1428 15.1429 14.4073 15.1429 13.4999C15.1429 12.5926 14.4074 11.8571 13.5 11.8571C12.5927 11.8571 11.8572 12.5926 11.8572 13.4999Z" stroke="black" stroke-width="3" stroke-linecap="round" stroke-linejoin="round"/>
<path d="M2 13.4999C2 14.4073 2.73554 15.1428 3.64286 15.1428C4.55017 15.1428 5.28571 14.4073 5.28571 13.4999C5.28571 12.5926 4.55017 11.8571 3.64286 11.8571C2.73554 11.8571 2 12.5926 2 13.4999Z" stroke="black" stroke-width="3" stroke-linecap="round" stroke-linejoin="round"/>
<path d="M21.7144 3.64286C21.7144 4.55017 22.4499 5.28571 23.3572 5.28571C24.2646 5.28571 25.0001 4.55017 25.0001 3.64286C25.0001 2.73554 24.2646 2 23.3572 2C22.4499 2 21.7144 2.73554 21.7144 3.64286Z" stroke="black" stroke-width="3" stroke-linecap="round" stroke-linejoin="round"/>
<path d="M11.8572 3.64286C11.8572 4.55017 12.5927 5.28571 13.5 5.28571C14.4074 5.28571 15.1429 4.55017 15.1429 3.64286C15.1429 2.73554 14.4074 2 13.5 2C12.5927 2 11.8572 2.73554 11.8572 3.64286Z" stroke="black" stroke-width="3" stroke-linecap="round" stroke-linejoin="round"/>
<path d="M2 3.64286C2 4.55017 2.73554 5.28571 3.64286 5.28571C4.55017 5.28571 5.28571 4.55017 5.28571 3.64286C5.28571 2.73554 4.55017 2 3.64286 2C2.73554 2 2 2.73554 2 3.64286Z" stroke="black" stroke-width="3" stroke-linecap="round" stroke-linejoin="round"/>
</svg>
