<svg width="50" height="50" viewBox="0 0 50 50" fill="none" xmlns="http://www.w3.org/2000/svg">
<circle cx="25" cy="25" r="24" stroke="white" stroke-width="2"/>
<path d="M38 27L30.4167 34L14.1667 34C12.9663 34 12 33.108 12 32L12 18C12 16.892 12.9663 16 14.1667 16L35.8333 16C37.0337 16 38 16.892 38 18L38 27ZM27.1667 29.5V28.5H22.8333V31.5H25C26.2003 31.5 27.1667 30.608 27.1667 29.5ZM27.1667 27.5V25.5L22.8333 25.5V27.5H27.1667ZM27.1667 24.5V22.5L22.8333 22.5V24.5L27.1667 24.5ZM27.1667 21.5V20.5C27.1667 19.392 26.2003 18.5 25 18.5H22.8333V21.5L27.1667 21.5ZM21.75 31.5L21.75 18.5L16.3333 18.5C15.133 18.5 14.1667 19.392 14.1667 20.5V21.5H18.5L19.5833 21.5L19.5833 31.5H21.75ZM18.5 31.5V28.5L14.1667 28.5V29.5C14.1667 30.608 15.133 31.5 16.3333 31.5H18.5ZM18.5 27.5L18.5 25.5H14.1667L14.1667 27.5L18.5 27.5ZM18.5 24.5V22.5H14.1667V24.5H18.5Z" fill="white"/>
</svg>
