<svg width="27" height="27" viewBox="0 0 27 27" fill="none" xmlns="http://www.w3.org/2000/svg">
<path d="M21.7144 23.3572C21.7144 24.2646 22.4499 25.0001 23.3572 25.0001C24.2646 25.0001 25.0001 24.2646 25.0001 23.3572C25.0001 22.4499 24.2646 21.7144 23.3572 21.7144C22.4499 21.7144 21.7144 22.4499 21.7144 23.3572Z" fill="#FF0000" stroke="#FF0000" stroke-width="3" stroke-linecap="round" stroke-linejoin="round"/>
<path d="M11.8572 23.3572C11.8572 24.2646 12.5927 25.0001 13.5 25.0001C14.4074 25.0001 15.1429 24.2646 15.1429 23.3572C15.1429 22.4499 14.4074 21.7144 13.5 21.7144C12.5927 21.7144 11.8572 22.4499 11.8572 23.3572Z" fill="#FF0000" stroke="#FF0000" stroke-width="3" stroke-linecap="round" stroke-linejoin="round"/>
<path d="M2 23.3572C2 24.2646 2.73554 25.0001 3.64286 25.0001C4.55017 25.0001 5.28571 24.2646 5.28571 23.3572C5.28571 22.4499 4.55017 21.7144 3.64286 21.7144C2.73554 21.7144 2 22.4499 2 23.3572Z" fill="#FF0000" stroke="#FF0000" stroke-width="3" stroke-linecap="round" stroke-linejoin="round"/>
<path d="M21.7144 13.4998C21.7144 14.4071 22.4499 15.1426 23.3572 15.1426C24.2646 15.1426 25.0001 14.4071 25.0001 13.4998C25.0001 12.5924 24.2646 11.8569 23.3572 11.8569C22.4499 11.8569 21.7144 12.5924 21.7144 13.4998Z" fill="#FF0000" stroke="#FF0000" stroke-width="3" stroke-linecap="round" stroke-linejoin="round"/>
<path d="M11.8572 13.4998C11.8572 14.4071 12.5927 15.1426 13.5 15.1426C14.4074 15.1426 15.1429 14.4071 15.1429 13.4998C15.1429 12.5924 14.4074 11.8569 13.5 11.8569C12.5927 11.8569 11.8572 12.5924 11.8572 13.4998Z" fill="#FF0000" stroke="#FF0000" stroke-width="3" stroke-linecap="round" stroke-linejoin="round"/>
<path d="M2 13.4998C2 14.4071 2.73554 15.1426 3.64286 15.1426C4.55017 15.1426 5.28571 14.4071 5.28571 13.4998C5.28571 12.5924 4.55017 11.8569 3.64286 11.8569C2.73554 11.8569 2 12.5924 2 13.4998Z" fill="#FF0000" stroke="#FF0000" stroke-width="3" stroke-linecap="round" stroke-linejoin="round"/>
<path d="M21.7144 3.64286C21.7144 4.55017 22.4499 5.28571 23.3572 5.28571C24.2646 5.28571 25.0001 4.55017 25.0001 3.64286C25.0001 2.73554 24.2646 2 23.3572 2C22.4499 2 21.7144 2.73554 21.7144 3.64286Z" fill="#FF0000" stroke="#FF0000" stroke-width="3" stroke-linecap="round" stroke-linejoin="round"/>
<path d="M11.8572 3.64286C11.8572 4.55017 12.5927 5.28571 13.5 5.28571C14.4074 5.28571 15.1429 4.55017 15.1429 3.64286C15.1429 2.73554 14.4074 2 13.5 2C12.5927 2 11.8572 2.73554 11.8572 3.64286Z" fill="#FF0000" stroke="#FF0000" stroke-width="3" stroke-linecap="round" stroke-linejoin="round"/>
<path d="M2 3.64286C2 4.55017 2.73554 5.28571 3.64286 5.28571C4.55017 5.28571 5.28571 4.55017 5.28571 3.64286C5.28571 2.73554 4.55017 2 3.64286 2C2.73554 2 2 2.73554 2 3.64286Z" fill="#FF0000" stroke="#FF0000" stroke-width="3" stroke-linecap="round" stroke-linejoin="round"/>
</svg>
