<svg width="22" height="24" viewBox="0 0 22 24" fill="none" xmlns="http://www.w3.org/2000/svg">
<path d="M22 0H0V21.3451H2.63158V24H19.3684V21.3451H22V0ZM1.78947 2.44248H15.1579V12.2124H1.78947V2.44248ZM10.5938 17.8407L10.5965 18.1936C10.4265 18.2434 10.2741 18.3242 10.1423 18.4348C9.89337 18.6424 9.76295 18.9235 9.76505 19.247C9.76663 19.5305 9.87284 19.7811 10.0731 19.9727C10.2585 20.1478 10.5332 20.2792 10.8892 20.3626C11.2291 20.443 11.3848 20.5267 11.4553 20.5823C11.5349 20.6458 11.5704 20.7245 11.5704 20.8373C11.5704 20.9877 11.53 21.0937 11.4428 21.1713C11.3498 21.2545 11.2093 21.2976 11.0262 21.2992C10.8439 21.2992 10.7684 21.2599 10.6752 21.1754C10.5869 21.0983 10.5447 20.989 10.5421 20.8281L10.5349 20.6242L9.73032 20.6269L9.70789 20.9157L9.70821 20.9243C9.71684 21.2169 9.84958 21.4766 10.1049 21.6987C10.2766 21.8419 10.4236 21.9413 10.6164 21.9964L10.6191 22.407H4.21053V17.8406H10.5938V17.8407ZM17.7895 22.4071H11.4569L11.4539 21.9954C11.6656 21.9401 11.8488 21.844 11.9988 21.7099C12.2653 21.4803 12.3994 21.1823 12.3973 20.8252C12.3973 20.5255 12.2814 20.2613 12.0617 20.0608C11.8562 19.875 11.5508 19.733 11.1534 19.6387C10.8558 19.5699 10.7328 19.4928 10.6845 19.4517C10.6222 19.4001 10.5933 19.3325 10.5933 19.2378C10.5923 19.1197 10.6224 19.0436 10.6954 18.9822C10.7734 18.915 10.8981 18.8795 11.0663 18.8795C11.2038 18.8795 11.2478 18.9063 11.3219 18.9719C11.3917 19.0337 11.4372 19.1411 11.4578 19.295L11.4861 19.4722L12.2934 19.4672L12.2856 19.2484C12.2674 18.9029 12.136 18.6246 11.8935 18.4199C11.748 18.3003 11.6183 18.2171 11.4328 18.1707L11.4313 17.8407H17.7895V22.4071ZM20.2105 18.4779H19.3684V16.2478H2.63158V18.4779H1.78947V15.0796H20.2105V18.4779ZM20.2105 12.1062H16.8421V9.76991H20.2105V12.1062ZM20.2105 8.38938H16.8421V6.15929H20.2105V8.38938ZM20.2105 4.67257H16.8421V2.44248H20.2105V4.67257Z" fill="white"/>
</svg>
