<svg width="40" height="40" viewBox="0 0 40 40" fill="none" xmlns="http://www.w3.org/2000/svg">
<circle cx="20" cy="20" r="19" stroke="white" stroke-width="2"/>
<path d="M14.1667 25.8333L25.8334 14.1666" stroke="white" stroke-width="2" stroke-linecap="round" stroke-linejoin="round"/>
<path d="M24.6666 27C25.9552 27 26.9999 25.9554 26.9999 24.6667C26.9999 23.378 25.9552 22.3334 24.6666 22.3334C23.3779 22.3334 22.3333 23.378 22.3333 24.6667C22.3333 25.9554 23.3779 27 24.6666 27Z" stroke="white" stroke-width="2"/>
<path d="M15.3333 17.6667C16.622 17.6667 17.6667 16.622 17.6667 15.3333C17.6667 14.0447 16.622 13 15.3333 13C14.0447 13 13 14.0447 13 15.3333C13 16.622 14.0447 17.6667 15.3333 17.6667Z" stroke="white" stroke-width="2"/>
</svg>
