<svg width="40" height="40" viewBox="0 0 40 40" fill="none" xmlns="http://www.w3.org/2000/svg">
<circle cx="20" cy="20" r="19" stroke="white" stroke-width="2"/>
<g clip-path="url(#clip0_239_132)">
<path d="M24.7143 14H13.2857C12.0233 14 11 14.8954 11 16V22C11 23.1046 12.0233 24 13.2857 24H24.7143C25.9767 24 27 23.1046 27 22V16C27 14.8954 25.9767 14 24.7143 14Z" stroke="white" stroke-width="2" stroke-linecap="round"/>
<path d="M30 17V25.8C30 27.0151 29.0406 28 27.8571 28H15" stroke="white" stroke-width="2" stroke-linecap="round"/>
<path d="M19 21C20.1046 21 21 20.1046 21 19C21 17.8954 20.1046 17 19 17C17.8954 17 17 17.8954 17 19C17 20.1046 17.8954 21 19 21Z" stroke="white" stroke-width="2" stroke-linecap="round"/>
</g>
<defs>
<clipPath id="clip0_239_132">
<rect width="24" height="24" fill="white" transform="translate(8 8)"/>
</clipPath>
</defs>
</svg>
