<svg width="40" height="40" viewBox="0 0 40 40" fill="none" xmlns="http://www.w3.org/2000/svg">
<circle cx="20" cy="20" r="19" stroke="white" stroke-width="2"/>
<path d="M10 16.6667H30M14.4444 10V12.2222M25.5556 10V12.2222M13.3333 20H15.5556M18.8889 20H21.1111M24.4444 20H26.6667M13.3333 23.3333H15.5556M18.8889 23.3333H21.1111M24.4444 23.3333H26.6667M13.3333 26.6667H15.5556M18.8889 26.6667H21.1111M24.4444 26.6667H26.6667M13.5556 30H26.4444C27.689 30 28.3113 30 28.7867 29.7578C29.2048 29.5448 29.5448 29.2048 29.7578 28.7867C30 28.3113 30 27.689 30 26.4444V15.7778C30 14.5332 30 13.9109 29.7578 13.4356C29.5448 13.0174 29.2048 12.6775 28.7867 12.4644C28.3113 12.2222 27.689 12.2222 26.4444 12.2222H13.5556C12.311 12.2222 11.6887 12.2222 11.2134 12.4644C10.7952 12.6775 10.4553 13.0174 10.2422 13.4356C10 13.9109 10 14.5332 10 15.7778V26.4444C10 27.689 10 28.3113 10.2422 28.7867C10.4553 29.2048 10.7952 29.5448 11.2134 29.7578C11.6887 30 12.311 30 13.5556 30Z" stroke="white" stroke-width="2" stroke-linecap="round"/>
</svg>
