<svg width="36" height="28" viewBox="0 0 36 28" fill="none" xmlns="http://www.w3.org/2000/svg">
<path d="M31.36 4.48V3.36C31.36 1.456 29.904 0 28 0H3.36C1.456 0 0 1.456 0 3.36V4.48H31.36Z" fill="black"/>
<path d="M33.6 17.024V13.44C33.6 10.304 31.136 7.84 28 7.84C24.864 7.84 22.4 10.304 22.4 13.44V17.024C21.056 17.472 20.16 18.704 20.16 20.16V24.64C20.16 26.544 21.616 28 23.52 28H32.48C34.384 28 35.84 26.544 35.84 24.64V20.16C35.84 18.704 34.944 17.472 33.6 17.024ZM24.64 13.44C24.64 11.536 26.096 10.08 28 10.08C29.904 10.08 31.36 11.536 31.36 13.44V16.8H24.64V13.44ZM29.12 23.52C29.12 24.192 28.672 24.64 28 24.64C27.328 24.64 26.88 24.192 26.88 23.52V21.28C26.88 20.608 27.328 20.16 28 20.16C28.672 20.16 29.12 20.608 29.12 21.28V23.52Z" fill="black"/>
<path d="M17.92 20.16C17.92 18.928 18.368 17.696 19.04 16.8C17.136 16.8 15.68 15.344 15.68 13.44C15.68 11.536 17.136 10.08 19.04 10.08C19.6 10.08 20.16 10.192 20.72 10.528C21.392 8.95997 22.512 7.61597 23.968 6.71997H0V17.92C0 19.824 1.456 21.28 3.36 21.28H17.92V20.16ZM7.84 16.8H5.6C4.928 16.8 4.48 16.352 4.48 15.68C4.48 15.008 4.928 14.56 5.6 14.56H7.84C8.512 14.56 8.96 15.008 8.96 15.68C8.96 16.352 8.512 16.8 7.84 16.8ZM11.2 13.44H5.6C4.928 13.44 4.48 12.992 4.48 12.32C4.48 11.648 4.928 11.2 5.6 11.2H11.2C11.872 11.2 12.32 11.648 12.32 12.32C12.32 12.992 11.872 13.44 11.2 13.44Z" fill="black"/>
</svg>
