<svg width="52" height="52" viewBox="0 0 52 52" fill="none" xmlns="http://www.w3.org/2000/svg">
<circle cx="26" cy="26" r="25" stroke="white" stroke-width="2"/>
<path d="M26 29.3333V32M19.125 23.3717C19.7732 23.3333 20.5723 23.3333 21.6 23.3333H30.4C31.4277 23.3333 32.2268 23.3333 32.875 23.3717M19.125 23.3717C18.3161 23.4196 17.7421 23.5273 17.2523 23.7693C16.4761 24.1528 15.8451 24.7647 15.4496 25.5173C15 26.3731 15 27.4931 15 29.7333V31.6C15 33.8403 15 34.9603 15.4496 35.816C15.8451 36.5687 16.4761 37.1805 17.2523 37.564C18.1347 38 19.2898 38 21.6 38H30.4C32.7103 38 33.8653 38 34.7477 37.564C35.5239 37.1805 36.1549 36.5687 36.5504 35.816C37 34.9603 37 33.8403 37 31.6V29.7333C37 27.4931 37 26.3731 36.5504 25.5173C36.1549 24.7647 35.5239 24.1528 34.7477 23.7693C34.2578 23.5273 33.6839 23.4196 32.875 23.3717M19.125 23.3717V20.6667C19.125 16.9848 22.203 14 26 14C29.7969 14 32.875 16.9848 32.875 20.6667V23.3717" stroke="white" stroke-width="2" stroke-linecap="round" stroke-linejoin="round"/>
</svg>
