<svg width="52" height="52" viewBox="0 0 52 52" fill="none" xmlns="http://www.w3.org/2000/svg">
<circle cx="26" cy="26" r="25" stroke="white" stroke-width="2"/>
<path d="M15.2293 16H36.7703C37.9946 16 39 17.0094 39 18.2384V33.7616C39 34.9906 37.9943 36 36.7703 36H15.2293C14.0054 36 13 34.9906 13 33.7616V18.2384C13 17.0094 14.0054 16 15.2293 16ZM14.2997 19.6384H37.7V18.2384C37.7 17.7227 37.2837 17.3051 36.7703 17.3051H15.2293C14.716 17.3051 14.2997 17.7227 14.2997 18.2384V19.6384ZM37.7 21.8456H14.2997V33.7616C14.2997 34.2773 14.716 34.6949 15.2293 34.6949H36.7703C37.2837 34.6949 37.7 34.2773 37.7 33.7616V21.8456ZM29.9189 27.7802H35.3786C35.7377 27.7802 36.0288 28.0725 36.0288 28.4329V32.4132C36.0288 32.7736 35.7377 33.0656 35.3786 33.0656H29.9189C29.5602 33.0656 29.2691 32.7736 29.2691 32.4132V28.4329C29.2691 28.0725 29.5602 27.7802 29.9189 27.7802ZM34.7288 29.0853H30.569V31.7608H34.7288V29.0853ZM16.4448 27.4773C15.59 27.4773 15.59 26.1725 16.4448 26.1725H23.1692C24.024 26.1725 24.024 27.4773 23.1692 27.4773H16.4448ZM16.4448 25.0107C15.59 25.0107 15.59 23.7057 16.4448 23.7057H23.1692C24.024 23.7057 24.024 25.0107 23.1692 25.0107H16.4448Z" fill="white"/>
</svg>
