<svg width="46" height="46" viewBox="0 0 46 46" fill="none" xmlns="http://www.w3.org/2000/svg">
<circle cx="23" cy="23" r="22" stroke="white" stroke-width="2"/>
<g clip-path="url(#clip0_118_1451)">
<path d="M27.7143 17H16.2857C15.0233 17 14 17.8954 14 19V25C14 26.1046 15.0233 27 16.2857 27H27.7143C28.9767 27 30 26.1046 30 25V19C30 17.8954 28.9767 17 27.7143 17Z" stroke="white" stroke-width="2" stroke-linecap="round"/>
<path d="M33 20V28.8C33 30.0151 32.0406 31 30.8571 31H18" stroke="white" stroke-width="2" stroke-linecap="round"/>
<path d="M22 24C23.1046 24 24 23.1046 24 22C24 20.8954 23.1046 20 22 20C20.8954 20 20 20.8954 20 22C20 23.1046 20.8954 24 22 24Z" stroke="white" stroke-width="2" stroke-linecap="round"/>
</g>
<defs>
<clipPath id="clip0_118_1451">
<rect width="24" height="24" fill="white" transform="translate(11 11)"/>
</clipPath>
</defs>
</svg>
