<svg width="46" height="46" viewBox="0 0 46 46" fill="none" xmlns="http://www.w3.org/2000/svg">
<circle cx="23" cy="23" r="22" stroke="white" stroke-width="2"/>
<path d="M13.8864 15H32.1134C33.1493 15 34 15.8075 34 16.7907V29.2093C34 30.1925 33.149 31 32.1134 31H13.8864C12.8507 31 12 30.1925 12 29.2093V16.7907C12 15.8075 12.8507 15 13.8864 15ZM13.0997 17.9107H32.9V16.7907C32.9 16.3782 32.5477 16.0441 32.1134 16.0441H13.8864C13.452 16.0441 13.0997 16.3782 13.0997 16.7907V17.9107ZM32.9 19.6765H13.0997V29.2093C13.0997 29.6218 13.452 29.9559 13.8864 29.9559H32.1134C32.5477 29.9559 32.9 29.6218 32.9 29.2093V19.6765ZM26.316 24.4242H30.9358C31.2396 24.4242 31.4859 24.658 31.4859 24.9463V28.1305C31.4859 28.4189 31.2396 28.6524 30.9358 28.6524H26.316C26.0124 28.6524 25.7661 28.4189 25.7661 28.1305V24.9463C25.7661 24.658 26.0124 24.4242 26.316 24.4242ZM30.3859 25.4682H26.8661V27.6086H30.3859V25.4682ZM14.9148 24.1818C14.1915 24.1818 14.1915 23.138 14.9148 23.138H20.6047C21.328 23.138 21.328 24.1818 20.6047 24.1818H14.9148ZM14.9148 22.2086C14.1915 22.2086 14.1915 21.1645 14.9148 21.1645H20.6047C21.328 21.1645 21.328 22.2086 20.6047 22.2086H14.9148Z" fill="white"/>
</svg>
