<svg width="36" height="28" viewBox="0 0 36 28" fill="none" xmlns="http://www.w3.org/2000/svg">
<path d="M31.36 4.48V3.36C31.36 1.456 29.904 0 28 0H3.36C1.456 0 0 1.456 0 3.36V4.48H31.36Z" fill="#FF0000"/>
<path d="M33.6 17.0238V13.4398C33.6 10.3038 31.136 7.83984 28 7.83984C24.864 7.83984 22.4 10.3038 22.4 13.4398V17.0238C21.056 17.4718 20.16 18.7038 20.16 20.1598V24.6398C20.16 26.5438 21.616 27.9998 23.52 27.9998H32.48C34.384 27.9998 35.84 26.5438 35.84 24.6398V20.1598C35.84 18.7038 34.944 17.4718 33.6 17.0238ZM24.64 13.4398C24.64 11.5358 26.096 10.0798 28 10.0798C29.904 10.0798 31.36 11.5358 31.36 13.4398V16.7998H24.64V13.4398ZM29.12 23.5198C29.12 24.1918 28.672 24.6398 28 24.6398C27.328 24.6398 26.88 24.1918 26.88 23.5198V21.2798C26.88 20.6078 27.328 20.1598 28 20.1598C28.672 20.1598 29.12 20.6078 29.12 21.2798V23.5198Z" fill="#FF0000"/>
<path d="M17.92 20.1597C17.92 18.9277 18.368 17.6957 19.04 16.7997C17.136 16.7997 15.68 15.3437 15.68 13.4397C15.68 11.5357 17.136 10.0797 19.04 10.0797C19.6 10.0797 20.16 10.1917 20.72 10.5277C21.392 8.95973 22.512 7.61573 23.968 6.71973H0V17.9197C0 19.8237 1.456 21.2797 3.36 21.2797H17.92V20.1597ZM7.84 16.7997H5.6C4.928 16.7997 4.48 16.3517 4.48 15.6797C4.48 15.0077 4.928 14.5597 5.6 14.5597H7.84C8.512 14.5597 8.96 15.0077 8.96 15.6797C8.96 16.3517 8.512 16.7997 7.84 16.7997ZM11.2 13.4397H5.6C4.928 13.4397 4.48 12.9917 4.48 12.3197C4.48 11.6477 4.928 11.1997 5.6 11.1997H11.2C11.872 11.1997 12.32 11.6477 12.32 12.3197C12.32 12.9917 11.872 13.4397 11.2 13.4397Z" fill="#FF0000"/>
</svg>
