<svg width="22" height="24" viewBox="0 0 22 24" fill="none" xmlns="http://www.w3.org/2000/svg">
<path d="M11 15.0556V17.5M4.75 9.59076C5.33927 9.55556 6.06574 9.55556 7 9.55556H15C15.9342 9.55556 16.6608 9.55556 17.25 9.59076M4.75 9.59076C4.0146 9.63463 3.49286 9.73339 3.04754 9.95522C2.34193 10.3067 1.76825 10.8676 1.40873 11.5576C1 12.342 1 13.3686 1 15.4222V17.1333C1 19.1869 1 20.2136 1.40873 20.998C1.76825 21.6879 2.34193 22.2488 3.04754 22.6003C3.8497 23 4.8998 23 7 23H15C17.1002 23 18.1502 23 18.9525 22.6003C19.6581 22.2488 20.2318 21.6879 20.5913 20.998C21 20.2136 21 19.1869 21 17.1333V15.4222C21 13.3686 21 12.342 20.5913 11.5576C20.2318 10.8676 19.6581 10.3067 18.9525 9.95522C18.5071 9.73339 17.9854 9.63463 17.25 9.59076M4.75 9.59076V7.11111C4.75 3.73604 7.54822 1 11 1C14.4517 1 17.25 3.73604 17.25 7.11111V9.59076" stroke="white" stroke-width="2" stroke-linecap="round" stroke-linejoin="round"/>
</svg>
