<svg width="53" height="57" viewBox="0 0 53 57" fill="none" xmlns="http://www.w3.org/2000/svg">
<path d="M26.5 35.8611V41.75M11.1875 22.6959C12.6312 22.6111 14.4111 22.6111 16.7 22.6111H36.3C38.5889 22.6111 40.3688 22.6111 41.8125 22.6959M11.1875 22.6959C9.38577 22.8016 8.10751 23.0395 7.01647 23.5739C5.28772 24.4208 3.88221 25.772 3.00138 27.4341C2 29.3239 2 31.7972 2 36.7444V40.8667C2 45.8139 2 48.2873 3.00138 50.177C3.88221 51.8391 5.28772 53.1903 7.01647 54.0372C8.98177 55 11.5545 55 16.7 55H36.3C41.4456 55 44.0181 55 45.9836 54.0372C47.7124 53.1903 49.1178 51.8391 49.9986 50.177C51 48.2873 51 45.8139 51 40.8667V36.7444C51 31.7972 51 29.3239 49.9986 27.4341C49.1178 25.772 47.7124 24.4208 45.9836 23.5739C44.8925 23.0395 43.6142 22.8016 41.8125 22.6959M11.1875 22.6959V16.7222C11.1875 8.59137 18.0432 2 26.5 2C34.9568 2 41.8125 8.59137 41.8125 16.7222V22.6959" stroke="white" stroke-width="4" stroke-linecap="round" stroke-linejoin="round"/>
</svg>
