<svg width="30" height="30" viewBox="0 0 30 30" fill="none" xmlns="http://www.w3.org/2000/svg">
<path d="M22.7268 23.2031C18.278 27.3408 11.3049 27.2676 6.975 22.969C5.27067 21.2843 4.15673 19.0937 3.79939 16.7241L0 16.8503C0.401669 20.1769 1.91744 23.2695 4.30061 25.625C10.0994 31.3851 19.4634 31.4546 25.3939 25.85L28.5988 29.0346L29.1494 18.9557L18.4774 18.9832L22.7268 23.2031ZM0.85061 11.0445L11.5226 11.017L7.275 6.79708C11.7274 2.65944 18.7006 2.73261 23.0268 7.03122C24.7316 8.7156 25.8456 10.9063 26.2024 13.2761L30 13.1499C29.5978 9.82334 28.0829 6.73043 25.7012 4.3734C19.8988 -1.38491 10.5348 -1.45442 4.60793 4.15023L1.39939 0.965605L0.85061 11.0445Z" fill="white"/>
</svg>
