<svg width="52" height="52" viewBox="0 0 52 52" fill="none" xmlns="http://www.w3.org/2000/svg">
<rect width="52" height="52" rx="12" fill="url(#paint0_linear_22_663)"/>
<path d="M7.26202 16H29.1186C30.3608 16 31.381 17.0202 31.381 18.2623V33.9516C31.381 35.1938 30.3605 36.214 29.1186 36.214H7.26202C6.02016 36.214 5 35.1938 5 33.9516V18.2623C5 17.0202 6.02016 16 7.26202 16ZM6.31872 19.6773H30.0619V18.2623C30.0619 17.7411 29.6395 17.319 29.1186 17.319H7.26202C6.74114 17.319 6.31872 17.7411 6.31872 18.2623V19.6773ZM30.0619 21.9082H6.31872V33.9516C6.31872 34.4728 6.74114 34.8949 7.26202 34.8949H29.1186C29.6395 34.8949 30.0619 34.4728 30.0619 33.9516V21.9082ZM22.1668 27.9062H27.7065C28.0708 27.9062 28.3662 28.2016 28.3662 28.5659V32.5888C28.3662 32.9531 28.0708 33.2481 27.7065 33.2481H22.1668C21.8028 33.2481 21.5074 32.9531 21.5074 32.5888V28.5659C21.5074 28.2016 21.8028 27.9062 22.1668 27.9062ZM27.0472 29.2253H22.8265V31.9294H27.0472V29.2253ZM8.49529 27.6001C7.6279 27.6001 7.6279 26.2813 8.49529 26.2813H15.3182C16.1856 26.2813 16.1856 27.6001 15.3182 27.6001H8.49529ZM8.49529 25.1071C7.6279 25.1071 7.6279 23.7881 8.49529 23.7881H15.3182C16.1856 23.7881 16.1856 25.1071 15.3182 25.1071H8.49529Z" fill="black"/>
<path d="M46.9413 25.8218C46.9997 25.6753 47.015 25.5141 46.9852 25.3586C46.9554 25.2031 46.8818 25.0603 46.7737 24.9482L42.9135 20.9412L41.8218 22.0744L44.3642 24.7134H34.6472V26.3162H46.2279C46.3806 26.3163 46.5299 26.2693 46.6568 26.1813C46.7838 26.0933 46.8828 25.9682 46.9413 25.8218ZM34.7059 28.4135C34.6474 28.56 34.6321 28.7212 34.662 28.8767C34.6918 29.0322 34.7654 29.175 34.8734 29.2871L38.7336 33.2941L39.8253 32.1609L37.283 29.5219H46.9999V27.9191H35.4192C35.2665 27.9189 35.1172 27.9658 34.9902 28.0539C34.8632 28.1419 34.7643 28.2671 34.7059 28.4135Z" fill="black"/>
<defs>
<linearGradient id="paint0_linear_22_663" x1="26" y1="0" x2="26" y2="52" gradientUnits="userSpaceOnUse">
<stop stop-color="#FBFBFB"/>
<stop offset="1" stop-color="#DBDBDB"/>
</linearGradient>
</defs>
</svg>
