<svg width="500" height="500" viewBox="0 0 500 500" fill="none" xmlns="http://www.w3.org/2000/svg">
<circle cx="250" cy="250" r="250" fill="white"/>
<rect x="211" y="152" width="39" height="39" fill="#FF6838"/>
<rect x="367" y="152" width="39" height="39" fill="#FF3F33"/>
<rect x="211" y="191" width="39" height="39" fill="#FF3D00"/>
<rect x="250" y="191" width="39" height="39" fill="#FF4921"/>
<rect x="250" y="230" width="39" height="39" fill="#FF2E00"/>
<rect x="289" y="269" width="39" height="39" fill="#EB1C00"/>
<rect x="328" y="230" width="39" height="39" fill="#E20E01"/>
<rect x="289" y="230" width="39" height="39" fill="#FF351A"/>
<rect x="328" y="191" width="39" height="39" fill="#FF2F13"/>
<rect x="367" y="191" width="39" height="39" fill="#FF0F00"/>
<rect x="211" y="230" width="39" height="39" fill="#FF7A00"/>
<rect x="133" y="170.943" width="39" height="39" fill="#FF7A00"/>
<rect x="94" y="289.057" width="39" height="39" fill="#FFAF37"/>
<rect x="133" y="289.057" width="39" height="39" fill="#FF7A00"/>
<rect x="159.743" y="230" width="39" height="39" fill="#FF5C00"/>
<rect x="94" y="170.943" width="39" height="39" fill="#FFAF37"/>
<rect x="367" y="230" width="39" height="39" fill="#FF3528"/>
<rect x="211" y="269" width="39" height="39" fill="#FF4D00"/>
<rect x="211" y="308" width="39" height="39" fill="#BD3105"/>
<rect x="367" y="308" width="39" height="39" fill="#8E0404"/>
<rect x="367" y="269" width="39" height="39" fill="#D70D00"/>
</svg>
