<svg width="281" height="69" viewBox="0 0 281 69" fill="none" xmlns="http://www.w3.org/2000/svg">
<path d="M116.651 51.5241V40.3636H122.889V60H116.932V56.3438H116.727C116.293 57.5455 115.551 58.5 114.503 59.2074C113.463 59.9062 112.206 60.2557 110.732 60.2557C109.393 60.2557 108.217 59.9489 107.203 59.3352C106.189 58.7216 105.401 57.8651 104.838 56.7656C104.276 55.6577 103.99 54.3622 103.982 52.8793V40.3636H110.233V51.652C110.241 52.7173 110.523 53.5568 111.077 54.1705C111.631 54.7841 112.385 55.0909 113.339 55.0909C113.962 55.0909 114.52 54.9545 115.014 54.6818C115.517 54.4006 115.913 53.9957 116.203 53.4673C116.501 52.9304 116.651 52.2827 116.651 51.5241ZM126.868 60V40.3636H132.941V43.9432H133.145C133.503 42.6477 134.087 41.6847 134.897 41.054C135.706 40.4148 136.648 40.0952 137.722 40.0952C138.012 40.0952 138.31 40.1165 138.617 40.1591C138.924 40.1932 139.209 40.2486 139.473 40.3253V45.7585C139.175 45.6562 138.783 45.5753 138.297 45.5156C137.82 45.456 137.394 45.4261 137.019 45.4261C136.277 45.4261 135.608 45.5923 135.012 45.9247C134.424 46.2486 133.959 46.7045 133.618 47.2926C133.286 47.8722 133.12 48.554 133.12 49.3381V60H126.868ZM146.818 60.3324C145.565 60.3324 144.453 60.1236 143.481 59.706C142.518 59.2798 141.755 58.6406 141.193 57.7884C140.639 56.9276 140.362 55.8494 140.362 54.554C140.362 53.4631 140.554 52.5426 140.937 51.7926C141.321 51.0426 141.849 50.4332 142.522 49.9645C143.196 49.4957 143.971 49.142 144.849 48.9034C145.727 48.6562 146.664 48.4901 147.662 48.4048C148.778 48.3026 149.677 48.196 150.359 48.0852C151.041 47.9659 151.535 47.7997 151.842 47.5866C152.157 47.3651 152.315 47.054 152.315 46.6534V46.5895C152.315 45.9332 152.089 45.4261 151.637 45.0682C151.186 44.7102 150.576 44.5312 149.809 44.5312C148.983 44.5312 148.318 44.7102 147.815 45.0682C147.312 45.4261 146.993 45.9205 146.856 46.5511L141.091 46.3466C141.261 45.1534 141.7 44.0881 142.407 43.1506C143.123 42.2045 144.103 41.4631 145.348 40.9261C146.6 40.3807 148.105 40.108 149.86 40.108C151.113 40.108 152.268 40.2571 153.325 40.5554C154.382 40.8452 155.302 41.2713 156.086 41.8338C156.87 42.3878 157.475 43.0696 157.902 43.8793C158.336 44.6889 158.554 45.6136 158.554 46.6534V60H152.673V57.2642H152.52C152.17 57.929 151.723 58.4915 151.177 58.9517C150.64 59.4119 150.005 59.7571 149.272 59.9872C148.548 60.2173 147.73 60.3324 146.818 60.3324ZM148.748 56.2415C149.422 56.2415 150.027 56.1051 150.564 55.8324C151.109 55.5597 151.544 55.1847 151.868 54.7074C152.191 54.2216 152.353 53.6591 152.353 53.0199V51.1534C152.174 51.2472 151.957 51.3324 151.701 51.4091C151.454 51.4858 151.181 51.5582 150.883 51.6264C150.585 51.6946 150.278 51.7543 149.963 51.8054C149.647 51.8565 149.345 51.9034 149.055 51.946C148.467 52.0398 147.964 52.1847 147.547 52.3807C147.137 52.5767 146.822 52.8324 146.6 53.1477C146.387 53.4545 146.281 53.821 146.281 54.2472C146.281 54.8949 146.511 55.3892 146.971 55.7301C147.44 56.071 148.032 56.2415 148.748 56.2415ZM169.548 60.2812C168.099 60.2812 166.782 59.9062 165.598 59.1562C164.413 58.4062 163.467 57.2812 162.76 55.7812C162.052 54.2812 161.699 52.419 161.699 50.1946C161.699 47.8849 162.065 45.9844 162.798 44.4929C163.531 43.0014 164.49 41.8977 165.674 41.1818C166.868 40.4659 168.15 40.108 169.522 40.108C170.554 40.108 171.436 40.2869 172.169 40.6449C172.902 40.9943 173.507 41.446 173.984 42C174.461 42.554 174.824 43.1293 175.071 43.7259H175.199V33.8182H181.45V60H175.262V56.8168H175.071C174.806 57.4219 174.431 57.9886 173.946 58.517C173.46 59.0455 172.85 59.4716 172.118 59.7955C171.393 60.1193 170.537 60.2812 169.548 60.2812ZM171.721 55.4105C172.48 55.4105 173.127 55.1974 173.664 54.7713C174.201 54.3366 174.615 53.7273 174.904 52.9432C175.194 52.1591 175.339 51.2386 175.339 50.1818C175.339 49.108 175.194 48.1832 174.904 47.4077C174.623 46.6321 174.21 46.0355 173.664 45.6179C173.127 45.2003 172.48 44.9915 171.721 44.9915C170.946 44.9915 170.289 45.2045 169.752 45.6307C169.216 46.0568 168.806 46.6577 168.525 47.4332C168.252 48.2088 168.116 49.125 168.116 50.1818C168.116 51.2386 168.257 52.1591 168.538 52.9432C168.819 53.7273 169.224 54.3366 169.752 54.7713C170.289 55.1974 170.946 55.4105 171.721 55.4105Z" fill="black"/>
<rect x="36.1558" width="11.8442" height="11.8442" fill="#FF6838"/>
<rect x="84.1558" width="11.8442" height="11.8442" fill="#FF3F33"/>
<rect x="36.1558" y="11.8442" width="11.8442" height="11.8442" fill="#FF3D00"/>
<rect x="48" y="11.8442" width="11.8442" height="11.8442" fill="#FF4921"/>
<rect x="48" y="23.6883" width="11.8442" height="11.8442" fill="#FF2E00"/>
<rect x="59.8442" y="35.5325" width="12.4675" height="11.8442" fill="#EB1C00"/>
<rect x="72.3117" y="23.6883" width="11.8442" height="11.8442" fill="#E20E01"/>
<rect x="59.8442" y="23.6883" width="12.4675" height="11.8442" fill="#FF351A"/>
<rect x="72.3117" y="11.8442" width="11.8442" height="11.8442" fill="#FF2F13"/>
<rect x="84.1558" y="11.8442" width="11.8442" height="11.8442" fill="#FF0F00"/>
<rect x="36.1558" y="23.6883" width="11.8442" height="11.8442" fill="#FF7A00"/>
<rect x="11.8442" y="4.98701" width="12.4675" height="13.0909" fill="#FF7A00"/>
<rect y="41.7662" width="11.8442" height="12.4675" fill="#FFAF37"/>
<rect x="11.8442" y="41.7662" width="12.4675" height="12.4675" fill="#FF7A00"/>
<rect x="19.9481" y="23.6883" width="12.4675" height="11.8442" fill="#FF5C00"/>
<rect y="4.98701" width="11.8442" height="13.0909" fill="#FFAF37"/>
<rect x="84.1558" y="23.6883" width="11.8442" height="11.8442" fill="#FF3528"/>
<rect x="36.1558" y="35.5325" width="11.8442" height="11.8442" fill="#FF4D00"/>
<rect x="36.1558" y="47.3766" width="11.8442" height="12.4675" fill="#BD3105"/>
<rect x="84.1558" y="47.3766" width="11.8442" height="12.4675" fill="#8E0404"/>
<rect x="84.1558" y="35.5325" width="11.8442" height="11.8442" fill="#D70D00"/>
<path d="M191.688 60V33.8182H203.04C205.034 33.8182 206.709 34.0866 208.064 34.6236C209.428 35.1605 210.455 35.919 211.145 36.8991C211.844 37.8793 212.193 39.0341 212.193 40.3636C212.193 41.3267 211.98 42.2045 211.554 42.9972C211.136 43.7898 210.548 44.4545 209.79 44.9915C209.031 45.5199 208.145 45.8864 207.131 46.0909V46.3466C208.256 46.3892 209.278 46.6747 210.199 47.2031C211.119 47.723 211.852 48.4432 212.398 49.3636C212.943 50.2756 213.216 51.3494 213.216 52.5852C213.216 54.017 212.841 55.2912 212.091 56.4077C211.349 57.5241 210.293 58.402 208.92 59.0412C207.548 59.6804 205.912 60 204.011 60H191.688ZM198.795 54.3239H202.119C203.313 54.3239 204.207 54.1023 204.804 53.6591C205.401 53.2074 205.699 52.5426 205.699 51.6648C205.699 51.0511 205.558 50.5312 205.277 50.1051C204.996 49.679 204.595 49.3551 204.075 49.1335C203.564 48.9119 202.946 48.8011 202.222 48.8011H198.795V54.3239ZM198.795 44.4034H201.71C202.332 44.4034 202.882 44.3054 203.359 44.1094C203.837 43.9134 204.207 43.6321 204.472 43.2656C204.744 42.8906 204.881 42.4347 204.881 41.8977C204.881 41.0881 204.591 40.4702 204.011 40.044C203.432 39.6094 202.699 39.392 201.812 39.392H198.795V44.4034ZM221.308 60.3068C220.055 60.3068 218.947 60.1023 217.984 59.6932C217.03 59.2756 216.28 58.6449 215.734 57.8011C215.189 56.9574 214.916 55.8835 214.916 54.5795C214.916 53.5057 215.099 52.5895 215.466 51.831C215.832 51.0639 216.344 50.4375 217 49.9517C217.656 49.4659 218.419 49.0952 219.288 48.8395C220.166 48.5838 221.112 48.4176 222.126 48.3409C223.226 48.2557 224.108 48.1534 224.773 48.0341C225.446 47.9062 225.932 47.7315 226.23 47.5099C226.528 47.2798 226.678 46.9773 226.678 46.6023V46.5511C226.678 46.0398 226.482 45.6477 226.089 45.375C225.697 45.1023 225.195 44.9659 224.581 44.9659C223.908 44.9659 223.358 45.1151 222.932 45.4134C222.514 45.7031 222.263 46.1506 222.178 46.7557H215.683C215.768 45.5625 216.148 44.4631 216.821 43.4574C217.503 42.4432 218.496 41.6335 219.8 41.0284C221.104 40.4148 222.732 40.108 224.683 40.108C226.089 40.108 227.351 40.2741 228.467 40.6065C229.584 40.9304 230.534 41.3864 231.318 41.9744C232.102 42.554 232.699 43.2358 233.108 44.0199C233.526 44.7955 233.734 45.6392 233.734 46.5511V60H227.138V57.2386H226.984C226.592 57.9716 226.115 58.5639 225.553 59.0156C224.999 59.4673 224.364 59.7955 223.648 60C222.94 60.2045 222.161 60.3068 221.308 60.3068ZM223.609 55.858C224.146 55.858 224.649 55.7472 225.118 55.5256C225.595 55.304 225.983 54.9844 226.281 54.5668C226.58 54.1491 226.729 53.642 226.729 53.0455V51.4091C226.541 51.4858 226.341 51.5582 226.128 51.6264C225.923 51.6946 225.702 51.7585 225.463 51.8182C225.233 51.8778 224.986 51.9332 224.722 51.9844C224.466 52.0355 224.197 52.0824 223.916 52.125C223.371 52.2102 222.923 52.3509 222.574 52.5469C222.233 52.7344 221.977 52.9688 221.807 53.25C221.645 53.5227 221.564 53.8295 221.564 54.1705C221.564 54.7159 221.756 55.1335 222.139 55.4233C222.523 55.7131 223.013 55.858 223.609 55.858ZM244.163 48.9545V60H237.106V40.3636H243.805V44.0966H244.01C244.436 42.8523 245.186 41.8764 246.26 41.169C247.342 40.4616 248.603 40.108 250.044 40.108C251.433 40.108 252.639 40.4276 253.662 41.0668C254.693 41.6974 255.49 42.5668 256.052 43.6747C256.623 44.7827 256.904 46.0483 256.896 47.4716V60H249.839V48.9545C249.848 47.983 249.6 47.2202 249.098 46.6662C248.603 46.1122 247.913 45.8352 247.027 45.8352C246.447 45.8352 245.94 45.9631 245.505 46.2188C245.079 46.4659 244.751 46.8239 244.521 47.2926C244.291 47.7528 244.172 48.3068 244.163 48.9545ZM266.721 55.3466L266.772 46.9602H267.692L272.448 40.3636H280.374L272.397 50.642H270.402L266.721 55.3466ZM260.38 60V33.8182H267.436V60H260.38ZM272.499 60L267.999 52.2273L272.601 47.2159L280.578 60H272.499Z" fill="black"/>
</svg>
