<svg width="268" height="26" viewBox="0 0 268 26" fill="none" xmlns="http://www.w3.org/2000/svg">
<path d="M18.1914 3.80469L14.1367 13.8008C13.1523 16.2227 12.4023 17.8672 11.8867 18.7344C11.3711 19.6094 10.707 20.3672 9.89453 21.0078C8.69922 21.9297 7.33203 22.3906 5.79297 22.3906C4.14453 22.3906 2.80469 21.8711 1.77344 20.832C0.75 19.8008 0.238281 18.4531 0.238281 16.7891C0.238281 14.5938 1.04688 12.6719 2.66406 11.0234C3.53125 10.1406 4.61719 9.42969 5.92188 8.89062C7.22656 8.35156 8.51562 8.08203 9.78906 8.08203C10.3984 8.08203 10.8906 8.22266 11.2656 8.50391C11.6484 8.77734 11.8398 9.13672 11.8398 9.58203C11.8398 10.0664 11.6367 10.4531 11.2305 10.7422C11.0039 10.9062 10.5508 11.0234 9.87109 11.0938C8.30859 11.2344 7.05469 11.5898 6.10938 12.1602C5.3125 12.6445 4.68359 13.2695 4.22266 14.0352C3.76172 14.8008 3.53125 15.6094 3.53125 16.4609C3.53125 17.3359 3.76172 18.0273 4.22266 18.5352C4.68359 19.043 5.30859 19.2969 6.09766 19.2969C7.03516 19.2969 7.85547 18.8906 8.55859 18.0781C9.26172 17.2656 10.0273 15.8398 10.8555 13.8008L14.9102 3.80469H12.625C11.5469 3.80469 11.0078 3.42187 11.0078 2.65625C11.0078 2.14062 11.1992 1.73828 11.582 1.44922C11.9648 1.15234 12.4961 1.00391 13.1758 1.00391H20.875H21.1797L22 1.19141C22.3281 1.37109 22.4922 1.69141 22.4922 2.15234C22.4922 2.66797 22.3008 3.07422 21.918 3.37109C21.5352 3.66016 21.0039 3.80469 20.3242 3.80469H18.1914ZM25.0469 8.53906C25.8672 8.09375 26.543 7.87109 27.0742 7.87109C27.8242 7.87109 28.4375 8.08203 28.9141 8.50391C29.3984 8.91797 29.6406 9.44922 29.6406 10.0977C29.6406 10.4883 29.5469 10.9141 29.3594 11.375L28.1289 14.4453H29.4766C30.4609 14.4453 30.9531 14.793 30.9531 15.4883C30.9531 15.9648 30.7773 16.3359 30.4258 16.6016C30.082 16.8672 29.5977 17 28.9727 17H26.6172C26.1172 17 25.6953 16.8594 25.3516 16.5781C25.0156 16.2891 24.8477 15.9375 24.8477 15.5234C24.8477 15.2422 24.9375 14.8828 25.1172 14.4453L26.1953 11.7969C26.3281 11.4609 26.3945 11.207 26.3945 11.0352C26.3945 10.5898 26.0977 10.3672 25.5039 10.3672C24.707 10.3672 24.0352 11.0469 23.4883 12.4062L22.1758 15.6289C21.7617 16.6523 21.1484 17.1641 20.3359 17.1641C20.0156 17.1641 19.7422 17.0625 19.5156 16.8594C19.2891 16.6562 19.1758 16.4102 19.1758 16.1211C19.1758 15.9023 19.2344 15.6445 19.3516 15.3477L19.4805 15.0312L24.5781 2.45703C25.0234 1.37891 25.6328 0.839844 26.4062 0.839844C26.7266 0.839844 27 0.949219 27.2266 1.16797C27.4609 1.37891 27.5781 1.63672 27.5781 1.94141C27.5781 2.19141 27.4766 2.5625 27.2734 3.05469L25.0469 8.53906ZM39.4141 14.4453H40.7031C41.6875 14.4453 42.1797 14.7891 42.1797 15.4766C42.1797 15.9531 42.0039 16.3281 41.6523 16.6016C41.3008 16.8672 40.8164 17 40.1992 17H38.6992C38.0273 17 37.5703 16.7383 37.3281 16.2148C36.7422 16.7383 36.1758 17 35.6289 17H34.293C33.4336 17 32.7383 16.6953 32.207 16.0859C31.6836 15.4688 31.4219 14.6641 31.4219 13.6719C31.4219 12.1719 31.9375 10.832 32.9688 9.65234C34.0078 8.46484 35.1797 7.87109 36.4844 7.87109C37.4844 7.87109 38.2148 8.21875 38.6758 8.91406C39.0664 8.32812 39.5781 8.03516 40.2109 8.03516C40.5547 8.03516 40.8398 8.14453 41.0664 8.36328C41.3008 8.58203 41.418 8.85156 41.418 9.17188C41.418 9.39062 41.3555 9.65234 41.2305 9.95703L41.1016 10.2734L39.4141 14.4453ZM35.1602 14.5039H35.4531C36.0938 14.5039 36.5195 14.2422 36.7305 13.7188L37.5508 11.6914C37.6602 11.4258 37.7148 11.2031 37.7148 11.0234C37.7148 10.8125 37.6094 10.6289 37.3984 10.4727C37.1953 10.3164 36.9492 10.2383 36.6602 10.2383C36.0898 10.2383 35.5352 10.5703 34.9961 11.2344C34.457 11.8984 34.1875 12.5859 34.1875 13.2969C34.1875 14.1016 34.5117 14.5039 35.1602 14.5039ZM51.3203 14.4453H52.7266C53.7188 14.4453 54.2148 14.793 54.2148 15.4883C54.2148 15.9648 54.0391 16.3359 53.6875 16.6016C53.3359 16.8672 52.8516 17 52.2344 17H49.7852C49.3086 17 48.9062 16.8555 48.5781 16.5664C48.2578 16.2773 48.0977 15.9141 48.0977 15.4766C48.0977 15.2109 48.207 14.8125 48.4258 14.2812L49.457 11.7266C49.5664 11.4609 49.625 11.2461 49.6328 11.082C49.6406 10.8945 49.5625 10.7344 49.3984 10.6016C49.2422 10.4688 49.0391 10.4023 48.7891 10.4023C47.9844 10.4023 47.3359 11.0078 46.8438 12.2188L45.4609 15.6172C45.0469 16.6484 44.4297 17.1641 43.6094 17.1641C43.2734 17.1641 42.9883 17.0625 42.7539 16.8594C42.5195 16.6562 42.4023 16.4062 42.4023 16.1094C42.4023 15.8906 42.4648 15.6289 42.5898 15.3242L42.7188 15.0078L45.0859 9.17188C45.3906 8.41406 45.9102 8.03516 46.6445 8.03516C47.2461 8.03516 47.6758 8.30078 47.9336 8.83203C48.7695 8.19141 49.5664 7.87109 50.3242 7.87109C51.0586 7.87109 51.6641 8.08203 52.1406 8.50391C52.6172 8.92578 52.8555 9.46094 52.8555 10.1094C52.8555 10.4688 52.7695 10.8633 52.5977 11.293L51.3203 14.4453ZM61.8086 12.043L63.625 14.8906C63.8516 15.2422 63.9648 15.5312 63.9648 15.7578C63.9648 16.1172 63.8125 16.4414 63.5078 16.7305C63.2109 17.0195 62.875 17.1641 62.5 17.1641C62.1719 17.1641 61.8867 16.9883 61.6445 16.6367L61.5039 16.4258L58.7852 12.3594L57.4727 15.6055C57.0508 16.6445 56.4336 17.1641 55.6211 17.1641C55.2852 17.1641 55 17.0625 54.7656 16.8594C54.5391 16.6484 54.4258 16.3945 54.4258 16.0977C54.4258 15.8711 54.4883 15.6094 54.6133 15.3125L54.7422 14.9961L59.7578 2.63281L59.8867 2.31641C60.2461 1.44141 60.8203 1.00391 61.6094 1.00391C61.9375 1.00391 62.2188 1.11328 62.4531 1.33203C62.6875 1.55078 62.8047 1.8125 62.8047 2.11719C62.8047 2.35156 62.7422 2.62109 62.6172 2.92578L62.4883 3.24219L59.5 10.6016L62.1367 8.64453C62.6836 8.23828 63.1523 8.03516 63.543 8.03516C63.8711 8.03516 64.1445 8.14062 64.3633 8.35156C64.582 8.5625 64.6914 8.82422 64.6914 9.13672C64.6914 9.66016 64.4023 10.1367 63.8242 10.5664L63.5547 10.7656L61.8086 12.043ZM91.6094 3.80469L87.3906 14.1992H88.9727C90.0508 14.1992 90.5898 14.582 90.5898 15.3477C90.5898 15.8633 90.3984 16.2695 90.0156 16.5664C89.6406 16.8555 89.1133 17 88.4336 17H86.2422L85.3867 19.1562C84.4336 21.5391 83.4414 23.2188 82.4102 24.1953C81.3789 25.1797 80.0938 25.6719 78.5547 25.6719C77.1016 25.6719 75.8906 25.1875 74.9219 24.2188C73.9531 23.25 73.4688 22.043 73.4688 20.5977C73.4688 19.5039 73.7539 18.5 74.3242 17.5859C74.9023 16.6719 75.7148 15.9219 76.7617 15.3359C78.0977 14.5938 79.9453 14.2227 82.3047 14.2227L84.168 14.1992L84.5664 13.2266C84.1523 13.4297 83.6953 13.5312 83.1953 13.5312C82.0859 13.5312 81.1641 13.1914 80.4297 12.5117C79.7031 11.832 79.3398 10.9766 79.3398 9.94531C79.3398 9.40625 79.5195 8.625 79.8789 7.60156L80.1367 6.91016L80.3828 6.21875C80.5625 5.72656 80.6523 5.31641 80.6523 4.98828C80.6523 4.61328 80.4883 4.29297 80.1602 4.02734C79.832 3.76172 79.4375 3.62891 78.9766 3.62891C78.2266 3.62891 77.5391 3.97266 76.9141 4.66016C76.2969 5.34766 75.9883 6.10156 75.9883 6.92188C75.9883 7.39062 76.0938 7.76172 76.3047 8.03516C76.5156 8.30078 76.8906 8.53516 77.4297 8.73828C77.9922 8.95703 78.2734 9.31641 78.2734 9.81641C78.2734 10.2617 78.1055 10.6328 77.7695 10.9297C77.4336 11.2266 77.0156 11.375 76.5156 11.375C75.5234 11.375 74.6758 10.9609 73.9727 10.1328C73.2773 9.30469 72.9297 8.30469 72.9297 7.13281C72.9297 5.42969 73.5703 3.94531 74.8516 2.67969C76.1406 1.40625 77.6445 0.769531 79.3633 0.769531C80.6523 0.769531 81.7188 1.15625 82.5625 1.92969C83.4062 2.70312 83.8281 3.67969 83.8281 4.85938C83.8281 5.42188 83.7305 5.96875 83.5352 6.5L83.0781 7.74219C82.7891 8.51562 82.6445 9.06641 82.6445 9.39453C82.6445 9.76172 82.7812 10.0742 83.0547 10.332C83.3281 10.5898 83.6562 10.7188 84.0391 10.7188C84.6094 10.7188 85.0898 10.5195 85.4805 10.1211C85.8711 9.72266 86.2695 9.02734 86.6758 8.03516L88.9375 2.45703C89.1562 1.91797 89.4219 1.54297 89.7344 1.33203C90.0547 1.11328 90.5078 1.00391 91.0938 1.00391H93.8594C94.9375 1.00391 95.4766 1.37109 95.4766 2.10547C95.4766 2.64453 95.2852 3.0625 94.9023 3.35938C94.5273 3.65625 93.9961 3.80469 93.3086 3.80469H91.6094ZM83.0312 17C81.3906 17 80.1328 17.1562 79.2578 17.4688C78.4375 17.7578 77.793 18.1719 77.3242 18.7109C76.8633 19.2578 76.6328 19.8594 76.6328 20.5156C76.6328 21.125 76.832 21.6406 77.2305 22.0625C77.6367 22.4844 78.1289 22.6953 78.707 22.6953C79.418 22.6953 80.0586 22.3789 80.6289 21.7461C81.207 21.1133 81.7812 20.0898 82.3516 18.6758L83.0312 17ZM97.9844 7.87109C99.1172 7.87109 100.047 8.23047 100.773 8.94922C101.508 9.66797 101.875 10.582 101.875 11.6914C101.875 12.5273 101.684 13.3594 101.301 14.1875C100.918 15.0078 100.422 15.6641 99.8125 16.1562C99.4062 16.4766 98.9844 16.6992 98.5469 16.8242C98.1172 16.9414 97.5117 17 96.7305 17C95.457 17 94.5977 16.8477 94.1523 16.543C93.1055 15.8242 92.582 14.7617 92.582 13.3555C92.582 11.8711 93.1172 10.5859 94.1875 9.5C95.2578 8.41406 96.5234 7.87109 97.9844 7.87109ZM97.7031 10.3672C97.125 10.3672 96.5977 10.6523 96.1211 11.2227C95.6445 11.793 95.4062 12.4219 95.4062 13.1094C95.4062 14.0156 95.9141 14.4688 96.9297 14.4688C97.5234 14.4688 97.9805 14.2852 98.3008 13.918C98.832 13.3164 99.0977 12.6289 99.0977 11.8555C99.0977 11.4102 98.9688 11.0508 98.7109 10.7773C98.4531 10.5039 98.1172 10.3672 97.7031 10.3672ZM110.758 14.4453H112.117C112.656 14.4453 113.039 14.5273 113.266 14.6914C113.492 14.8477 113.605 15.1094 113.605 15.4766C113.605 15.9531 113.43 16.3281 113.078 16.6016C112.734 16.8672 112.25 17 111.625 17H109.527C108.871 17 108.434 16.7461 108.215 16.2383C107.785 16.7461 107.246 17 106.598 17H104.887C104.199 17 103.629 16.7852 103.176 16.3555C102.723 15.9258 102.496 15.3828 102.496 14.7266C102.496 14.3516 102.598 13.9141 102.801 13.4141L104.395 9.5C104.84 8.41406 105.449 7.87109 106.223 7.87109C106.559 7.87109 106.844 7.98047 107.078 8.19922C107.312 8.41016 107.43 8.67188 107.43 8.98438C107.43 9.21875 107.367 9.48828 107.242 9.79297L107.113 10.1094L105.883 13.1211L105.754 13.4727C105.684 13.6758 105.645 13.8281 105.637 13.9297C105.621 14.2812 105.848 14.457 106.316 14.457C107.285 14.457 107.93 14.0664 108.25 13.2852L109.715 9.67578C110.152 8.58203 110.77 8.03516 111.566 8.03516C111.895 8.03516 112.176 8.14453 112.41 8.36328C112.645 8.58203 112.762 8.84375 112.762 9.14844C112.762 9.39062 112.66 9.76562 112.457 10.2734L110.758 14.4453ZM126.52 8.03516H128.137C129.129 8.03516 129.625 8.38281 129.625 9.07812C129.625 9.55469 129.449 9.92578 129.098 10.1914C128.754 10.457 128.27 10.5898 127.645 10.5898H125.488L120.227 23.5625C119.789 24.6328 119.18 25.168 118.398 25.168C118.055 25.168 117.766 25.0625 117.531 24.8516C117.297 24.6406 117.18 24.3789 117.18 24.0664C117.18 23.8398 117.281 23.4688 117.484 22.9531L122.512 10.5898H121.715C120.723 10.5898 120.227 10.25 120.227 9.57031C120.227 9.08594 120.398 8.71094 120.742 8.44531C121.094 8.17188 121.582 8.03516 122.207 8.03516H123.543L125.031 4.36719C125.531 3.14844 126.129 2.28516 126.824 1.77734C127.527 1.26172 128.465 1.00391 129.637 1.00391H130.973C131.973 1.00391 132.473 1.34766 132.473 2.03516C132.473 2.52734 132.297 2.91016 131.945 3.18359C131.594 3.45703 131.105 3.59375 130.48 3.59375H130.129C129.473 3.59375 128.953 3.72656 128.57 3.99219C128.195 4.25781 127.879 4.70703 127.621 5.33984L126.52 8.03516ZM133.539 7.87109C134.672 7.87109 135.602 8.23047 136.328 8.94922C137.062 9.66797 137.43 10.582 137.43 11.6914C137.43 12.5273 137.238 13.3594 136.855 14.1875C136.473 15.0078 135.977 15.6641 135.367 16.1562C134.961 16.4766 134.539 16.6992 134.102 16.8242C133.672 16.9414 133.066 17 132.285 17C131.012 17 130.152 16.8477 129.707 16.543C128.66 15.8242 128.137 14.7617 128.137 13.3555C128.137 11.8711 128.672 10.5859 129.742 9.5C130.812 8.41406 132.078 7.87109 133.539 7.87109ZM133.258 10.3672C132.68 10.3672 132.152 10.6523 131.676 11.2227C131.199 11.793 130.961 12.4219 130.961 13.1094C130.961 14.0156 131.469 14.4688 132.484 14.4688C133.078 14.4688 133.535 14.2852 133.855 13.918C134.387 13.3164 134.652 12.6289 134.652 11.8555C134.652 11.4102 134.523 11.0508 134.266 10.7773C134.008 10.5039 133.672 10.3672 133.258 10.3672ZM140.98 10.6016L140.582 11.5859C140.223 12.4609 139.754 12.8984 139.176 12.8984C138.824 12.8984 138.531 12.793 138.297 12.582C138.062 12.3711 137.945 12.1094 137.945 11.7969C137.945 11.6172 138.031 11.3125 138.203 10.8828L139.527 7.61328C139.848 6.82422 140.301 6.42969 140.887 6.42969C141.465 6.42969 141.82 6.70312 141.953 7.25L142.047 7.61328C142.094 7.80078 142.164 7.91797 142.258 7.96484C142.352 8.01172 142.582 8.03516 142.949 8.03516H145.691C146.715 8.03516 147.227 8.39453 147.227 9.11328C147.227 10.1055 146.578 10.6016 145.281 10.6016L145.152 10.7188C143.91 11.9062 143.289 12.8242 143.289 13.4727C143.289 14.1211 143.648 14.4453 144.367 14.4453H145.844C146.836 14.4453 147.332 14.7891 147.332 15.4766C147.332 15.9609 147.156 16.3359 146.805 16.6016C146.461 16.8672 145.977 17 145.352 17H143.055C142.273 17 141.633 16.7305 141.133 16.1914C140.641 15.6523 140.395 14.9531 140.395 14.0938C140.395 13.5469 140.527 13.0156 140.793 12.5C141.059 11.9844 141.527 11.3516 142.199 10.6016H140.98ZM160.539 17.4805H161.898C162.891 17.4805 163.387 17.8281 163.387 18.5234C163.387 19 163.211 19.3711 162.859 19.6367C162.516 19.9023 162.031 20.0352 161.406 20.0352H159.508C159.281 20.707 158.871 21.5977 158.277 22.707C157.246 24.6602 155.746 25.6367 153.777 25.6367C152.582 25.6367 151.578 25.2617 150.766 24.5117C149.953 23.7617 149.547 22.832 149.547 21.7227C149.547 20.9492 149.77 20.2266 150.215 19.5547C150.652 18.8906 151.23 18.3906 151.949 18.0547C152.777 17.6719 154 17.4805 155.617 17.4805H157.527L157.867 16.6367C157.289 16.8789 156.758 17 156.273 17C155.438 17 154.758 16.7891 154.234 16.3672C153.719 15.9375 153.461 15.3828 153.461 14.7031C153.461 14.2891 153.629 13.668 153.965 12.8398L155.242 9.6875L155.371 9.35938C155.746 8.47656 156.328 8.03516 157.117 8.03516C157.461 8.03516 157.746 8.14453 157.973 8.36328C158.207 8.58203 158.324 8.85938 158.324 9.19531C158.324 9.42188 158.223 9.78906 158.02 10.2969L156.871 13.0977C156.691 13.5508 156.598 13.8438 156.59 13.9766C156.566 14.3594 156.809 14.5508 157.316 14.5508C157.676 14.5508 158.043 14.4453 158.418 14.2344C158.793 14.0234 159.031 13.7852 159.133 13.5195L160.703 9.6875L160.82 9.35938C161.188 8.47656 161.77 8.03516 162.566 8.03516C162.91 8.03516 163.195 8.14844 163.422 8.375C163.656 8.59375 163.773 8.86719 163.773 9.19531C163.773 9.42188 163.715 9.68359 163.598 9.98047L163.457 10.2969L160.539 17.4805ZM156.707 20.0352H155.066C153.27 20.0352 152.371 20.5977 152.371 21.7227C152.371 22.1211 152.496 22.4414 152.746 22.6836C152.988 22.9258 153.316 23.0469 153.73 23.0469C154.301 23.0469 154.805 22.8242 155.242 22.3789C155.688 21.9336 156.176 21.1523 156.707 20.0352ZM169.562 7.87109C170.695 7.87109 171.625 8.23047 172.352 8.94922C173.086 9.66797 173.453 10.582 173.453 11.6914C173.453 12.5273 173.262 13.3594 172.879 14.1875C172.496 15.0078 172 15.6641 171.391 16.1562C170.984 16.4766 170.562 16.6992 170.125 16.8242C169.695 16.9414 169.09 17 168.309 17C167.035 17 166.176 16.8477 165.73 16.543C164.684 15.8242 164.16 14.7617 164.16 13.3555C164.16 11.8711 164.695 10.5859 165.766 9.5C166.836 8.41406 168.102 7.87109 169.562 7.87109ZM169.281 10.3672C168.703 10.3672 168.176 10.6523 167.699 11.2227C167.223 11.793 166.984 12.4219 166.984 13.1094C166.984 14.0156 167.492 14.4688 168.508 14.4688C169.102 14.4688 169.559 14.2852 169.879 13.918C170.41 13.3164 170.676 12.6289 170.676 11.8555C170.676 11.4102 170.547 11.0508 170.289 10.7773C170.031 10.5039 169.695 10.3672 169.281 10.3672ZM182.336 14.4453H183.695C184.234 14.4453 184.617 14.5273 184.844 14.6914C185.07 14.8477 185.184 15.1094 185.184 15.4766C185.184 15.9531 185.008 16.3281 184.656 16.6016C184.312 16.8672 183.828 17 183.203 17H181.105C180.449 17 180.012 16.7461 179.793 16.2383C179.363 16.7461 178.824 17 178.176 17H176.465C175.777 17 175.207 16.7852 174.754 16.3555C174.301 15.9258 174.074 15.3828 174.074 14.7266C174.074 14.3516 174.176 13.9141 174.379 13.4141L175.973 9.5C176.418 8.41406 177.027 7.87109 177.801 7.87109C178.137 7.87109 178.422 7.98047 178.656 8.19922C178.891 8.41016 179.008 8.67188 179.008 8.98438C179.008 9.21875 178.945 9.48828 178.82 9.79297L178.691 10.1094L177.461 13.1211L177.332 13.4727C177.262 13.6758 177.223 13.8281 177.215 13.9297C177.199 14.2812 177.426 14.457 177.895 14.457C178.863 14.457 179.508 14.0664 179.828 13.2852L181.293 9.67578C181.73 8.58203 182.348 8.03516 183.145 8.03516C183.473 8.03516 183.754 8.14453 183.988 8.36328C184.223 8.58203 184.34 8.84375 184.34 9.14844C184.34 9.39062 184.238 9.76562 184.035 10.2734L182.336 14.4453ZM188.559 10.6016L188.16 11.5859C187.801 12.4609 187.332 12.8984 186.754 12.8984C186.402 12.8984 186.109 12.793 185.875 12.582C185.641 12.3711 185.523 12.1094 185.523 11.7969C185.523 11.6172 185.609 11.3125 185.781 10.8828L187.105 7.61328C187.426 6.82422 187.879 6.42969 188.465 6.42969C189.043 6.42969 189.398 6.70312 189.531 7.25L189.625 7.61328C189.672 7.80078 189.742 7.91797 189.836 7.96484C189.93 8.01172 190.16 8.03516 190.527 8.03516H193.27C194.293 8.03516 194.805 8.39453 194.805 9.11328C194.805 10.1055 194.156 10.6016 192.859 10.6016L192.73 10.7188C191.488 11.9062 190.867 12.8242 190.867 13.4727C190.867 14.1211 191.227 14.4453 191.945 14.4453H193.422C194.414 14.4453 194.91 14.7891 194.91 15.4766C194.91 15.9609 194.734 16.3359 194.383 16.6016C194.039 16.8672 193.555 17 192.93 17H190.633C189.852 17 189.211 16.7305 188.711 16.1914C188.219 15.6523 187.973 14.9531 187.973 14.0938C187.973 13.5469 188.105 13.0156 188.371 12.5C188.637 11.9844 189.105 11.3516 189.777 10.6016H188.559ZM207.062 8.53906C207.883 8.09375 208.559 7.87109 209.09 7.87109C209.84 7.87109 210.453 8.08203 210.93 8.50391C211.414 8.91797 211.656 9.44922 211.656 10.0977C211.656 10.4883 211.562 10.9141 211.375 11.375L210.145 14.4453H211.492C212.477 14.4453 212.969 14.793 212.969 15.4883C212.969 15.9648 212.793 16.3359 212.441 16.6016C212.098 16.8672 211.613 17 210.988 17H208.633C208.133 17 207.711 16.8594 207.367 16.5781C207.031 16.2891 206.863 15.9375 206.863 15.5234C206.863 15.2422 206.953 14.8828 207.133 14.4453L208.211 11.7969C208.344 11.4609 208.41 11.207 208.41 11.0352C208.41 10.5898 208.113 10.3672 207.52 10.3672C206.723 10.3672 206.051 11.0469 205.504 12.4062L204.191 15.6289C203.777 16.6523 203.164 17.1641 202.352 17.1641C202.031 17.1641 201.758 17.0625 201.531 16.8594C201.305 16.6562 201.191 16.4102 201.191 16.1211C201.191 15.9023 201.25 15.6445 201.367 15.3477L201.496 15.0312L206.594 2.45703C207.039 1.37891 207.648 0.839844 208.422 0.839844C208.742 0.839844 209.016 0.949219 209.242 1.16797C209.477 1.37891 209.594 1.63672 209.594 1.94141C209.594 2.19141 209.492 2.5625 209.289 3.05469L207.062 8.53906ZM216.238 13.5664C216.238 14.1523 216.68 14.4453 217.562 14.4453H221.043C222.027 14.4453 222.52 14.793 222.52 15.4883C222.52 15.9648 222.344 16.3359 221.992 16.6016C221.648 16.8672 221.164 17 220.539 17H217.223C215.988 17 215.047 16.6953 214.398 16.0859C213.758 15.4766 213.438 14.5859 213.438 13.4141C213.438 11.9062 213.945 10.6055 214.961 9.51172C215.984 8.41797 217.199 7.87109 218.605 7.87109C219.629 7.87109 220.449 8.14062 221.066 8.67969C221.691 9.21094 222.004 9.91406 222.004 10.7891C222.004 11.8438 221.574 12.625 220.715 13.1328C220.238 13.4219 219.527 13.5664 218.582 13.5664H216.238ZM216.801 11.4336H218.09C218.926 11.4336 219.332 11.25 219.309 10.8828C219.285 10.4688 219.016 10.2617 218.5 10.2617C217.781 10.2617 217.215 10.6523 216.801 11.4336ZM226.105 14.4453H227.336C228.328 14.4453 228.824 14.793 228.824 15.4883C228.824 15.9648 228.648 16.3359 228.297 16.6016C227.953 16.8672 227.469 17 226.844 17H224.734C224.156 17 223.699 16.8633 223.363 16.5898C223.027 16.3164 222.859 15.9492 222.859 15.4883C222.859 15.2461 222.973 14.8438 223.199 14.2812L227.934 2.63281L228.062 2.31641C228.422 1.44141 228.996 1.00391 229.785 1.00391C230.113 1.00391 230.391 1.11328 230.617 1.33203C230.852 1.55078 230.969 1.8125 230.969 2.11719C230.969 2.35156 230.91 2.61719 230.793 2.91406L230.664 3.23047L226.105 14.4453ZM231.883 16.0859L228.824 23.6094C228.402 24.6484 227.785 25.168 226.973 25.168C226.66 25.168 226.395 25.0625 226.176 24.8516C225.949 24.6484 225.836 24.4023 225.836 24.1133C225.836 23.8711 225.934 23.5039 226.129 23.0117L231.777 9.08984C232.066 8.38672 232.566 8.03516 233.277 8.03516C233.77 8.03516 234.16 8.26953 234.449 8.73828C234.996 8.16016 235.664 7.87109 236.453 7.87109C237.273 7.87109 237.934 8.18359 238.434 8.80859C238.941 9.42578 239.195 10.2422 239.195 11.2578C239.195 13.1797 238.598 14.7461 237.402 15.957C237.012 16.3555 236.609 16.6289 236.195 16.7773C235.781 16.9258 235.203 17 234.461 17C233.664 17 233.113 16.9453 232.809 16.8359C232.512 16.7266 232.203 16.4766 231.883 16.0859ZM232.844 13.6953C233.039 14.0391 233.223 14.2617 233.395 14.3633C233.574 14.4648 233.855 14.5156 234.238 14.5156C234.793 14.5156 235.227 14.3086 235.539 13.8945C236.172 13.0586 236.488 12.1992 236.488 11.3164C236.488 10.5586 236.129 10.1797 235.41 10.1797C234.621 10.1797 234.055 10.6367 233.711 11.5508C233.672 11.6523 233.641 11.7383 233.617 11.8086L232.844 13.6953ZM248.418 14.0469C248.863 14.0469 249.246 14.207 249.566 14.5273C249.887 14.8477 250.047 15.2305 250.047 15.6758C250.047 16.1289 249.887 16.5156 249.566 16.8359C249.246 17.1562 248.863 17.3164 248.418 17.3164C247.965 17.3164 247.578 17.1562 247.258 16.8359C246.938 16.5156 246.777 16.1289 246.777 15.6758C246.777 15.2305 246.938 14.8477 247.258 14.5273C247.578 14.207 247.965 14.0469 248.418 14.0469ZM253.68 4.63672L251.113 11.5859C250.676 12.7734 250.152 13.3672 249.543 13.3672C249.238 13.3672 248.977 13.2617 248.758 13.0508C248.547 12.832 248.441 12.5664 248.441 12.2539C248.441 12.0586 248.484 11.8047 248.57 11.4922L250.785 3.47656C251.066 2.47656 251.617 1.97656 252.438 1.97656C252.867 1.97656 253.23 2.11719 253.527 2.39844C253.824 2.67969 253.973 3.02344 253.973 3.42969C253.973 3.70312 253.875 4.10547 253.68 4.63672ZM255.379 14.0469C255.824 14.0469 256.207 14.207 256.527 14.5273C256.848 14.8477 257.008 15.2305 257.008 15.6758C257.008 16.1289 256.848 16.5156 256.527 16.8359C256.207 17.1562 255.824 17.3164 255.379 17.3164C254.926 17.3164 254.539 17.1562 254.219 16.8359C253.898 16.5156 253.738 16.1289 253.738 15.6758C253.738 15.2305 253.898 14.8477 254.219 14.5273C254.539 14.207 254.926 14.0469 255.379 14.0469ZM260.641 4.63672L258.074 11.5859C257.637 12.7734 257.113 13.3672 256.504 13.3672C256.199 13.3672 255.938 13.2617 255.719 13.0508C255.508 12.832 255.402 12.5664 255.402 12.2539C255.402 12.0586 255.445 11.8047 255.531 11.4922L257.746 3.47656C258.027 2.47656 258.578 1.97656 259.398 1.97656C259.828 1.97656 260.191 2.11719 260.488 2.39844C260.785 2.67969 260.934 3.02344 260.934 3.42969C260.934 3.70312 260.836 4.10547 260.641 4.63672ZM262.34 14.0469C262.785 14.0469 263.168 14.207 263.488 14.5273C263.809 14.8477 263.969 15.2305 263.969 15.6758C263.969 16.1289 263.809 16.5156 263.488 16.8359C263.168 17.1562 262.785 17.3164 262.34 17.3164C261.887 17.3164 261.5 17.1562 261.18 16.8359C260.859 16.5156 260.699 16.1289 260.699 15.6758C260.699 15.2305 260.859 14.8477 261.18 14.5273C261.5 14.207 261.887 14.0469 262.34 14.0469ZM267.602 4.63672L265.035 11.5859C264.598 12.7734 264.074 13.3672 263.465 13.3672C263.16 13.3672 262.898 13.2617 262.68 13.0508C262.469 12.832 262.363 12.5664 262.363 12.2539C262.363 12.0586 262.406 11.8047 262.492 11.4922L264.707 3.47656C264.988 2.47656 265.539 1.97656 266.359 1.97656C266.789 1.97656 267.152 2.11719 267.449 2.39844C267.746 2.67969 267.895 3.02344 267.895 3.42969C267.895 3.70312 267.797 4.10547 267.602 4.63672Z" fill="white"/>
</svg>
